{
.appVersion = "3134";
.formatVersion = 3;
customParameters = (
{
name = unicodeRanges;
value = (
48,
49,
50,
65,
68
);
},
{
name = panose;
value = (
1,
1,
1,
1,
1,
1,
1,
1,
1,
1
);
},
{
name = codePageRanges;
value = (
"932"
);
},
{
name = "Instance Preview";
value = (
"クガネへようこそ"
);
}
);
date = "2023-12-14 17:03:46 +0000";
familyName = "Augmented Far Eastern Script";
featurePrefixes = (
{
code = "languagesystem DFLT dflt;
languagesystem DFLT JAN;";
name = Languagesystems;
}
);
features = (
{
code = "feature liga;
feature dlig;
feature tnum;
feature fwid;
feature vert;
feature vkna;
feature vrt2;
feature salt;
feature ss01;
feature ss02;
";
tag = aalt;
},
{
code = "# a
sub a-hira a-hira by a_a-hira;
sub a-hira i-hira by a_i-hira;
sub a-hira u-hira by a_u-hira;
sub a-hira e-hira by a_e-hira;
sub a-hira o-hira by a_o-hira;
# i
sub i-hira a-hira by i_a-hira;
sub i-hira i-hira by i_i-hira;
sub i-hira u-hira by i_u-hira;
sub i-hira e-hira by i_e-hira;
sub i-hira o-hira by i_o-hira;
# u
sub u-hira a-hira by u_a-hira;
sub u-hira i-hira by u_i-hira;
sub u-hira u-hira by u_u-hira;
sub u-hira e-hira by u_e-hira;
sub u-hira o-hira by u_o-hira;
# e
sub e-hira a-hira by e_a-hira;
sub e-hira i-hira by e_i-hira;
sub e-hira u-hira by e_u-hira;
sub e-hira e-hira by e_e-hira;
sub e-hira o-hira by e_o-hira;
# o
sub o-hira a-hira by o_a-hira;
sub o-hira i-hira by o_i-hira;
sub o-hira u-hira by o_u-hira;
sub o-hira e-hira by o_e-hira;
sub o-hira o-hira by o_o-hira;

# punctuation
sub exclam exclam by exclam_exclam;
sub exclam question by exclam_question;
sub question exclam by question_exclam;
sub question question by question_question;
sub exclam.full exclam.full by exclam_exclam.full;
sub exclam.full question.full by exclam_question.full;
sub question.full exclam.full by question_exclam.full;
sub question.full question.full by question_question.full;";
tag = liga;
},
{
code = "sub yo-hira ri-hira by digraphyori-hira;
sub ko-hira to-hira by digraphkoto-kata;

glyphs = (
{
glyphname = "iterationmark-han.full";
lastChange = "2024-01-14 21:58:57 +0000";
layers = (
{
backgroundImage = {
imagePath = "images/々.png";
locked = 1;
pos = (-175,-288);
scale = (1.44,1.44);
};
layerId = m01;
shapes = (
{
closed = 1;
nodes = (
(527,286,l),
(348,306,o),
(299,424,o),
(306,502,cs),
(311,552,o),
(327,564,o),
(341,564,cs),
(348,564,o),
(371,556,o),
(378,556,cs),
(392,556,o),
(402,571,o),
(402,589,cs),
(402,634,o),
(311,682,o),
(257,682,c),
(239,665,l),
(264,650,o),
(279,634,o),
(256,552,cs),
(220,424,o),
(341,258,o),
(480,250,c)
);
},
{
closed = 1;
nodes = (
(444,252,o),
(425,236,cs),
(314,149,o),
(246,40,o),
(246,-12,c),
(260,-16,l),
(264,40,o),
(396,174,o),
(465,194,cs),
(513,209,o),
(544,196,o),
(563,196,cs),
(575,196,o),
(626,222,o),
(626,239,cs),
(626,246,o),
(560,296,o),
(536,306,cs),
(519,313,o)
);
}
);
width = 800;
}
);
},
{
glyphname = uni4EBA;
lastChange = "2023-12-28 04:13:41 +0000";
layers = (
{
backgroundImage = {
imagePath = "images/dlig_人.png";
locked = 1;
pos = (-87,-200);
};
layerId = m01;
shapes = (
{
closed = 1;
nodes = (
(390,485,o),
(367,464,o),
(367,435,cs),
(367,406,o),
(394,390,o),
(415,390,cs),
(436,390,o),
(463,411,o),
(463,432,cs),
(463,462,o),
(444,485,o),
(414,485,cs)
);
},
{
closed = 1;
nodes = (
(397,614,o),
(384,604,o),
(364,580,cs),
(350,563,o),
(436,563,o),
(469,550,cs),
(504,536,o),
(547,499,o),
(515,437,cs),
(490,389,o),
(457,332,o),
(450,253,cs),
(442,161,o),
(480,30,o),
(633,0,cs),
(703,-14,o),
(760,2,o),
(786,22,c),
(779,36,l),
(633,12,o),
(509,134,o),
(522,253,cs),
(529,318,o),
(571,371,o),
(600,435,cs),
(629,497,o),
(609,561,o),
(546,588,cs),
(499,608,o),
(445,614,o),
(417,614,cs)
);
},
{
closed = 1;
nodes = (
(276,417,o),
(224,357,o),
(212,337,cs),
(200,317,o),
(219,311,o),
(230,311,cs),
(241,311,o),
(263,310,o),
(289,275,cs),
(346,199,o),
(320,131,o),
(249,102,cs),
(220,90,o),
(203,122,o),
(204,148,cs),
(205,193,o),
(174,234,o),
(129,234,cs),
(100,234,o),
(70,231,o),
(27,182,c),
(38,171,l),
(59,188,o),
(85,197,o),
(109,197,cs),
(133,197,o),
(170,177,o),
(164,121,cs),
(158,65,o),
(198,21,o),
(235,21,cs),
(269,21,o),
(316,49,o),
(376,181,cs),
(394,221,o),
(361,342,o),
(292,403,cs)
);
},
{
closed = 1;
nodes = (
(312,279,l),
(359,300,o),
(435,269,o),
(469,193,c),
(486,245,l),
(451,276,o),
(388,365,o),
(310,374,c)
);
}
);
width = 800;
}
);
unicode = 20154;
},
{
glyphname = uni5730;
lastChange = "2023-12-28 04:13:41 +0000";
layers = (
{
backgroundImage = {
imagePath = "images/dlig_地.png";
locked = 1;
pos = (-44,-376);
};
layerId = m01;
shapes = (
{
closed = 1;
nodes = (
(381,527,o),
(287,447,o),
(270,429,cs),
(256,415,o),
(277,417,o),
(294,427,cs),
(328,447,o),
(360,409,o),
(349,374,cs),
(335,329,o),
(227,261,o),
(206,282,cs),
(183,305,o),
(399,378,o),
(513,393,cs),
(614,406,o),
(679,395,o),
(702,405,cs),
(709,408,o),
(654,449,o),
(639,445,cs),
(571,427,o),
(47,321,o),
(112,242,cs),
(141,206,o),
(311,282,o),
(418,355,cs),
(460,383,o),
(481,424,o),
(481,445,cs),
(481,461,o),
(426,527,o),
(394,527,cs)
);
},
{
closed = 1;
nodes = (
(534,392,o),
(405,306,o),
(375,271,cs),
(365,259,o),
(351,242,o),
(350,212,cs),
(349,181,o),
(349,85,o),
(349,55,cs),
(349,8,o),
(346,-12,o),
(323,0,cs),
(279,22,o),
(223,81,o),
(198,112,c),
(188,105,l),
(224,16,o),
(345,-63,o),
(390,-110,cs),
(414,-135,o),
(443,-126,o),
(440,-63,cs),
(437,0,o),
(435,169,o),
(435,213,cs),
(435,293,o),
(556,370,o),
(604,408,c),
(585,421,l)
);
},
{
closed = 1;
nodes = (
(254,242,o),
(250,237,o),
(257,219,cs),
(267,192,o),
(262,146,o),
(257,125,cs),
(254,114,o),
(281,88,o),
(294,88,cs),
(306,88,o),
(313,100,o),
(310,115,cs),
(304,146,o),
(306,186,o),
(314,205,cs),
(318,214,o),
(304,231,o),
(268,239,cs)
);
},
{
closed = 1;
nodes = (
(395,743,o),
(373,661,o),
(323,639,cs),
(286,622,o),
(394,590,o),
(394,579,cs),
(394,568,o),
(388,561,o),
(385,558,c),
(396,550,l),
(432,568,o),
(480,619,o),
(480,634,cs),
(480,660,o),
(420,709,o),
(402,734,cs)
);
},
{
closed = 1;
nodes = (
(538,263,o),
(525,193,o),
(474,173,cs),
(437,156,o),
(528,108,o),
(528,98,cs),
(528,87,o),
(522,80,o),
(519,78,c),
(530,70,l),
(567,87,o),
(624,146,o),
(624,160,cs),
(624,184,o),
(563,231,o),
(545,255,cs)
);
}
);
width = 800;
}
);
unicode = 22320;
},
{
glyphname = uni5929;
lastChange = "2023-12-28 04:13:41 +0000";
layers = (
{
backgroundImage = {
imagePath = "images/dlig_天.png";
locked = 1;
pos = (-10,-226);
};
layerId = m01;
shapes = (
{
closed = 1;
nodes = (
(415,735,o),
(359,661,o),
(359,641,cs),
(359,595,o),
(414,570,o),
(414,558,cs),
(414,546,o),
(408,539,o),
(405,536,c),
(416,527,l),
(452,546,o),
(490,601,o),
(490,617,cs),
(490,645,o),
(440,698,o),
(422,725,cs)
);
},
{
closed = 1;
nodes = (
(191,538,o),
(169,517,o),
(169,508,cs),
(169,490,o),
(198,456,o),
(237,409,cs),
(266,374,o),
(271,230,o),
(253,142,cs),
(227,13,o),
(127,-133,o),
(34,-181,c),
(48,-199,l),
(148,-160,o),
(259,-31,o),
(303,87,cs),
(332,166,o),
(349,338,o),
(314,411,cs),
(288,466,o),
(218,538,o),
(198,538,cs)
);
},
{
closed = 1;
nodes = (
(240,466,o),
(265,410,o),
(281,410,cs),
(297,410,o),
(322,444,o),
(341,444,cs),
(360,444,o),
(542,464,o),
(576,452,c),
(617,467,l),
(607,477,o),
(617,497,o),
(587,497,cs),
(557,497,o),
(254,486,o),
(219,494,c)
);
},
{
closed = 1;
nodes = (
(604,555,o),
(532,430,o),
(512,358,cs),
(492,286,o),
(518,230,o),
(539,198,cs),
(553,177,o),
(557,167,o),
(540,167,cs),
(522,167,o),
(415,163,o),
(383,169,cs),
(376,170,o),
(366,168,o),
(366,162,cs),
(366,150,o),
(376,140,o),
(391,142,cs),
(396,143,o),
(406,144,o),
(422,144,cs),
(472,144,o),
(569,143,o),
(603,143,cs),
(618,143,o),
(624,134,o),
(630,134,cs),
(636,134,o),
(643,155,o),
(643,167,cs),
(643,174,o),
(559,236,o),
(587,346,cs),
(610,435,o),
(667,490,o),
(680,490,cs),
(689,490,o),
(699,495,o),
(699,506,cs),
(699,512,o),
(635,555,o),
(621,555,cs)
);
},
{
closed = 1;
nodes = (
(399,154,l),
(467,154,l),
(467,468,l),
(399,468,l)
);
}
);
width = 800;
}
);
unicode = 22825;
},
{
glyphname = "a-hira.full";
lastChange = "2024-01-14 21:59:42 +0000";
layers = (
{
backgroundImage = {
imagePath = "images/あ.png";
locked = 1;
pos = (-2,-197);
scale = (1.44,1.44);
};
hints = (
{
place = (464, 34);
place = (464, 34);
type = Stem;
}
);
layerId = m01;
shapes = (
{
closed = 1;
nodes = (
(310,799,l),
(335,767,o),
(383,715,o),
(383,648,cs),
(383,502,o),
(388,180,o),
(376,94,cs),
(372,68,o),
(365,54,o),
(364,47,cs),
(363,40,o),
(371,14,o),
(377,0,cs),
(383,-14,o),
(399,-30,o),
(406,-30,cs),
(413,-30,o),
(420,-18,o),
(418,24,cs),
(411,184,o),
(406,484,o),
(413,607,cs),
(418,676,o),
(429,682,o),
(442,682,cs),
(455,682,o),
(468,690,o),
(468,696,cs),
(468,707,o),
(462,725,o),
(449,736,cs),
(440,744,o),
(404,774,o),
(317,808,c)
);
},
{
closed = 1;
nodes = (
(492,493,l),
(510,479,o),
(524,458,o),
(510,439,cs),
(440,330,o),
(189,222,o),
(112,206,c),
(116,197,l),
(329,235,o),
(413,307,o),
(531,355,cs),
(551,364,o),
(567,367,o),
(584,367,cs),
(598,367,o),
(616,386,o),
(591,427,cs),
(572,458,o),
(526,493,o),
(503,498,c)
);
}
);
width = 800;
}
);
tags = (
hira
);
},
{
color = 1;
glyphname = "asmall-hira.full";
lastChange = "2024-01-14 22:00:33 +0000";
layers = (
{
backgroundImage = {
imagePath = "images/すてがな_ぁ.png";
locked = 1;
pos = (149,-230);
scale = (1.44,1.44);
};
hints = (
{
origin = (0,5);
target = (0,37);
type = Stem;
},
{
horizontal = 1;
origin = (0,12);
target = (0,25);
type = Stem;
},
{
origin = (0,15);
place = (498, 48);
type = Stem;
}
);
layerId = m01;
shapes = (
{
closed = 1;
nodes = (
(347,508,l),
(360,496,o),
(369,486,o),
(376,470,cs),
(383,455,o),
(387,264,o),
(386,232,cs),
(384,199,o),
(381,198,o),
(368,204,cs),
(300,236,o),
(323,295,o),
(422,323,cs),
(471,336,o),
(498,311,o),
(498,263,cs),
(498,167,o),
(352,16,o),
(226,-19,c),
(238,-32,l),
(402,11,o),
(516,137,o),
(544,236,cs),
(564,312,o),
(510,362,o),
(454,358,cs),
(347,348,o),
(281,266,o),
(281,223,cs),
(281,179,o),
(381,156,o),
(392,146,cs),
(402,137,o),
(411,136,o),
(416,144,cs),
(420,152,o),
(412,180,o),
(412,202,cs),
(412,223,o),
(410,378,o),
(417,401,cs),
(424,424,o),
(442,427,o),
(449,427,cs),
(456,427,o),
(474,430,o),
(474,442,cs),
(474,466,o),
(448,476,o),
(368,527,c)
);
}
);
width = 800;
}
);
tags = (
sutegana
);
},
{
glyphname = "i-hira.full";
lastChange = "2024-01-14 22:00:58 +0000";
layers = (
{
backgroundImage = {
imagePath = "images/い.png";
locked = 1;
pos = (-9,-230);
scale = (1.44,1.44);
};
hints = (
{
place = (464, 38);
place = (464, 38);
type = Stem;
}
);
layerId = m01;
shapes = (
{
closed = 1;
nodes = (
(308,757,l),
(329,744,o),
(366,706,o),
(377,638,cs),
(390,558,o),
(381,157,o),
(378,112,cs),
(376,59,o),
(370,48,o),
(363,38,cs),
(345,17,o),
(358,-24,o),
(396,-60,cs),
(407,-70,o),
(448,-71,o),
(448,-49,cs),
(448,-38,o),
(444,-28,o),
(432,-12,cs),
(425,-2,o),
(411,32,o),
(407,109,cs),
(402,205,o),
(412,478,o),
(418,598,cs),
(420,650,o),
(442,660,o),
(453,661,cs),
(464,662,o),
(476,668,o),
(476,682,cs),
(476,690,o),
(471,701,o),
(464,707,cs),
(448,719,o),
(406,745,o),
(326,773,c)
);
},
{
closed = 1;
nodes = (
(603,559,o),
(554,594,cs),
(538,604,o),
(542,576,o),
(524,546,cs),
(518,535,o),
(472,486,o),
(453,401,cs),
(402,178,o),
(628,24,o),
(767,43,c),
(764,58,l),
(615,52,o),
(455,232,o),
(498,378,cs),
(522,458,o),
(556,491,o),
(582,491,cs),
(605,491,o),
(623,472,o),
(630,472,cs),
(641,472,o),
(653,478,o),
(657,484,cs),
(660,490,o),
(660,505,o),
(641,523,cs),
(628,535,o)
);
}
);
width = 800;
}
);
tags = (
hira
);
},
{
color = 1;
glyphname = "ismall-hira.full";
lastChange = "2024-01-14 22:01:15 +0000";
layers = (
{
backgroundImage = {
imagePath = "images/すてがな_ぃ.png";
locked = 1;
pos = (180,-230);
scale = (1.44,1.44);
};
hints = (
{
place = (199, 209);
place = (199, 209);
target = (1,18);
type = Stem;
}
);
layerId = m01;
shapes = (
{
closed = 1;
nodes = (
(296,520,l),
(315,506,o),
(341,482,o),
(345,459,cs),
(357,384,o),
(350,308,o),
(341,243,cs),
(340,232,o),
(336,218,o),
(344,208,cs),
(351,198,o),
(371,168,o),
(384,176,cs),
(393,180,o),
(378,292,o),
(383,414,cs),
(384,437,o),
(407,437,o),
(413,437,cs),
(419,437,o),
(428,450,o),
(428,459,cs),
(428,467,o),
(376,513,o),
(308,532,c)
);
},
{
closed = 1;
nodes = (
(502,377,o),
(486,352,o),
(471,328,cs),
(446,290,o),
(382,256,o),
(366,156,cs),
(348,46,o),
(402,-31,o),
(480,-31,cs),
(515,-31,o),
(558,-15,o),
(585,12,c),
(576,24,l),
(549,10,o),
(514,3,o),
(491,3,cs),
(419,3,o),
(399,89,o),
(408,147,cs),
(424,236,o),
(482,262,o),
(506,262,cs),
(531,262,o),
(568,269,o),
(568,285,cs),
(568,309,o),
(508,326,o),
(504,357,cs)
);
}
);
width = 800;
}
);
tags = (
hira,
sutegana
);
},
{
glyphname = "u-hira.full";
lastChange = "2024-01-14 22:01:47 +0000";
layers = (
{
backgroundImage = {
imagePath = "images/う.png";
locked = 1;
pos = (-14,-230);
scale = (1.44,1.44);
};
hints = (
{
origin = (0,3);
target = (0,27);
type = Stem;
}
);
layerId = m01;
shapes = (
{
closed = 1;
nodes = (
(342,767,l),
(356,743,o),
(378,709,o),
(381,655,cs),
(388,496,o),
(387,194,o),
(381,94,cs),
(378,41,o),
(372,41,o),
(371,36,cs),
(363,11,o),
(381,-34,o),
(392,-46,cs),
(405,-60,o),
(419,-58,o),
(425,-58,cs),
(431,-58,o),
(447,-54,o),
(453,-25,cs),
(455,-16,o),
(449,-4,o),
(444,10,cs),
(440,23,o),
(425,58,o),
(420,152,cs),
(412,312,o),
(414,496,o),
(418,586,cs),
(419,624,o),
(423,638,o),
(426,641,cs),
(430,643,o),
(461,635,o),
(472,635,cs),
(483,635,o),
(491,644,o),
(491,654,cs),
(491,670,o),
(485,684,o),
(476,697,cs),
(464,714,o),
(430,739,o),
(354,776,c)
);
},
{
closed = 1;
nodes = (
(227,320,o),
(227,308,cs),
(227,274,o),
(273,223,o),
(300,223,cs),
(316,223,o),
(329,262,o),
(377,280,cs),
(418,295,o),
(587,356,o),
(711,416,c),
(705,428,l),
(638,403,o),
(386,320,o),
(321,311,cs),
(306,308,o),
(291,323,o),
(272,355,cs),
(260,374,o)
);
}
);
width = 800;
}
);
tags = (
hira
);
},
{
color = 1;
glyphname = "usmall-hira.full";
lastChange = "2024-01-14 22:02:02 +0000";
layers = (
{
backgroundImage = {
imagePath = "images/すてがな_ぅ.png";
locked = 1;
pos = (138,-230);
scale = (1.44,1.44);
};
hints = (
{
origin = (0,3);
target = (0,22);
type = Stem;
}
);
layerId = m01;
shapes = (
{
closed = 1;
nodes = (
(332,510,l),
(353,487,o),
(369,464,o),
(376,441,cs),
(386,409,o),
(388,295,o),
(387,273,cs),
(386,252,o),
(383,243,o),
(370,254,cs),
(357,265,o),
(338,284,o),
(326,297,c),
(316,284,l),
(332,240,o),
(369,181,o),
(386,153,cs),
(396,135,o),
(425,127,o),
(420,165,cs),
(412,242,o),
(410,393,o),
(417,414,cs),
(424,434,o),
(450,432,o),
(450,446,cs),
(450,456,o),
(410,492,o),
(347,531,c)
);
},
{
closed = 1;
nodes = (
(206,80,o),
(206,68,cs),
(206,54,o),
(249,-30,o),
(284,-30,cs),
(299,-30,o),
(302,9,o),
(322,18,cs),
(399,51,o),
(551,152,o),
(586,187,c),
(580,199,l),
(504,153,o),
(364,76,o),
(290,66,cs),
(275,63,o),
(244,62,o),
(225,94,cs),
(213,114,o)
);
}
);
width = 800;
}
);
tags = (
hira,
sutegana
);
},
{
glyphname = "e-hira.full";
lastChange = "2024-01-14 22:03:26 +0000";
layers = (
{
backgroundImage = {
imagePath = "images/え.png";
locked = 1;
pos = (-15,-230);
scale = (1.44,1.44);
};
hints = (
{
place = (457, -38);
place = (457, -38);
target = (0,27);
type = Stem;
}
);
layerId = m01;
shapes = (
{
closed = 1;
nodes = (
(328,775,l),
(345,761,o),
(372,739,o),
(383,671,cs),
(390,622,o),
(394,313,o),
(394,220,cs),
(394,103,o),
(393,47,o),
(386,44,cs),
(378,42,o),
(377,35,o),
(376,26,cs),
(375,10,o),
(382,-16,o),
(398,-36,cs),
(408,-50,o),
(418,-53,o),
(422,-53,cs),
(425,-53,o),
(441,-38,o),
(437,-29,cs),
(431,-12,o),
(414,0,o),
(416,36,cs),
(420,179,o),
(414,588,o),
(419,620,cs),
(424,653,o),
(435,662,o),
(441,662,cs),
(447,662,o),
(467,666,o),
(467,679,cs),
(467,692,o),
(467,716,o),
(454,731,cs),
(429,756,o),
(382,781,o),
(339,786,c)
);
},
{
closed = 1;
nodes = (
(380,724,l),
(335,700,o),
(270,672,o),
(270,629,cs),
(270,577,o),
(350,569,o),
(440,509,cs),
(507,463,o),
(552,396,o),
(548,344,cs),
(544,295,o),
(515,266,o),
(441,260,cs),
(345,254,o),
(132,142,o),
(170,20,c),
(184,25,l),
(184,122,o),
(312,197,o),
(396,205,cs),
(472,212,o),
(546,188,o),
(591,257,cs),
(659,366,o),
(552,452,o),
(476,509,cs),
(393,569,o),
(298,600,o),
(298,636,cs),
(298,662,o),
(353,692,o),
(400,685,c)
);
}
);
width = 800;
}
);
tags = (
hira
);
},
{
color = 1;
glyphname = "esmall-hira.full";
lastChange = "2024-01-14 22:03:06 +0000";
layers = (
{
backgroundImage = {
imagePath = "images/すてがな_ぇ.png";
locked = 1;
pos = (159,-230);
scale = (1.44,1.44);
};
hints = (
{
origin = (0,3);
target = (0,15);
type = Stem;
}
);
layerId = m01;
shapes = (
{
closed = 1;
nodes = (
(335,503,l),
(354,489,o),
(376,472,o),
(380,449,cs),
(386,410,o),
(386,324,o),
(381,280,cs),
(380,269,o),
(378,256,o),
(383,245,cs),
(390,228,o),
(410,196,o),
(425,204,cs),
(430,207,o),
(420,234,o),
(417,279,cs),
(413,324,o),
(414,382,o),
(417,418,cs),
(418,441,o),
(441,441,o),
(447,441,cs),
(453,441,o),
(461,454,o),
(461,462,cs),
(461,471,o),
(416,496,o),
(347,515,c)
);
},
{
closed = 1;
nodes = (
(399,364,l),
(435,364,o),
(509,351,o),
(509,296,cs),
(509,252,o),
(420,234,o),
(320,152,cs),
(263,105,o),
(210,45,o),
(226,-43,c),
(243,-33,l),
(246,158,o),
(580,201,o),
(580,290,cs),
(580,348,o),
(453,382,o),
(399,382,c)
);
}
);
width = 800;
}
);
tags = (
hira,
sutegana
);
},
{
glyphname = "o-hira.full";
lastChange = "2024-01-14 22:03:54 +0000";
layers = (
{
backgroundImage = {
imagePath = "images/お.png";
locked = 1;
pos = (-14,-230);
scale = (1.44,1.44);
};
hints = (
{
origin = (0,3);
target = (0,27);
type = Stem;
}
);
layerId = m01;
shapes = (
{
closed = 1;
nodes = (
(352,767,l),
(359,750,o),
(378,708,o),
(382,666,cs),
(392,576,o),
(387,132,o),
(384,95,cs),
(382,58,o),
(377,58,o),
(374,54,cs),
(371,52,o),
(363,50,o),
(362,47,cs),
(354,29,o),
(368,-4,o),
(383,-22,cs),
(394,-35,o),
(406,-42,o),
(411,-42,cs),
(416,-42,o),
(425,-31,o),
(425,-18,cs),
(425,-5,o),
(416,44,o),
(414,88,cs),
(413,131,o),
(413,527,o),
(417,618,cs),
(418,659,o),
(434,664,o),
(441,665,cs),
(449,666,o),
(460,674,o),
(460,683,cs),
(460,691,o),
(449,708,o),
(443,714,cs),
(435,722,o),
(416,755,o),
(368,781,c)
);
},
{
closed = 1;
nodes = (
(216,499,o),
(203,480,o),
(198,470,cs),
(192,458,o),
(203,385,o),
(264,385,cs),
(284,385,o),
(288,418,o),
(284,419,cs),
(276,421,o),
(269,425,o),
(266,431,cs),
(262,437,o),
(266,458,o),
(274,470,cs),
(291,493,o),
(332,545,o),
(382,545,cs),
(432,545,o),
(468,491,o),
(480,450,cs),
(495,400,o),
(471,314,o),
(471,254,cs),
(471,193,o),
(507,120,o),
(611,120,cs),
(719,120,o),
(813,230,o),
(813,278,c),
(802,289,l),
(792,245,o),
(714,176,o),
(650,176,cs),
(562,176,o),
(528,238,o),
(533,329,cs),
(540,464,o),
(480,568,o),
(371,568,cs),
(309,568,o),
(276,511,o),
(242,502,cs),
(237,500,o),
(227,499,o),
(222,499,cs)
);
}
);
width = 800;
}
);
tags = (
hira
);
},
{
color = 1;
glyphname = "osmall-hira.full";
lastChange = "2024-01-14 22:04:29 +0000";
layers = (
{
backgroundImage = {
imagePath = "images/すてがな_ぉ.png";
locked = 1;
pos = (200,-230);
scale = (1.44,1.44);
};
hints = (
{
origin = (0,3);
place = (372, 36);
type = Stem;
}
);
layerId = m01;
shapes = (
{
closed = 1;
nodes = (
(333,516,l),
(352,494,o),
(369,466,o),
(372,443,cs),
(377,413,o),
(378,302,o),
(377,231,cs),
(377,210,o),
(366,210,o),
(352,214,cs),
(278,231,o),
(297,308,o),
(366,311,cs),
(486,317,o),
(473,243,o),
(460,142,cs),
(447,51,o),
(498,-12,o),
(566,-12,cs),
(617,-12,o),
(657,27,o),
(659,50,c),
(648,60,l),
(634,41,o),
(602,24,o),
(579,24,cs),
(524,24,o),
(498,78,o),
(498,140,cs),
(498,190,o),
(524,318,o),
(414,329,cs),
(308,340,o),
(242,256,o),
(268,213,cs),
(291,176,o),
(326,190,o),
(336,172,cs),
(362,129,o),
(372,108,o),
(402,108,cs),
(417,108,o),
(413,153,o),
(410,197,cs),
(406,243,o),
(404,371,o),
(406,407,cs),
(407,430,o),
(430,430,o),
(436,430,cs),
(442,430,o),
(450,443,o),
(450,452,cs),
(450,460,o),
(413,494,o),
(345,528,c)
);
}
);
width = 800;
}
);
tags = (
hira,
sutegana
);
},
{
glyphname = "ka-hira.full";
lastChange = "2024-01-14 22:04:52 +0000";
layers = (
{
backgroundImage = {
imagePath = "images/か.png";
locked = 1;
pos = (5,-230);
scale = (1.44,1.44);
};
layerId = m01;
shapes = (
{
closed = 1;
nodes = (
(498,758,l),
(509,745,o),
(524,725,o),
(502,694,cs),
(426,584,o),
(225,427,o),
(107,394,c),
(118,383,l),
(317,432,o),
(438,569,o),
(538,638,cs),
(556,652,o),
(572,642,o),
(590,642,cs),
(604,642,o),
(632,666,o),
(604,706,cs),
(584,736,o),
(538,766,o),
(514,769,c)
);
},
{
closed = 1;
nodes = (
(368,521,l),
(411,518,o),
(471,474,o),
(462,462,cs),
(444,437,o),
(341,439,o),
(317,353,cs),
(293,265,o),
(462,220,o),
(497,154,cs),
(548,58,o),
(352,-24,o),
(290,-7,c),
(285,-20,l),
(393,-53,o),
(500,-12,o),
(548,68,cs),
(572,109,o),
(605,192,o),
(525,226,cs),
(471,248,o),
(339,295,o),
(350,347,cs),
(362,403,o),
(470,410,o),
(489,403,cs),
(513,395,o),
(519,382,o),
(525,378,cs),
(537,371,o),
(555,377,o),
(566,386,cs),
(576,396,o),
(581,403,o),
(569,427,cs),
(549,467,o),
(468,528,o),
(401,547,c)
);
},
{
closed = 1;
nodes = (
(299,194,cs),
(292,185,o),
(290,164,o),
(297,148,cs),
(308,122,o),
(332,116,o),
(348,114,cs),
(366,112,o),
(377,115,o),
(383,124,cs),
(389,132,o),
(368,138,o),
(374,152,cs),
(380,167,o),
(389,176,o),
(401,197,c),
(396,202,l),
(387,197,o),
(382,192,o),
(359,179,cs),
(348,173,o),
(324,185,o),
(317,205,cs),
(316,209,o),
(308,205,o)
);
}
);
width = 800;
}
);
tags = (
hira
);
},
{
glyphname = "ki-hira.full";
lastChange = "2024-01-14 22:05:38 +0000";
layers = (
{
backgroundImage = {
imagePath = "images/き.png";
locked = 1;
pos = (57,-230);
scale = (1.44,1.44);
};
layerId = m01;
shapes = (
{
closed = 1;
nodes = (
(383,703,l),
(394,692,o),
(414,677,o),
(416,668,cs),
(417,656,o),
(332,635,o),
(309,582,cs),
(284,523,o),
(306,492,o),
(339,472,cs),
(376,449,o),
(441,451,o),
(464,395,cs),
(480,350,o),
(448,270,o),
(380,214,cs),
(282,133,o),
(180,94,o),
(114,94,c),
(117,84,l),
(278,62,o),
(455,172,o),
(518,300,cs),
(545,358,o),
(555,440,o),
(504,470,cs),
(468,492,o),
(411,487,o),
(371,500,cs),
(342,510,o),
(318,540,o),
(327,564,cs),
(338,601,o),
(396,612,o),
(422,604,cs),
(447,595,o),
(456,587,o),
(471,577,cs),
(485,568,o),
(512,564,o),
(518,570,cs),
(524,576,o),
(532,604,o),
(532,614,cs),
(532,652,o),
(429,692,o),
(398,713,c)
);
},
{
closed = 1;
nodes = (
(257,368,cs),
(251,359,o),
(252,332,o),
(260,316,cs),
(270,290,o),
(284,282,o),
(294,277,cs),
(312,270,o),
(327,274,o),
(333,282,cs),
(339,290,o),
(347,302,o),
(358,313,cs),
(380,335,o),
(405,354,o),
(416,377,c),
(411,382,l),
(384,361,o),
(345,342,o),
(318,342,cs),
(303,342,o),
(290,368,o),
(279,386,cs),
(276,390,o),
(263,378,o)
);
},
{
closed = 1;
nodes = (
(396,180,l),
(411,125,o),
(467,62,o),
(524,13,cs),
(574,-30,o),
(615,-26,o),
(647,-26,cs),
(695,-26,o),
(780,0,o),
(808,12,c),
(802,19,l),
(765,8,o),
(714,4,o),
(614,41,cs),
(526,73,o),
(426,169,o),
(414,193,c)
);
}
);
width = 800;
}
);
tags = (
hira
);
},
{
glyphname = "ku-hira.full";
lastChange = "2024-01-14 22:06:51 +0000";
layers = (
{
backgroundImage = {
imagePath = "images/く.png";
locked = 1;
pos = (22,-230);
scale = (1.44,1.44);
};
layerId = m01;
shapes = (
{
closed = 1;
nodes = (
(380,680,l),
(396,670,o),
(420,640,o),
(410,640,cs),
(366,640,o),
(287,596,o),
(279,560,cs),
(268,514,o),
(314,476,o),
(364,476,cs),
(398,476,o),
(448,470,o),
(461,428,cs),
(476,384,o),
(444,314,o),
(366,250,cs),
(282,180,o),
(166,103,o),
(149,103,cs),
(126,103,o),
(105,114,o),
(98,114,cs),
(89,114,o),
(75,97,o),
(76,77,cs),
(77,61,o),
(122,28,o),
(142,28,cs),
(146,28,o),
(155,44,o),
(177,71,cs),
(185,82,o),
(212,100,o),
(222,106,cs),
(249,120,o),
(358,133,o),
(456,134,cs),
(524,136,o),
(579,125,o),
(632,116,cs),
(642,115,o),
(669,104,o),
(676,95,cs),
(689,77,o),
(718,80,o),
(728,80,cs),
(734,80,o),
(752,90,o),
(752,100,cs),
(752,114,o),
(743,126,o),
(734,136,cs),
(719,150,o),
(694,170,o),
(654,185,cs),
(638,191,o),
(639,142,o),
(621,144,cs),
(532,160,o),
(419,160,o),
(300,144,cs),
(293,143,o),
(284,144,o),
(284,150,cs),
(284,152,o),
(294,162,o),
(302,167,cs),
(398,233,o),
(526,330,o),
(538,386,cs),
(546,430,o),
(500,478,o),
(465,499,cs),
(422,524,o),
(308,485,o),
(308,548,cs),
(308,581,o),
(389,601,o),
(414,593,cs),
(440,584,o),
(466,569,o),
(480,559,cs),
(495,550,o),
(506,542,o),
(512,548,cs),
(518,554,o),
(522,558,o),
(522,568,cs),
(522,577,o),
(524,610,o),
(510,628,cs),
(496,648,o),
(471,677,o),
(393,695,c)
);
},
{
closed = 1;
nodes = (
(201,390,cs),
(192,374,o),
(200,347,o),
(207,330,cs),
(227,283,o),
(281,263,o),
(304,281,cs),
(312,288,o),
(302,320,o),
(308,334,cs),
(323,370,o),
(356,394,o),
(372,414,c),
(370,422,l),
(328,400,o),
(292,360,o),
(266,360,cs),
(250,360,o),
(232,378,o),
(222,404,cs),
(221,408,o),
(207,401,o)
);
}
);
width = 800;
}
);
tags = (
hira
);
},
{
glyphname = "ke-hira.full";
lastChange = "2024-01-14 22:07:31 +0000";
layers = (
{
backgroundImage = {
imagePath = "images/け.png";
locked = 1;
pos = (106,-230);
scale = (1.44,1.44);
};
layerId = m01;
shapes = (
{
closed = 1;
nodes = (
(284,666,o),
(275,667,o),
(274,665,cs),
(261,641,o),
(263,629,o),
(266,618,cs),
(270,601,o),
(286,583,o),
(308,569,cs),
(329,554,o),
(339,557,o),
(350,575,cs),
(353,581,o),
(350,594,o),
(348,599,cs),
(345,612,o),
(333,636,o),
(338,648,cs),
(342,660,o),
(370,725,o),
(406,733,cs),
(431,739,o),
(454,713,o),
(453,680,cs),
(452,637,o),
(444,620,o),
(444,582,cs),
(444,544,o),
(458,490,o),
(503,450,cs),
(568,394,o),
(653,385,o),
(646,355,cs),
(636,313,o),
(572,329,o),
(477,234,cs),
(376,132,o),
(366,-24,o),
(420,-64,c),
(428,-58,l),
(400,-8,o),
(402,72,o),
(458,145,cs),
(530,241,o),
(626,227,o),
(710,286,cs),
(750,314,o),
(752,366,o),
(713,398,cs),
(654,449,o),
(532,449,o),
(495,521,cs),
(458,589,o),
(501,656,o),
(471,721,cs),
(459,749,o),
(418,768,o),
(386,752,cs),
(341,731,o),
(322,702,o),
(300,655,cs),
(297,648,o),
(290,656,o),
(286,662,cs)
);
},
{
closed = 1;
nodes = (
(353,508,o),
(302,536,cs),
(294,540,o),
(282,545,o),
(279,544,cs),
(268,540,o),
(291,517,o),
(286,509,cs),
(282,502,o),
(245,498,o),
(225,486,cs),
(204,474,o),
(180,434,o),
(184,403,cs),
(188,376,o),
(206,347,o),
(258,316,cs),
(285,300,o),
(278,234,o),
(258,202,cs),
(234,160,o),
(206,136,o),
(177,110,c),
(188,103,l),
(261,140,o),
(311,182,o),
(333,256,cs),
(346,301,o),
(333,343,o),
(293,348,cs),
(240,354,o),
(226,376,o),
(222,415,cs),
(220,440,o),
(254,468,o),
(290,463,cs),
(320,460,o),
(340,433,o),
(353,433,cs),
(360,433,o),
(383,463,o),
(378,472,cs),
(366,490,o)
);
},
{
closed = 1;
nodes = (
(132,329,cs),
(126,301,o),
(138,265,o),
(166,258,cs),
(191,251,o),
(206,274,o),
(210,314,c),
(206,320,l),
(202,308,o),
(188,300,o),
(176,305,cs),
(167,308,o),
(160,320,o),
(152,342,cs),
(150,344,o),
(134,335,o)
);
}
);
width = 800;
}
);
tags = (
hira
);
},
{
glyphname = "ko-hira.full";
lastChange = "2024-01-14 22:08:37 +0000";
layers = (
{
backgroundImage = {
imagePath = "images/こ.png";
locked = 1;
pos = (59,-230);
scale = (1.44,1.44);
};
layerId = m01;
shapes = (
{
closed = 1;
nodes = (
(333,746,l),
(350,738,o),
(407,697,o),
(401,677,cs),
(387,626,o),
(287,620,o),
(287,551,cs),
(287,527,o),
(314,502,o),
(348,502,cs),
(388,502,o),
(417,518,o),
(446,502,cs),
(479,482,o),
(428,427,o),
(354,365,cs),
(270,294,o),
(200,203,o),
(166,115,cs),
(160,98,o),
(146,96,o),
(144,86,cs),
(143,76,o),
(160,49,o),
(183,30,cs),
(190,24,o),
(195,18,o),
(202,18,cs),
(206,18,o),
(220,24,o),
(220,46,cs),
(220,119,o),
(264,239,o),
(348,241,cs),
(471,245,o),
(411,4,o),
(617,4,cs),
(728,4,o),
(810,120,o),
(819,142,c),
(809,146,l),
(786,124,o),
(724,76,o),
(652,76,cs),
(515,76,o),
(489,276,o),
(363,276,cs),
(318,276,o),
(272,230,o),
(270,233,cs),
(268,235,o),
(279,253,o),
(284,259,cs),
(372,389,o),
(480,374,o),
(526,455,cs),
(552,502,o),
(522,548,o),
(474,557,cs),
(411,568,o),
(326,508,o),
(318,551,cs),
(314,577,o),
(357,600,o),
(388,612,cs),
(418,623,o),
(436,622,o),
(465,626,cs),
(489,630,o),
(516,658,o),
(500,678,cs),
(486,695,o),
(419,737,o),
(342,761,c)
);
},
{
closed = 1;
nodes = (
(170,431,cs),
(170,419,o),
(185,391,o),
(195,374,cs),
(219,335,o),
(238,311,o),
(268,335,cs),
(276,342,o),
(266,377,o),
(272,390,cs),
(287,426,o),
(310,443,o),
(327,463,c),
(318,468,l),
(282,449,o),
(262,425,o),
(236,425,cs),
(219,425,o),
(208,449,o),
(194,466,cs),
(189,472,o),
(170,440,o)
);
}
);
width = 800;
}
);
tags = (
hira
);
},
{
glyphname = "sa-hira.full";
lastChange = "2024-01-14 22:09:11 +0000";
layers = (
{
backgroundImage = {
imagePath = "images/さ.png";
locked = 1;
pos = (57,-230);
scale = (1.44,1.44);
};
layerId = m01;
shapes = (
{
closed = 1;
nodes = (
(515,757,l),
(520,749,o),
(533,734,o),
(532,722,cs),
(531,710,o),
(509,704,o),
(488,691,cs),
(466,678,o),
(410,631,o),
(363,595,cs),
(309,554,o),
(225,487,o),
(155,475,c),
(166,467,l),
(299,478,o),
(468,629,o),
(521,653,cs),
(548,665,o),
(568,667,o),
(574,658,cs),
(580,648,o),
(587,634,o),
(597,634,cs),
(606,634,o),
(652,652,o),
(652,667,cs),
(652,683,o),
(647,700,o),
(641,712,cs),
(633,730,o),
(615,740,o),
(533,773,c)
);
},
{
closed = 1;
nodes = (
(389,545,l),
(364,510,o),
(342,473,o),
(327,460,cs),
(314,449,o),
(299,449,o),
(290,443,cs),
(280,437,o),
(273,421,o),
(299,392,cs),
(318,371,o),
(334,361,o),
(339,361,cs),
(344,361,o),
(358,377,o),
(357,392,cs),
(356,408,o),
(363,418,o),
(370,426,cs),
(386,443,o),
(447,488,o),
(454,484,cs),
(461,479,o),
(416,434,o),
(399,384,cs),
(383,338,o),
(479,330,o),
(497,278,cs),
(514,232,o),
(410,245,o),
(334,182,cs),
(270,130,o),
(209,38,o),
(267,-70,c),
(279,-62,l),
(233,112,o),
(386,167,o),
(459,174,cs),
(519,180,o),
(581,202,o),
(581,258,cs),
(581,326,o),
(434,344,o),
(436,388,cs),
(438,428,o),
(525,502,o),
(542,512,cs),
(551,518,o),
(522,551,o),
(506,550,cs),
(480,547,o),
(388,462,o),
(374,472,cs),
(365,478,o),
(384,509,o),
(400,539,c)
);
}
);
width = 800;
}
);
tags = (
hira
);
},
{
glyphname = "si-hira.full";
lastChange = "2024-01-14 22:09:38 +0000";
layers = (
{
backgroundImage = {
imagePath = "images/し.png";
locked = 1;
pos = (6,-230);
scale = (1.44,1.44);
};
hints = (
{
origin = (0,3);
target = (0,30);
type = Stem;
}
);
layerId = m01;
shapes = (
{
closed = 1;
nodes = (
(308,756,l),
(340,718,o),
(364,707,o),
(376,677,cs),
(388,647,o),
(386,214,o),
(386,125,cs),
(386,91,o),
(386,36,o),
(383,31,cs),
(381,26,o),
(372,37,o),
(363,31,cs),
(356,26,o),
(364,-6,o),
(376,-25,cs),
(389,-47,o),
(411,-68,o),
(429,-68,cs),
(444,-68,o),
(460,-68,o),
(460,-55,cs),
(460,-47,o),
(459,-31,o),
(450,-16,cs),
(442,0,o),
(423,14,o),
(417,38,cs),
(411,62,o),
(418,616,o),
(426,638,cs),
(435,661,o),
(447,664,o),
(458,664,cs),
(468,664,o),
(483,666,o),
(483,674,cs),
(483,683,o),
(483,700,o),
(444,724,cs),
(408,746,o),
(390,751,o),
(318,767,c)
);
},
{
closed = 1;
nodes = (
(224,539,l),
(243,526,o),
(262,517,o),
(264,499,cs),
(267,480,o),
(233,432,o),
(220,412,c),
(226,407,l),
(257,432,o),
(284,455,o),
(296,470,cs),
(308,486,o),
(324,476,o),
(335,476,cs),
(345,476,o),
(352,482,o),
(352,491,cs),
(352,499,o),
(342,509,o),
(328,520,cs),
(311,532,o),
(296,536,o),
(237,551,c)
);
},
{
closed = 1;
nodes = (
(186,384,o),
(168,379,o),
(166,368,cs),
(164,358,o),
(188,293,o),
(201,293,cs),
(214,293,o),
(218,314,o),
(228,326,cs),
(239,338,o),
(269,358,o),
(272,352,cs),
(279,336,o),
(245,299,o),
(239,280,cs),
(228,247,o),
(272,235,o),
(268,229,cs),
(262,218,o),
(213,223,o),
(180,202,cs),
(146,179,o),
(111,125,o),
(114,76,c),
(125,70,l),
(146,160,o),
(201,190,o),
(250,196,cs),
(261,197,o),
(276,186,o),
(270,176,cs),
(266,169,o),
(274,164,o),
(300,169,cs),
(323,173,o),
(336,188,o),
(336,209,cs),
(336,253,o),
(267,258,o),
(274,281,cs),
(284,313,o),
(305,348,o),
(314,353,cs),
(322,358,o),
(326,354,o),
(329,358,cs),
(333,361,o),
(333,384,o),
(321,388,cs),
(309,391,o),
(272,383,o),
(248,367,cs),
(225,353,o),
(219,354,o),
(213,358,cs),
(207,361,o),
(200,371,o),
(196,377,cs)
);
},
{
closed = 1;
nodes = (
(570,526,o),
(558,511,cs),
(545,496,o),
(491,443,o),
(478,382,cs),
(442,217,o),
(614,107,o),
(753,119,c),
(756,132,l),
(658,144,o),
(587,178,o),
(542,258,cs),
(496,342,o),
(542,434,o),
(585,440,cs),
(609,444,o),
(621,426,o),
(617,421,cs),
(614,416,o),
(610,412,o),
(616,409,cs),
(623,407,o),
(634,407,o),
(647,409,cs),
(664,413,o),
(674,425,o),
(674,436,cs),
(674,454,o),
(644,530,o),
(585,551,cs),
(573,554,o)
);
}
);
width = 800;
}
);
tags = (
hira
);
},
{
glyphname = "su-hira.full";
lastChange = "2024-01-14 22:10:03 +0000";
layers = (
{
backgroundImage = {
imagePath = "images/す.png";
locked = 1;
pos = (59,-230);
scale = (1.44,1.44);
};
layerId = m01;
shapes = (
{
closed = 1;
nodes = (
(339,772,l),
(351,764,o),
(370,757,o),
(376,739,cs),
(383,715,o),
(381,686,o),
(339,648,c),
(347,637,l),
(363,642,o),
(392,656,o),
(408,660,cs),
(429,665,o),
(444,661,o),
(461,661,cs),
(477,661,o),
(492,672,o),
(492,686,cs),
(492,701,o),
(446,768,o),
(351,786,c)
);
},
{
closed = 1;
nodes = (
(267,576,o),
(256,566,o),
(252,559,cs),
(245,544,o),
(288,486,o),
(312,487,cs),
(322,487,o),
(329,499,o),
(338,512,cs),
(346,526,o),
(411,563,o),
(426,565,cs),
(436,566,o),
(441,562,o),
(436,553,cs),
(434,548,o),
(398,510,o),
(382,484,cs),
(360,446,o),
(465,404,o),
(470,380,cs),
(474,356,o),
(393,292,o),
(320,246,cs),
(198,170,o),
(95,67,o),
(171,-66,c),
(185,-54,l),
(149,40,o),
(233,148,o),
(366,217,cs),
(484,278,o),
(556,295,o),
(554,358,cs),
(551,420,o),
(400,450,o),
(420,488,cs),
(440,523,o),
(501,568,o),
(518,572,cs),
(534,577,o),
(544,564,o),
(550,569,cs),
(580,589,o),
(520,638,o),
(504,640,cs),
(484,641,o),
(472,620,o),
(444,601,cs),
(413,580,o),
(340,557,o),
(317,554,cs),
(294,552,o),
(288,562,o),
(276,570,cs)
);
},
{
closed = 1;
nodes = (
(354,233,l),
(354,187,o),
(390,62,o),
(436,62,cs),
(452,62,o),
(456,101,o),
(488,128,cs),
(573,203,o),
(687,271,o),
(728,316,c),
(722,330,l),
(656,272,o),
(494,176,o),
(447,166,cs),
(420,160,o),
(381,192,o),
(370,234,c)
);
}
);
width = 800;
}
);
tags = (
hira
);
},
{
glyphname = "se-hira.full";
lastChange = "2024-01-14 22:10:28 +0000";
layers = (
{
backgroundImage = {
imagePath = "images/せ.png";
locked = 1;
pos = (44,-230);
scale = (1.44,1.44);
};
layerId = m01;
shapes = (
{
closed = 1;
nodes = (
(272,703,o),
(266,695,cs),
(246,665,o),
(282,588,o),
(318,588,cs),
(332,588,o),
(352,601,o),
(348,619,cs),
(345,637,o),
(339,679,o),
(346,696,cs),
(357,722,o),
(382,770,o),
(424,764,cs),
(444,762,o),
(460,738,o),
(459,695,cs),
(459,676,o),
(448,648,o),
(443,601,cs),
(440,562,o),
(455,505,o),
(514,464,cs),
(569,426,o),
(647,408,o),
(647,386,cs),
(647,365,o),
(562,346,o),
(488,272,cs),
(413,199,o),
(357,132,o),
(410,-29,c),
(423,-23,l),
(399,78,o),
(440,184,o),
(521,233,cs),
(610,287,o),
(712,272,o),
(737,350,cs),
(768,448,o),
(570,476,o),
(528,505,cs),
(478,540,o),
(470,576,o),
(480,646,cs),
(494,730,o),
(480,775,o),
(432,781,cs),
(380,788,o),
(345,762,o),
(318,713,cs),
(309,695,o),
(306,677,o),
(298,674,cs),
(285,671,o)
);
},
{
closed = 1;
nodes = (
(195,526,o),
(191,518,cs),
(174,491,o),
(171,476,o),
(172,466,cs),
(176,443,o),
(204,421,o),
(222,421,cs),
(240,421,o),
(257,451,o),
(273,466,cs),
(285,476,o),
(290,473,o),
(291,464,cs),
(292,451,o),
(285,433,o),
(272,407,cs),
(250,362,o),
(315,328,o),
(314,313,cs),
(312,300,o),
(263,288,o),
(228,272,cs),
(204,262,o),
(147,210,o),
(146,132,c),
(162,128,l),
(184,210,o),
(226,241,o),
(276,245,cs),
(305,247,o),
(332,238,o),
(360,253,cs),
(393,270,o),
(398,319,o),
(341,346,cs),
(285,372,o),
(297,398,o),
(309,433,cs),
(318,462,o),
(333,484,o),
(341,487,cs),
(368,498,o),
(377,506,o),
(362,524,cs),
(353,535,o),
(341,532,o),
(300,514,cs),
(270,500,o),
(225,464,o),
(214,498,cs),
(207,518,o)
);
},
{
closed = 1;
nodes = (
(400,470,o),
(400,450,o),
(413,425,cs),
(420,412,o),
(394,388,o),
(366,390,c),
(370,380,l),
(410,372,o),
(446,350,o),
(456,353,cs),
(488,360,o),
(491,377,o),
(489,390,cs),
(485,410,o),
(466,430,o),
(413,462,cs)
);
}
);
width = 800;
}
);
tags = (
hira
);
},
{
glyphname = "so-hira.full";
lastChange = "2024-01-14 22:10:56 +0000";
layers = (
{
backgroundImage = {
imagePath = "images/そ.png";
locked = 1;
pos = (34,-230);
scale = (1.44,1.44);
};
layerId = m01;
shapes = (
{
closed = 1;
nodes = (
(423,772,l),
(446,761,o),
(465,752,o),
(461,737,cs),
(448,679,o),
(364,595,o),
(323,557,cs),
(308,542,o),
(305,557,o),
(296,550,cs),
(286,542,o),
(269,515,o),
(269,486,cs),
(269,474,o),
(280,468,o),
(298,468,cs),
(309,468,o),
(315,496,o),
(339,523,cs),
(364,553,o),
(392,545,o),
(429,528,cs),
(468,510,o),
(477,457,o),
(477,390,cs),
(477,340,o),
(440,263,o),
(440,191,cs),
(440,116,o),
(498,-31,o),
(633,-31,cs),
(722,-31,o),
(782,20,o),
(826,60,c),
(816,79,l),
(779,56,o),
(732,24,o),
(677,24,cs),
(598,24,o),
(504,100,o),
(504,220,cs),
(504,282,o),
(522,343,o),
(522,412,cs),
(522,478,o),
(500,524,o),
(462,550,cs),
(423,576,o),
(401,577,o),
(381,570,cs),
(371,566,o),
(364,568,o),
(378,582,cs),
(413,618,o),
(470,665,o),
(500,706,cs),
(522,737,o),
(545,728,o),
(545,740,cs),
(545,748,o),
(524,778,o),
(435,797,c)
);
},
{
closed = 1;
nodes = (
(197,456,o),
(190,446,cs),
(170,421,o),
(156,396,o),
(162,384,cs),
(172,364,o),
(195,349,o),
(213,349,cs),
(231,349,o),
(227,371,o),
(263,394,cs),
(286,408,o),
(298,413,o),
(288,389,cs),
(282,374,o),
(272,356,o),
(263,332,cs),
(254,300,o),
(298,282,o),
(305,256,cs),
(310,238,o),
(272,233,o),
(213,200,cs),
(170,176,o),
(130,116,o),
(148,52,c),
(167,49,l),
(159,120,o),
(196,162,o),
(260,187,cs),
(288,199,o),
(321,182,o),
(350,198,cs),
(382,215,o),
(388,256,o),
(332,282,cs),
(280,306,o),
(284,329,o),
(293,356,cs),
(303,385,o),
(315,408,o),
(323,412,cs),
(332,415,o),
(353,421,o),
(356,430,cs),
(358,438,o),
(358,446,o),
(350,456,cs),
(344,463,o),
(324,446,o),
(291,433,cs),
(262,421,o),
(225,407,o),
(220,409,cs),
(206,416,o)
);
}
);
width = 800;
}
);
tags = (
hira
);
},
{
glyphname = "ta-hira.full";
lastChange = "2024-01-14 22:11:22 +0000";
layers = (
{
backgroundImage = {
imagePath = "images/た.png";
locked = 1;
pos = (54,-230);
scale = (1.44,1.44);
};
hints = (
{
origin = (0,3);
target = (0,27);
type = Stem;
},
{
origin = (2,3);
target = (2,10);
type = Stem;
},
{
origin = (1,3);
target = (1,13);
type = Stem;
}
);
layerId = m01;
shapes = (
{
closed = 1;
nodes = (
(316,767,l),
(341,720,o),
(383,684,o),
(383,642,cs),
(383,528,o),
(381,145,o),
(378,104,cs),
(376,71,o),
(376,30,o),
(372,26,cs),
(370,24,o),
(362,19,o),
(360,16,cs),
(353,-2,o),
(366,-32,o),
(382,-50,cs),
(393,-64,o),
(407,-68,o),
(412,-68,cs),
(417,-68,o),
(429,-50,o),
(429,-37,cs),
(429,-24,o),
(411,-10,o),
(408,52,cs),
(407,95,o),
(410,504,o),
(413,595,cs),
(414,636,o),
(441,652,o),
(448,653,cs),
(456,654,o),
(483,661,o),
(483,670,cs),
(483,678,o),
(470,702,o),
(456,715,cs),
(448,724,o),
(412,730,o),
(332,786,c)
);
},
{
closed = 1;
nodes = (
(578,530,l),
(597,518,o),
(611,505,o),
(600,485,cs),
(543,368,o),
(387,274,o),
(263,221,c),
(267,211,l),
(432,260,o),
(533,325,o),
(621,410,cs),
(639,428,o),
(665,426,o),
(682,427,cs),
(695,430,o),
(711,450,o),
(683,488,cs),
(659,516,o),
(630,540,o),
(587,550,c)
);
},
{
closed = 1;
nodes = (
(183,540,l),
(213,516,o),
(243,481,o),
(245,446,cs),
(255,306,o),
(215,215,o),
(130,124,c),
(138,118,l),
(251,217,o),
(276,302,o),
(276,442,cs),
(276,468,o),
(280,473,o),
(296,480,cs),
(308,487,o),
(316,506,o),
(296,523,cs),
(282,534,o),
(255,551,o),
(198,562,c)
);
},
{
closed = 1;
nodes = (
(189,437,l),
(170,386,o),
(144,340,o),
(135,328,cs),
(125,316,o),
(113,318,o),
(108,312,cs),
(104,306,o),
(102,274,o),
(110,263,cs),
(117,252,o),
(131,253,o),
(141,265,cs),
(149,275,o),
(144,286,o),
(155,289,cs),
(171,295,o),
(274,348,o),
(304,338,cs),
(334,329,o),
(359,329,o),
(366,331,cs),
(383,336,o),
(393,343,o),
(394,354,cs),
(395,365,o),
(358,383,o),
(341,397,cs),
(328,409,o),
(260,356,o),
(213,337,cs),
(170,319,o),
(166,328,o),
(170,336,cs),
(174,347,o),
(192,377,o),
(202,427,c)
);
}
);
width = 800;
}
);
tags = (
hira
);
},
{
glyphname = "ti-hira.full";
lastChange = "2024-01-14 22:11:53 +0000";
layers = (
{
backgroundImage = {
imagePath = "images/ち.png";
locked = 1;
pos = (26,-230);
scale = (1.44,1.44);
};
hints = (
{
origin = (0,13);
target = (1,6);
type = Stem;
}
);
layerId = m01;
shapes = (
{
closed = 1;
nodes = (
(264,496,l),
(287,462,o),
(311,443,o),
(306,367,cs),
(297,216,o),
(245,74,o),
(107,28,c),
(120,8,l),
(315,74,o),
(333,226,o),
(342,340,cs),
(350,419,o),
(346,424,o),
(362,431,cs),
(374,438,o),
(382,457,o),
(362,474,cs),
(348,485,o),
(326,503,o),
(279,532,c)
);
},
{
closed = 1;
nodes = (
(435,700,l),
(435,676,o),
(460,644,o),
(456,634,cs),
(422,508,o),
(404,457,o),
(425,302,cs),
(450,124,o),
(623,-6,o),
(759,5,c),
(790,43,l),
(671,35,o),
(506,136,o),
(468,286,cs),
(422,473,o),
(472,607,o),
(532,583,cs),
(544,578,o),
(561,578,o),
(566,583,cs),
(587,601,o),
(599,625,o),
(558,643,cs),
(498,670,o),
(486,700,o),
(468,713,c)
);
},
{
closed = 1;
nodes = (
(286,479,l),
(249,434,o),
(166,302,o),
(152,259,cs),
(144,238,o),
(144,223,o),
(152,212,cs),
(159,202,o),
(183,208,o),
(192,220,cs),
(201,229,o),
(210,236,o),
(221,240,cs),
(237,246,o),
(527,398,o),
(558,395,cs),
(600,390,o),
(602,373,o),
(609,373,cs),
(626,373,o),
(641,398,o),
(641,410,cs),
(641,422,o),
(635,445,o),
(614,457,cs),
(599,466,o),
(569,485,o),
(528,520,c),
(510,499,l),
(537,439,o),
(537,439,o),
(516,426,cs),
(442,378,o),
(310,318,o),
(279,305,cs),
(255,295,o),
(231,286,o),
(210,282,cs),
(198,280,o),
(196,286,o),
(198,295,cs),
(208,334,o),
(273,439,o),
(296,470,c)
);
}
);
width = 800;
}
);
tags = (
hira
);
},
{
glyphname = "tu-hira.full";
lastChange = "2024-01-14 22:12:19 +0000";
layers = (
{
backgroundImage = {
imagePath = "images/つ.png";
locked = 1;
pos = (-18,-230);
scale = (1.44,1.44);
};
hints = (
{
origin = (1,3);
target = (1,24);
type = Stem;
}
);
layerId = m01;
shapes = (
{
closed = 1;
nodes = (
(430,757,l),
(444,743,o),
(460,724,o),
(460,694,cs),
(460,658,o),
(422,599,o),
(356,550,cs),
(261,478,o),
(124,348,o),
(134,266,cs),
(140,212,o),
(176,193,o),
(222,193,cs),
(272,193,o),
(299,302,o),
(422,349,cs),
(502,380,o),
(568,319,o),
(568,283,cs),
(568,250,o),
(527,232,o),
(471,239,c),
(477,209,l),
(540,202,o),
(610,211,o),
(642,258,cs),
(675,305,o),
(627,362,o),
(579,374,cs),
(531,386,o),
(466,402,o),
(371,353,cs),
(287,310,o),
(232,232,o),
(196,266,cs),
(148,312,o),
(226,404,o),
(332,491,cs),
(411,556,o),
(531,614,o),
(531,664,cs),
(531,707,o),
(516,739,o),
(442,772,c)
);
},
{
closed = 1;
nodes = (
(345,511,l),
(368,491,o),
(377,488,o),
(381,436,cs),
(387,341,o),
(384,202,o),
(381,124,cs),
(377,36,o),
(368,13,o),
(366,8,cs),
(358,-18,o),
(388,-66,o),
(414,-66,cs),
(420,-66,o),
(437,-61,o),
(442,-41,cs),
(444,-31,o),
(431,-12,o),
(426,1,cs),
(422,14,o),
(414,32,o),
(413,158,cs),
(412,292,o),
(408,386,o),
(413,452,cs),
(413,461,o),
(441,470,o),
(441,484,cs),
(441,497,o),
(416,518,o),
(364,528,c)
);
}
);
width = 800;
}
);
tags = (
hira
);
},
{
color = 1;
glyphname = "tusmall-hira.full";
lastChange = "2024-01-14 22:12:31 +0000";
layers = (
{
backgroundImage = {
imagePath = "images/促音_っ.png";
locked = 1;
pos = (150,-230);
scale = (1.44,1.44);
};
layerId = m01;
shapes = (
{
closed = 1;
nodes = (
(332,570,o),
(328,552,o),
(328,541,cs),
(328,534,o),
(356,522,o),
(345,506,cs),
(291,434,o),
(231,402,o),
(208,338,cs),
(180,262,o),
(219,224,o),
(240,224,cs),
(260,224,o),
(278,266,o),
(300,313,cs),
(324,362,o),
(353,377,o),
(394,377,cs),
(429,377,o),
(509,338,o),
(478,283,cs),
(426,192,o),
(382,209,o),
(369,216,cs),
(340,230,o),
(365,266,o),
(377,266,cs),
(400,266,o),
(396,212,o),
(395,154,cs),
(394,95,o),
(392,38,o),
(388,28,cs),
(384,17,o),
(372,19,o),
(368,12,cs),
(363,5,o),
(390,-70,o),
(404,-70,cs),
(412,-70,o),
(432,-38,o),
(432,-28,cs),
(432,-17,o),
(420,-2,o),
(416,20,cs),
(411,43,o),
(416,178,o),
(418,216,cs),
(420,266,o),
(404,308,o),
(375,308,cs),
(339,308,o),
(258,228,o),
(338,182,cs),
(400,146,o),
(522,197,o),
(538,289,cs),
(550,362,o),
(456,406,o),
(407,406,cs),
(358,406,o),
(302,377,o),
(261,314,cs),
(252,302,o),
(246,305,o),
(244,318,cs),
(233,382,o),
(340,464,o),
(368,464,cs),
(382,464,o),
(401,462,o),
(412,462,cs),
(426,462,o),
(432,472,o),
(432,482,cs),
(432,508,o),
(386,533,o),
(348,558,cs)
);
}
);
width = 800;
}
);
tags = (
hira
);
},
{
glyphname = "te-hira.full";
lastChange = "2024-01-14 22:13:01 +0000";
layers = (
{
associatedMasterId = m01;
backgroundImage = {
imagePath = "images/て.png";
locked = 1;
pos = (178,-160);
};
layerId = "B0B894F0-9B5E-45F2-A648-00C029974812";
name = cross;
shapes = (
{
closed = 1;
nodes = (
(332,467,l),
(352,446,o),
(380,422,o),
(383,375,cs),
(390,258,o),
(353,193,o),
(291,121,c),
(298,116,l),
(386,194,o),
(412,262,o),
(412,378,cs),
(412,400,o),
(415,410,o),
(428,415,cs),
(444,421,o),
(445,429,o),
(428,443,cs),
(417,452,o),
(396,471,o),
(349,480,c)
);
},
{
closed = 1;
nodes = (
(339,374,l),
(323,332,o),
(302,293,o),
(294,283,cs),
(286,273,o),
(276,275,o),
(272,270,cs),
(268,265,o),
(267,238,o),
(273,229,cs),
(279,220,o),
(291,221,o),
(299,231,cs),
(306,239,o),
(302,248,o),
(311,251,cs),
(324,257,o),
(408,286,o),
(422,290,cs),
(431,293,o),
(467,277,o),
(473,284,cs),
(484,295,o),
(496,301,o),
(503,307,cs),
(509,313,o),
(449,360,o),
(404,346,cs),
(394,343,o),
(449,328,o),
(441,313,cs),
(434,302,o),
(407,299,o),
(384,293,cs),
(316,274,o),
(313,283,o),
(316,290,cs),
(320,299,o),
(335,323,o),
(349,367,c)
);
},
{
closed = 1;
nodes = (
(398,575,o),
(391,576,o),
(390,574,cs),
(379,554,o),
(381,544,o),
(383,535,cs),
(387,521,o),
(400,506,o),
(418,494,cs),
(436,482,o),
(444,484,o),
(453,499,cs),
(456,504,o),
(453,515,o),
(452,519,cs),
(449,530,o),
(439,550,o),
(443,560,cs),
(447,570,o),
(470,624,o),
(500,631,cs),
(521,636,o),
(544,617,o),
(543,590,cs),
(542,554,o),
(538,531,o),
(538,499,cs),
(538,467,o),
(541,433,o),
(579,400,cs),
(633,353,o),
(706,341,o),
(700,316,cs),
(692,281,o),
(638,294,o),
(559,215,cs),
(475,130,o),
(467,0,o),
(512,-33,c),
(518,-28,l),
(495,13,o),
(497,80,o),
(543,141,cs),
(603,221,o),
(683,209,o),
(753,258,cs),
(787,282,o),
(788,325,o),
(756,352,cs),
(707,394,o),
(610,390,o),
(579,450,cs),
(548,507,o),
(584,567,o),
(559,621,cs),
(549,644,o),
(510,660,o),
(483,647,cs),
(446,629,o),
(430,605,o),
(412,566,cs),
(409,560,o),
(403,567,o),
(400,572,cs)
);
}
);
width = 1000;
},
{
backgroundImage = {
imagePath = "images/て.png";
locked = 1;
pos = (33,-230);
scale = (1.44,1.44);
};
layerId = m01;
name = Regular;
shapes = (
{
closed = 1;
nodes = (
(198,536,l),
(222,511,o),
(256,482,o),
(260,426,cs),
(268,286,o),
(224,208,o),
(149,121,c),
(158,115,l),
(263,209,o),
(294,290,o),
(294,430,cs),
(294,456,o),
(298,468,o),
(314,474,cs),
(333,481,o),
(334,491,o),
(314,508,cs),
(300,518,o),
(275,541,o),
(219,552,c)
);
},
{
closed = 1;
nodes = (
(207,425,l),
(188,374,o),
(162,328,o),
(153,316,cs),
(143,304,o),
(131,306,o),
(126,300,cs),
(122,294,o),
(120,262,o),
(128,251,cs),
(135,240,o),
(149,241,o),
(159,253,cs),
(167,263,o),
(162,274,o),
(173,277,cs),
(189,284,o),
(290,319,o),
(306,324,cs),
(317,328,o),
(360,308,o),
(368,317,cs),
(381,330,o),
(395,337,o),
(404,344,cs),
(411,352,o),
(339,408,o),
(285,391,cs),
(273,388,o),
(278,360,o),
(248,344,cs),
(183,311,o),
(176,316,o),
(179,324,cs),
(184,335,o),
(202,364,o),
(219,416,c)
);
},
{
closed = 1;
nodes = (
(278,666,o),
(269,667,o),
(268,665,cs),
(255,641,o),
(257,629,o),
(260,618,cs),
(264,601,o),
(280,583,o),
(302,569,cs),
(323,554,o),
(333,557,o),
(344,575,cs),
(347,581,o),
(344,594,o),
(342,599,cs),
(339,612,o),
(327,636,o),
(332,648,cs),
(336,660,o),
(364,725,o),
(400,733,cs),
(425,739,o),
(453,716,o),
(452,684,cs),
(450,641,o),
(446,613,o),
(446,575,cs),
(446,536,o),
(449,496,o),
(495,456,cs),
(560,400,o),
(647,385,o),
(640,355,cs),
(630,313,o),
(566,329,o),
(471,234,cs),
(370,132,o),
(360,-24,o),
(414,-64,c),
(422,-58,l),
(394,-8,o),
(396,72,o),
(452,145,cs),
(524,241,o),
(620,227,o),
(704,286,cs),
(744,314,o),
(746,366,o),
(707,398,cs),
(648,449,o),
(532,444,o),
(495,516,cs),
(458,584,o),
(501,656,o),
(471,721,cs),
(459,749,o),
(412,768,o),
(380,752,cs),
(335,731,o),
(316,702,o),
(294,655,cs),
(291,648,o),
(284,656,o),
(280,662,cs)
);
}
);
visible = 1;
width = 800;
}
);
tags = (
hira
);
},
{
glyphname = "to-hira.full";
lastChange = "2024-01-14 22:13:32 +0000";
layers = (
{
backgroundImage = {
imagePath = "images/と.png";
locked = 1;
pos = (30,-230);
scale = (1.44,1.44);
};
layerId = m01;
shapes = (
{
closed = 1;
nodes = (
(195,443,l),
(219,418,o),
(252,389,o),
(256,332,cs),
(264,192,o),
(220,114,o),
(146,28,c),
(154,22,l),
(260,115,o),
(291,197,o),
(291,336,cs),
(291,362,o),
(294,374,o),
(310,380,cs),
(329,388,o),
(330,397,o),
(310,414,cs),
(297,425,o),
(272,448,o),
(215,458,c)
);
},
{
closed = 1;
nodes = (
(203,331,l),
(184,281,o),
(159,234,o),
(149,222,cs),
(140,210,o),
(128,212,o),
(123,206,cs),
(118,200,o),
(117,168,o),
(124,157,cs),
(131,146,o),
(146,148,o),
(155,160,cs),
(164,169,o),
(159,180,o),
(170,184,cs),
(185,191,o),
(286,226,o),
(303,230,cs),
(314,234,o),
(357,215,o),
(364,223,cs),
(377,236,o),
(392,244,o),
(400,251,cs),
(407,258,o),
(335,314,o),
(281,298,cs),
(269,294,o),
(274,266,o),
(244,251,cs),
(179,217,o),
(172,222,o),
(176,230,cs),
(180,241,o),
(198,270,o),
(215,323,c)
);
},
{
closed = 1;
nodes = (
(432,790,l),
(449,790,o),
(468,774,o),
(465,758,cs),
(452,701,o),
(368,617,o),
(327,578,cs),
(302,554,o),
(281,553,o),
(281,514,cs),
(281,502,o),
(284,490,o),
(302,490,cs),
(312,490,o),
(318,517,o),
(342,545,cs),
(368,575,o),
(395,566,o),
(432,550,cs),
(472,532,o),
(480,479,o),
(480,412,cs),
(480,361,o),
(450,284,o),
(450,212,cs),
(450,138,o),
(525,-10,o),
(636,-10,cs),
(725,-10,o),
(785,42,o),
(830,82,c),
(820,101,l),
(783,78,o),
(736,46,o),
(681,46,cs),
(602,46,o),
(508,157,o),
(508,251,cs),
(508,313,o),
(526,365,o),
(526,433,cs),
(526,499,o),
(503,546,o),
(466,571,cs),
(426,598,o),
(405,599,o),
(384,592,cs),
(375,588,o),
(368,589,o),
(382,604,cs),
(417,640,o),
(473,686,o),
(503,727,cs),
(526,758,o),
(549,750,o),
(549,762,cs),
(549,769,o),
(536,778,o),
(519,788,cs),
(498,802,o),
(476,818,o),
(444,818,c)
);
}
);
width = 800;
}
);
tags = (
hira
);
},
{
glyphname = "na-hira.full";
lastChange = "2024-01-14 22:13:59 +0000";
layers = (
{
backgroundImage = {
imagePath = "images/な.png";
locked = 1;
pos = (16,-230);
scale = (1.44,1.44);
};
layerId = m01;
shapes = (
{
closed = 1;
nodes = (
(382,676,l),
(402,661,o),
(429,653,o),
(422,632,cs),
(400,575,o),
(186,371,o),
(155,306,cs),
(149,293,o),
(141,275,o),
(141,263,cs),
(141,247,o),
(180,191,o),
(191,191,cs),
(203,191,o),
(220,209,o),
(220,215,cs),
(220,229,o),
(219,247,o),
(230,264,cs),
(274,329,o),
(370,445,o),
(526,445,cs),
(610,445,o),
(692,372,o),
(592,227,cs),
(498,88,o),
(370,68,o),
(291,120,c),
(280,100,l),
(309,68,o),
(353,49,o),
(413,49,cs),
(479,49,o),
(592,109,o),
(642,185,cs),
(734,320,o),
(675,476,o),
(532,476,cs),
(389,476,o),
(315,419,o),
(255,361,cs),
(242,349,o),
(234,352,o),
(237,361,cs),
(255,421,o),
(419,551,o),
(452,565,cs),
(483,578,o),
(492,568,o),
(502,568,cs),
(515,568,o),
(542,589,o),
(542,594,cs),
(542,601,o),
(538,613,o),
(515,628,cs),
(500,637,o),
(485,664,o),
(400,697,c)
);
},
{
closed = 1;
nodes = (
(339,288,l),
(370,258,o),
(387,204,o),
(408,204,cs),
(430,204,o),
(467,313,o),
(485,332,c),
(476,340,l),
(454,316,o),
(432,288,o),
(411,283,cs),
(389,278,o),
(378,289,o),
(363,306,c)
);
}
);
width = 800;
}
);
tags = (
hira
);
},
{
glyphname = "ni-hira.full";
lastChange = "2024-01-14 22:14:14 +0000";
layers = (
{
backgroundImage = {
imagePath = "images/に.png";
locked = 1;
pos = (-14,-230);
scale = (1.44,1.44);
};
hints = (
{
origin = (0,3);
target = (0,30);
type = Stem;
}
);
layerId = m01;
shapes = (
{
closed = 1;
nodes = (
(317,756,l),
(350,724,o),
(374,707,o),
(386,677,cs),
(398,647,o),
(395,214,o),
(395,125,cs),
(395,91,o),
(395,36,o),
(393,31,cs),
(390,26,o),
(382,37,o),
(372,31,cs),
(365,26,o),
(374,-6,o),
(386,-25,cs),
(399,-47,o),
(414,-62,o),
(432,-62,cs),
(448,-62,o),
(464,-62,o),
(464,-49,cs),
(464,-41,o),
(464,-31,o),
(455,-16,cs),
(447,0,o),
(428,7,o),
(426,54,cs),
(420,215,o),
(430,587,o),
(436,611,cs),
(444,646,o),
(449,664,o),
(460,664,cs),
(471,664,o),
(488,662,o),
(488,671,cs),
(488,679,o),
(492,694,o),
(454,718,cs),
(418,740,o),
(400,751,o),
(328,767,c)
);
},
{
closed = 1;
nodes = (
(164,421,o),
(149,407,o),
(136,397,cs),
(118,384,o),
(180,358,o),
(200,358,cs),
(210,358,o),
(230,377,o),
(230,383,cs),
(230,395,o),
(210,404,o),
(220,428,cs),
(225,439,o),
(245,476,o),
(284,476,cs),
(312,476,o),
(346,433,o),
(320,367,cs),
(321,370,o),
(267,217,o),
(129,168,c),
(136,152,l),
(243,180,o),
(378,299,o),
(371,414,cs),
(369,458,o),
(336,510,o),
(287,510,cs),
(244,510,o),
(196,480,o),
(171,434,cs)
);
},
{
closed = 1;
nodes = (
(579,551,o),
(582,526,o),
(570,511,cs),
(557,496,o),
(497,443,o),
(484,382,cs),
(448,217,o),
(620,107,o),
(759,119,c),
(762,132,l),
(664,144,o),
(593,178,o),
(548,258,cs),
(502,342,o),
(548,434,o),
(591,440,cs),
(615,444,o),
(623,426,o),
(623,421,cs),
(623,418,o),
(634,409,o),
(653,409,cs),
(664,409,o),
(680,425,o),
(680,436,cs),
(680,454,o),
(650,527,o),
(591,547,cs)
);
},
{
closed = 1;
nodes = (
(167,317,cs),
(167,305,o),
(189,276,o),
(208,276,cs),
(224,276,o),
(242,295,o),
(270,348,c),
(264,353,l),
(255,340,o),
(240,322,o),
(224,320,cs),
(210,319,o),
(189,324,o),
(180,332,cs),
(178,335,o),
(167,326,o)
);
}
);
width = 800;
}
);
tags = (
hira
);
},
{
glyphname = "nu-hira.full";
lastChange = "2024-01-14 22:14:26 +0000";
layers = (
{
backgroundImage = {
imagePath = "images/ぬ.png";
locked = 1;
pos = (-24,-230);
scale = (1.44,1.44);
};
hints = (
{
origin = (0,3);
target = (0,27);
type = Stem;
}
);
layerId = m01;
shapes = (
{
closed = 1;
nodes = (
(378,767,l),
(392,743,o),
(414,709,o),
(417,655,cs),
(424,496,o),
(423,194,o),
(417,94,cs),
(414,41,o),
(408,41,o),
(407,36,cs),
(399,11,o),
(417,-34,o),
(428,-46,cs),
(441,-60,o),
(455,-58,o),
(461,-58,cs),
(467,-58,o),
(483,-54,o),
(489,-25,cs),
(491,-16,o),
(485,-4,o),
(480,10,cs),
(476,23,o),
(461,58,o),
(456,152,cs),
(448,312,o),
(450,496,o),
(454,586,cs),
(455,624,o),
(459,638,o),
(462,641,cs),
(466,643,o),
(497,635,o),
(508,635,cs),
(519,635,o),
(527,644,o),
(527,654,cs),
(527,670,o),
(521,684,o),
(512,697,cs),
(500,714,o),
(466,739,o),
(390,776,c)
);
},
{
closed = 1;
nodes = (
(153,386,o),
(228,367,cs),
(234,366,o),
(257,385,o),
(257,391,cs),
(257,403,o),
(243,418,o),
(252,442,cs),
(257,452,o),
(281,482,o),
(318,482,cs),
(341,482,o),
(376,451,o),
(348,373,cs),
(324,305,o),
(291,263,o),
(230,222,cs),
(210,209,o),
(180,223,o),
(167,216,cs),
(155,209,o),
(160,193,o),
(177,175,cs),
(184,167,o),
(212,149,o),
(219,149,cs),
(225,149,o),
(240,179,o),
(252,181,cs),
(430,222,o),
(690,323,o),
(759,360,c),
(752,373,l),
(648,325,o),
(395,251,o),
(303,232,cs),
(294,230,o),
(292,234,o),
(299,241,cs),
(351,293,o),
(402,360,o),
(398,420,cs),
(395,464,o),
(369,516,o),
(310,516,cs),
(216,516,o),
(189,427,o),
(162,414,cs),
(152,409,o)
);
},
{
closed = 1;
nodes = (
(189,320,cs),
(189,308,o),
(216,276,o),
(236,276,cs),
(251,276,o),
(269,295,o),
(298,348,c),
(292,353,l),
(282,340,o),
(268,322,o),
(251,320,cs),
(238,319,o),
(216,329,o),
(208,337,cs),
(206,340,o),
(189,330,o)
);
}
);
width = 800;
}
);
tags = (
hira
);
},
{
glyphname = "ne-hira.full";
lastChange = "2024-01-14 22:14:41 +0000";
layers = (
{
backgroundImage = {
imagePath = "images/ね.png";
locked = 1;
pos = (14,-230);
scale = (1.44,1.44);
};
layerId = m01;
shapes = (
{
closed = 1;
nodes = (
(215,778,l),
(237,760,o),
(252,746,o),
(261,724,cs),
(278,680,o),
(273,526,o),
(270,497,cs),
(269,478,o),
(267,468,o),
(261,468,cs),
(254,468,o),
(249,461,o),
(250,432,cs),
(251,410,o),
(280,384,o),
(290,384,cs),
(299,384,o),
(308,403,o),
(308,414,cs),
(308,425,o),
(297,472,o),
(302,490,cs),
(312,533,o),
(378,606,o),
(461,606,cs),
(515,606,o),
(567,584,o),
(567,511,cs),
(567,425,o),
(506,371,o),
(382,274,cs),
(288,200,o),
(233,72,o),
(288,-50,c),
(308,-40,l),
(299,28,o),
(288,108,o),
(350,169,cs),
(486,307,o),
(622,320,o),
(622,504,cs),
(622,600,o),
(567,648,o),
(501,648,cs),
(432,648,o),
(357,611,o),
(315,560,cs),
(308,551,o),
(299,544,o),
(299,557,cs),
(297,623,o),
(294,666,o),
(304,680,cs),
(314,695,o),
(326,692,o),
(332,697,cs),
(338,701,o),
(339,718,o),
(339,728,cs),
(339,739,o),
(302,766,o),
(231,793,c)
);
},
{
closed = 1;
nodes = (
(376,503,o),
(376,492,cs),
(376,469,o),
(414,404,o),
(441,404,cs),
(462,404,o),
(497,496,o),
(497,529,c),
(488,536,l),
(474,506,o),
(465,488,o),
(443,484,cs),
(426,480,o),
(402,499,o),
(392,518,cs),
(386,529,o)
);
}
);
width = 800;
}
);
tags = (
hira
);
},
{
glyphname = "no-hira.full";
lastChange = "2024-01-14 22:14:54 +0000";
layers = (
{
backgroundImage = {
imagePath = "images/の.png";
locked = 1;
pos = (42,-230);
scale = (1.44,1.44);
};
layerId = m01;
shapes = (
{
closed = 1;
nodes = (
(171,516,o),
(244,484,o),
(264,484,cs),
(274,484,o),
(300,499,o),
(300,510,cs),
(300,520,o),
(286,530,o),
(278,541,cs),
(263,559,o),
(290,632,o),
(354,630,cs),
(419,628,o),
(458,566,o),
(458,516,cs),
(458,475,o),
(476,398,o),
(293,251,c),
(299,240,l),
(436,325,o),
(519,421,o),
(519,514,cs),
(519,605,o),
(448,670,o),
(387,670,cs),
(332,670,o),
(242,632,o),
(184,538,cs)
);
},
{
closed = 1;
nodes = (
(198,422,o),
(177,397,o),
(172,382,cs),
(167,365,o),
(218,308,o),
(256,308,cs),
(278,308,o),
(308,329,o),
(308,342,cs),
(308,355,o),
(292,365,o),
(297,374,cs),
(302,384,o),
(330,415,o),
(345,434,c),
(335,443,l),
(311,422,o),
(263,382,o),
(245,382,cs),
(222,382,o),
(203,397,o),
(201,409,cs)
);
},
{
closed = 1;
nodes = (
(112,240,o),
(93,212,o),
(93,197,cs),
(93,185,o),
(123,139,o),
(135,139,cs),
(147,139,o),
(180,179,o),
(192,196,cs),
(204,212,o),
(231,229,o),
(256,229,cs),
(365,229,o),
(486,24,o),
(609,24,cs),
(705,24,o),
(826,82,o),
(867,118,c),
(860,131,l),
(820,100,o),
(738,82,o),
(693,82,cs),
(519,82,o),
(393,262,o),
(292,262,cs),
(218,262,o),
(179,222,o),
(160,218,cs),
(141,215,o),
(128,216,o),
(118,230,cs)
);
}
);
width = 800;
}
);
tags = (
hira
);
},
{
glyphname = "ha-hira.full";
lastChange = "2024-01-14 22:15:07 +0000";
layers = (
{
backgroundImage = {
imagePath = "images/は.png";
locked = 1;
pos = (6,-230);
scale = (1.44,1.44);
};
layerId = m01;
shapes = (
{
closed = 1;
nodes = (
(490,746,l),
(501,733,o),
(515,713,o),
(494,682,cs),
(418,572,o),
(304,494,o),
(179,439,c),
(190,428,l),
(376,494,o),
(442,557,o),
(530,626,cs),
(548,641,o),
(569,607,o),
(587,607,cs),
(602,607,o),
(615,626,o),
(615,642,cs),
(615,654,o),
(566,706,o),
(506,757,c)
);
},
{
closed = 1;
nodes = (
(420,554,l),
(408,460,o),
(474,364,o),
(525,364,cs),
(579,364,o),
(606,370,o),
(606,384,cs),
(606,398,o),
(596,420,o),
(576,420,cs),
(544,420,o),
(452,413,o),
(443,574,c)
);
},
{
closed = 1;
nodes = (
(515,362,o),
(478,331,o),
(465,306,cs),
(438,256,o),
(407,184,o),
(362,197,cs),
(326,206,o),
(335,268,o),
(352,296,cs),
(369,325,o),
(394,353,o),
(416,346,cs),
(441,337,o),
(479,304,o),
(377,120,cs),
(311,0,o),
(153,-34,o),
(101,-25,c),
(94,-38,l),
(215,-78,o),
(419,7,o),
(486,214,cs),
(532,355,o),
(466,376,o),
(452,382,cs),
(422,394,o),
(338,362,o),
(293,271,cs),
(268,221,o),
(292,174,o),
(318,158,cs),
(356,136,o),
(422,150,o),
(476,244,cs),
(530,337,o),
(551,370,o),
(558,373,c),
(546,383,l)
);
}
);
width = 800;
}
);
tags = (
hira
);
},
{
glyphname = "hi-hira.full";
lastChange = "2024-01-14 22:15:50 +0000";
layers = (
{
backgroundImage = {
imagePath = "images/ひ.png";
locked = 1;
pos = (-51,-230);
scale = (1.44,1.44);
};
layerId = m01;
shapes = (
{
closed = 1;
nodes = (
(462,720,l),
(484,703,o),
(489,662,o),
(485,640,cs),
(477,587,o),
(306,401,o),
(245,420,cs),
(233,424,o),
(222,433,o),
(233,455,cs),
(244,475,o),
(254,488,o),
(272,484,cs),
(317,472,o),
(228,38,o),
(36,-5,c),
(47,-20,l),
(288,5,o),
(386,505,o),
(292,526,cs),
(261,532,o),
(225,491,o),
(207,457,cs),
(192,431,o),
(195,406,o),
(224,391,cs),
(296,355,o),
(538,612,o),
(532,610,cs),
(556,618,o),
(573,608,o),
(581,608,cs),
(590,608,o),
(598,614,o),
(598,623,cs),
(598,631,o),
(591,684,o),
(477,738,c)
);
},
{
closed = 1;
nodes = (
(370,402,o),
(347,377,o),
(359,324,cs),
(366,290,o),
(388,274,o),
(404,274,cs),
(419,274,o),
(434,301,o),
(436,313,cs),
(444,349,o),
(456,400,o),
(483,400,cs),
(536,400,o),
(519,301,o),
(513,214,cs),
(507,119,o),
(584,-8,o),
(686,-18,cs),
(755,-24,o),
(796,-8,o),
(827,36,c),
(812,47,l),
(798,30,o),
(776,14,o),
(740,18,cs),
(648,26,o),
(575,124,o),
(581,252,cs),
(587,380,o),
(545,433,o),
(504,433,cs),
(467,433,o),
(448,403,o),
(419,364,cs),
(390,324,o),
(388,379,o),
(375,396,cs)
);
}
);
width = 800;
}
);
tags = (
hira
);
},
{
glyphname = "hu-hira.full";
lastChange = "2024-01-14 22:16:29 +0000";
layers = (
{
backgroundImage = {
imagePath = "images/ふ.png";
locked = 1;
pos = (-30,-230);
scale = (1.44,1.44);
};
hints = (
{
origin = (0,3);
target = (0,27);
type = Stem;
}
);
layerId = m01;
shapes = (
{
closed = 1;
nodes = (
(341,767,l),
(354,743,o),
(377,709,o),
(380,655,cs),
(387,496,o),
(386,194,o),
(380,94,cs),
(377,41,o),
(371,41,o),
(370,36,cs),
(362,11,o),
(374,-25,o),
(384,-37,cs),
(398,-52,o),
(417,-58,o),
(423,-58,cs),
(429,-58,o),
(440,-54,o),
(446,-25,cs),
(448,-16,o),
(442,2,o),
(437,16,cs),
(432,29,o),
(424,58,o),
(419,152,cs),
(411,312,o),
(413,496,o),
(417,586,cs),
(418,624,o),
(422,638,o),
(425,641,cs),
(429,643,o),
(459,637,o),
(470,637,cs),
(480,637,o),
(489,644,o),
(489,654,cs),
(489,670,o),
(483,683,o),
(473,696,cs),
(461,713,o),
(429,739,o),
(353,776,c)
);
},
{
closed = 1;
nodes = (
(473,606,l),
(482,600,o),
(496,584,o),
(495,574,cs),
(491,551,o),
(374,388,o),
(225,388,cs),
(186,388,o),
(262,521,o),
(284,527,cs),
(333,541,o),
(305,288,o),
(87,178,c),
(102,166,l),
(292,215,o),
(429,565,o),
(305,562,cs),
(238,559,o),
(136,368,o),
(213,368,cs),
(354,368,o),
(483,482,o),
(510,509,cs),
(530,527,o),
(552,540,o),
(562,540,cs),
(572,540,o),
(584,547,o),
(584,556,cs),
(584,564,o),
(573,592,o),
(490,618,c)
);
},
{
closed = 1;
nodes = (
(285,251,o),
(275,222,o),
(275,187,cs),
(275,162,o),
(326,118,o),
(333,118,cs),
(347,118,o),
(348,156,o),
(366,163,cs),
(474,203,o),
(618,260,o),
(748,323,c),
(741,336,l),
(642,296,o),
(498,246,o),
(356,200,cs),
(315,187,o),
(310,224,o),
(294,241,cs)
);
}
);
width = 800;
}
);
tags = (
hira
);
},
{
glyphname = "he-hira.full";
lastChange = "2024-01-14 22:17:11 +0000";
layers = (
{
backgroundImage = {
imagePath = "images/へ.png";
locked = 1;
pos = (-31,-230);
scale = (1.44,1.44);
};
layerId = m01;
shapes = (
{
closed = 1;
nodes = (
(539,754,l),
(557,734,o),
(574,712,o),
(567,696,cs),
(521,593,o),
(422,476,o),
(248,334,cs),
(219,310,o),
(200,316,o),
(190,310,cs),
(176,301,o),
(154,274,o),
(164,253,cs),
(178,223,o),
(210,202,o),
(220,202,cs),
(230,202,o),
(260,221,o),
(260,232,cs),
(260,242,o),
(256,263,o),
(261,270,cs),
(291,316,o),
(380,384,o),
(447,384,cs),
(520,384,o),
(585,344,o),
(576,298,cs),
(568,250,o),
(400,181,o),
(388,103,cs),
(376,25,o),
(448,-26,o),
(502,-49,c),
(515,-35,l),
(462,0,o),
(417,38,o),
(424,91,cs),
(435,167,o),
(633,185,o),
(645,282,cs),
(656,365,o),
(536,408,o),
(482,413,cs),
(442,416,o),
(420,412,o),
(400,406,cs),
(390,403,o),
(389,406,o),
(394,414,cs),
(401,426,o),
(560,600,o),
(592,641,cs),
(609,662,o),
(632,672,o),
(641,672,cs),
(651,672,o),
(668,674,o),
(668,685,cs),
(668,696,o),
(659,725,o),
(560,769,c)
);
},
{
closed = 1;
nodes = (
(468,540,o),
(480,592,o),
(447,612,cs),
(414,631,o),
(358,617,o),
(320,571,cs),
(287,533,o),
(279,492,o),
(309,464,cs),
(359,418,o),
(429,476,o),
(449,509,cs)
);
},
{
closed = 1;
nodes = (
(398,502,o),
(369,485,o),
(344,499,cs),
(323,511,o),
(328,540,o),
(344,559,cs),
(366,588,o),
(398,592,o),
(414,578,cs),
(430,565,o),
(425,538,o),
(410,517,cs)
);
}
);
width = 800;
}
);
tags = (
hira
);
},
{
glyphname = "ho-hira.full";
lastChange = "2024-01-14 22:17:46 +0000";
layers = (
{
backgroundImage = {
imagePath = "images/ほ.png";
locked = 1;
pos = (9,-230);
scale = (1.44,1.44);
};
layerId = m01;
shapes = (
{
closed = 1;
nodes = (
(406,751,l),
(416,743,o),
(446,721,o),
(436,701,cs),
(419,665,o),
(333,574,o),
(297,540,cs),
(286,530,o),
(274,526,o),
(267,524,cs),
(258,523,o),
(258,506,o),
(257,502,cs),
(256,497,o),
(244,494,o),
(242,488,cs),
(234,469,o),
(257,458,o),
(280,458,cs),
(287,458,o),
(297,480,o),
(297,488,cs),
(297,497,o),
(327,526,o),
(353,526,cs),
(436,526,o),
(454,452,o),
(454,407,cs),
(454,338,o),
(419,302,o),
(419,178,cs),
(419,64,o),
(515,-20,o),
(614,-20,cs),
(716,-20,o),
(785,42,o),
(809,83,c),
(798,92,l),
(767,62,o),
(704,35,o),
(650,35,cs),
(538,35,o),
(478,157,o),
(478,239,cs),
(478,316,o),
(492,340,o),
(492,397,cs),
(492,467,o),
(441,563,o),
(357,553,cs),
(350,552,o),
(347,556,o),
(353,562,cs),
(399,614,o),
(462,666,o),
(494,694,cs),
(506,704,o),
(520,708,o),
(520,712,cs),
(520,719,o),
(510,746,o),
(419,774,c)
);
},
{
closed = 1;
nodes = (
(494,492,o),
(527,472,o),
(530,463,cs),
(538,433,o),
(327,272,o),
(243,290,cs),
(189,302,o),
(293,422,o),
(310,419,cs),
(360,408,o),
(261,160,o),
(105,92,c),
(116,78,l),
(256,98,o),
(448,396,o),
(327,444,cs),
(290,458,o),
(148,320,o),
(218,274,cs),
(291,224,o),
(536,396,o),
(552,407,cs),
(569,418,o),
(580,426,o),
(587,426,cs),
(594,426,o),
(603,428,o),
(603,436,cs),
(603,443,o),
(593,492,o),
(520,492,cs)
);
}
);
width = 800;
}
);
tags = (
hira
);
},
{
glyphname = "ma-hira.full";
lastChange = "2024-01-14 22:18:30 +0000";
layers = (
{
backgroundImage = {
imagePath = "images/ま.png";
locked = 1;
pos = (36,-230);
scale = (1.44,1.44);
};
layerId = m01;
shapes = (
{
closed = 1;
nodes = (
(432,764,o),
(430,750,o),
(444,720,cs),
(449,709,o),
(477,686,o),
(478,674,cs),
(485,622,o),
(491,502,o),
(485,380,cs),
(482,300,o),
(452,17,o),
(274,-55,c),
(286,-64,l),
(454,-30,o),
(502,185,o),
(520,281,cs),
(536,359,o),
(536,509,o),
(537,550,cs),
(539,632,o),
(548,641,o),
(562,641,cs),
(572,641,o),
(586,650,o),
(586,661,cs),
(586,672,o),
(525,742,o),
(442,762,cs)
);
},
{
closed = 1;
nodes = (
(167,496,o),
(276,408,o),
(318,421,cs),
(328,424,o),
(317,455,o),
(329,464,cs),
(345,476,o),
(372,486,o),
(394,493,cs),
(401,496,o),
(407,488,o),
(389,457,cs),
(352,392,o),
(245,306,o),
(207,286,cs),
(184,274,o),
(162,282,o),
(150,286,cs),
(141,288,o),
(119,264,o),
(141,229,cs),
(148,216,o),
(201,197,o),
(219,199,cs),
(225,199,o),
(234,238,o),
(248,242,cs),
(419,300,o),
(652,386,o),
(729,430,c),
(723,445,l),
(623,403,o),
(372,319,o),
(322,311,cs),
(305,308,o),
(291,311,o),
(300,319,cs),
(366,379,o),
(455,493,o),
(467,498,cs),
(485,505,o),
(501,509,o),
(504,520,cs),
(507,527,o),
(456,553,o),
(419,550,cs),
(406,548,o),
(402,533,o),
(389,520,cs),
(380,510,o),
(323,492,o),
(308,488,cs),
(274,480,o),
(231,496,o),
(210,496,cs)
);
}
);
width = 800;
}
);
tags = (
hira
);
},
{
glyphname = "mi-hira.full";
lastChange = "2024-01-14 22:18:49 +0000";
layers = (
{
backgroundImage = {
imagePath = "images/み.png";
locked = 1;
pos = (41,-230);
scale = (1.44,1.44);
};
layerId = m01;
shapes = (
{
closed = 1;
nodes = (
(416,719,l),
(434,702,o),
(456,673,o),
(462,660,cs),
(476,632,o),
(462,596,o),
(462,522,cs),
(462,415,o),
(494,376,o),
(489,359,cs),
(484,342,o),
(436,318,o),
(408,246,cs),
(353,100,o),
(510,-56,o),
(714,-46,c),
(711,-28,l),
(486,-7,o),
(436,143,o),
(455,206,cs),
(467,248,o),
(491,281,o),
(518,286,cs),
(544,290,o),
(560,282,o),
(569,286,cs),
(579,289,o),
(602,320,o),
(597,330,cs),
(575,373,o),
(527,378,o),
(510,401,cs),
(495,422,o),
(489,450,o),
(485,486,cs),
(482,528,o),
(486,590,o),
(496,607,cs),
(509,631,o),
(538,616,o),
(546,619,cs),
(555,623,o),
(568,641,o),
(562,650,cs),
(556,660,o),
(530,702,o),
(426,730,c)
);
},
{
closed = 1;
nodes = (
(179,504,o),
(248,428,o),
(261,427,cs),
(274,426,o),
(282,442,o),
(288,456,cs),
(294,470,o),
(352,514,o),
(362,518,cs),
(371,523,o),
(372,467,o),
(251,377,c),
(261,366,l),
(389,438,o),
(420,514,o),
(434,522,cs),
(447,530,o),
(464,538,o),
(456,542,cs),
(436,558,o),
(412,580,o),
(399,580,cs),
(380,578,o),
(368,551,o),
(358,544,cs),
(348,536,o),
(306,511,o),
(269,508,cs),
(242,505,o),
(212,517,o),
(196,511,cs)
);
},
{
closed = 1;
nodes = (
(104,306,o),
(182,244,o),
(195,246,cs),
(208,248,o),
(227,277,o),
(251,295,cs),
(294,328,o),
(410,388,o),
(540,449,c),
(533,461,l),
(426,415,o),
(276,355,o),
(215,328,cs),
(185,314,o),
(147,331,o),
(124,318,cs)
);
}
);
width = 800;
}
);
tags = (
hira
);
},
{
glyphname = "mu-hira.full";
lastChange = "2024-01-14 22:19:01 +0000";
layers = (
{
backgroundImage = {
imagePath = "images/む.png";
locked = 1;
pos = (22,-230);
scale = (1.44,1.44);
};
hints = (
{
origin = (3,4);
place = (461, 36);
type = Stem;
}
);
layerId = m01;
shapes = (
{
closed = 1;
nodes = (
(251,682,o),
(248,666,o),
(251,659,cs),
(261,644,o),
(278,631,o),
(279,620,cs),
(284,587,o),
(268,560,o),
(242,544,c),
(250,533,l),
(270,540,o),
(297,559,o),
(312,563,cs),
(341,570,o),
(390,553,o),
(374,589,cs),
(368,602,o),
(315,668,o),
(258,680,cs)
);
},
{
closed = 1;
nodes = (
(135,476,o),
(201,397,o),
(214,396,cs),
(224,396,o),
(224,419,o),
(227,425,cs),
(234,434,o),
(263,450,o),
(276,451,cs),
(287,452,o),
(306,439,o),
(214,346,c),
(224,335,l),
(292,380,o),
(328,430,o),
(339,438,cs),
(350,446,o),
(359,460,o),
(357,467,cs),
(353,478,o),
(328,499,o),
(315,499,cs),
(303,499,o),
(288,491,o),
(279,484,cs),
(269,476,o),
(221,460,o),
(204,466,cs),
(177,476,o),
(173,492,o),
(152,484,cs)
);
},
{
closed = 1;
nodes = (
(158,308,o),
(148,294,o),
(152,284,cs),
(161,256,o),
(212,215,o),
(219,222,cs),
(232,235,o),
(228,258,o),
(254,271,cs),
(374,335,o),
(522,383,o),
(687,450,c),
(678,466,l),
(503,403,o),
(333,347,o),
(248,311,cs),
(216,298,o),
(173,317,o),
(162,311,cs)
);
},
{
closed = 1;
nodes = (
(400,730,l),
(414,715,o),
(446,691,o),
(448,631,cs),
(461,296,o),
(460,143,o),
(473,-95,c),
(495,-94,l),
(496,160,o),
(496,410,o),
(502,568,cs),
(504,623,o),
(519,631,o),
(527,631,cs),
(536,631,o),
(551,641,o),
(551,652,cs),
(551,662,o),
(531,707,o),
(418,749,c)
);
}
);
width = 800;
}
);
tags = (
hira
);
},
{
glyphname = "me-hira.full";
lastChange = "2024-01-14 22:19:12 +0000";
layers = (
{
backgroundImage = {
imagePath = "images/め.png";
locked = 1;
pos = (18,-230);
scale = (1.44,1.44);
};
layerId = m01;
shapes = (
{
closed = 1;
nodes = (
(404,780,l),
(393,647,o),
(358,544,o),
(372,428,cs),
(383,349,o),
(434,331,o),
(483,314,cs),
(648,256,o),
(480,220,o),
(417,175,cs),
(352,130,o),
(293,61,o),
(338,-56,c),
(356,-48,l),
(338,0,o),
(340,55,o),
(398,109,cs),
(452,158,o),
(616,176,o),
(635,226,cs),
(654,275,o),
(617,325,o),
(546,347,cs),
(482,366,o),
(417,377,o),
(410,438,cs),
(396,553,o),
(424,610,o),
(431,779,c)
);
},
{
closed = 1;
nodes = (
(138,551,o),
(200,480,o),
(233,490,cs),
(240,492,o),
(250,533,o),
(260,540,cs),
(273,548,o),
(285,551,o),
(303,557,cs),
(308,558,o),
(320,558,o),
(305,534,cs),
(275,486,o),
(210,422,o),
(179,407,cs),
(161,398,o),
(128,408,o),
(118,410,cs),
(111,413,o),
(100,410,o),
(118,384,cs),
(123,374,o),
(159,350,o),
(173,353,cs),
(178,353,o),
(196,380,o),
(207,384,cs),
(340,432,o),
(531,511,o),
(610,559,c),
(605,571,l),
(521,530,o),
(310,443,o),
(250,432,cs),
(237,430,o),
(242,438,o),
(250,444,cs),
(303,488,o),
(395,588,o),
(399,596,cs),
(400,602,o),
(357,618,o),
(327,616,cs),
(317,614,o),
(318,590,o),
(308,581,cs),
(300,574,o),
(237,548,o),
(225,546,cs),
(197,540,o),
(190,551,o),
(173,551,cs)
);
}
);
width = 800;
}
);
tags = (
hira
);
},
{
glyphname = "mo-hira.full";
lastChange = "2024-01-14 22:19:25 +0000";
layers = (
{
backgroundImage = {
imagePath = "images/も.png";
locked = 1;
pos = (9,-230);
scale = (1.44,1.44);
};
layerId = m01;
shapes = (
{
closed = 1;
nodes = (
(443,768,l),
(460,749,o),
(472,726,o),
(466,703,cs),
(455,664,o),
(364,564,o),
(275,564,cs),
(206,564,o),
(273,617,o),
(318,618,cs),
(458,622,o),
(370,418,o),
(347,250,cs),
(328,108,o),
(398,-23,o),
(515,-23,cs),
(623,-23,o),
(708,41,o),
(747,91,c),
(735,106,l),
(684,73,o),
(624,42,o),
(556,42,cs),
(472,42,o),
(408,104,o),
(408,229,cs),
(408,350,o),
(513,620,o),
(342,652,cs),
(244,670,o),
(156,563,o),
(228,535,cs),
(345,492,o),
(495,665,o),
(515,685,cs),
(526,696,o),
(542,704,o),
(542,712,cs),
(542,719,o),
(506,768,o),
(464,784,c)
);
},
{
closed = 1;
nodes = (
(132,455,o),
(126,427,o),
(130,422,cs),
(167,379,o),
(182,376,o),
(186,380,cs),
(203,401,o),
(246,437,o),
(258,443,cs),
(284,455,o),
(278,410,o),
(206,334,c),
(215,323,l),
(278,365,o),
(317,424,o),
(328,432,cs),
(339,440,o),
(366,452,o),
(364,460,cs),
(360,470,o),
(324,492,o),
(311,492,cs),
(299,492,o),
(276,472,o),
(267,464,cs),
(257,457,o),
(200,432,o),
(183,439,cs),
(167,446,o),
(154,455,o),
(140,455,cs)
);
},
{
closed = 1;
nodes = (
(112,280,o),
(71,263,o),
(75,253,cs),
(84,224,o),
(125,194,o),
(132,202,cs),
(146,215,o),
(160,234,o),
(185,242,cs),
(260,268,o),
(389,308,o),
(452,342,c),
(420,358,l),
(369,334,o),
(262,293,o),
(185,287,cs),
(152,284,o),
(128,280,o),
(117,280,cs)
);
}
);
width = 800;
}
);
tags = (
hira
);
},
{
glyphname = "ya-hira.full";
lastChange = "2024-01-14 22:19:36 +0000";
layers = (
{
backgroundImage = {
imagePath = "images/や.png";
locked = 1;
pos = (-18,-230);
scale = (1.44,1.44);
};
layerId = m01;
shapes = (
{
closed = 1;
nodes = (
(320,769,l),
(345,737,o),
(393,685,o),
(393,618,cs),
(393,472,o),
(398,150,o),
(386,64,cs),
(382,38,o),
(368,17,o),
(366,10,cs),
(365,2,o),
(376,-23,o),
(382,-37,cs),
(388,-52,o),
(408,-60,o),
(416,-60,cs),
(423,-60,o),
(430,-48,o),
(428,-6,cs),
(420,154,o),
(416,454,o),
(423,577,cs),
(428,646,o),
(438,652,o),
(452,652,cs),
(465,652,o),
(478,660,o),
(478,666,cs),
(478,677,o),
(472,695,o),
(459,706,cs),
(449,714,o),
(413,744,o),
(327,778,c)
);
},
{
closed = 1;
nodes = (
(119,515,o),
(116,508,o),
(120,497,cs),
(125,486,o),
(161,434,o),
(173,433,cs),
(185,432,o),
(197,452,o),
(202,458,cs),
(207,464,o),
(230,470,o),
(238,472,cs),
(254,474,o),
(206,418,o),
(195,396,cs),
(184,374,o),
(180,350,o),
(197,334,cs),
(207,324,o),
(242,326,o),
(256,334,cs),
(272,341,o),
(284,340,o),
(276,307,cs),
(260,227,o),
(159,139,o),
(108,125,c),
(116,113,l),
(210,125,o),
(297,239,o),
(315,308,cs),
(327,356,o),
(354,329,o),
(353,352,cs),
(353,359,o),
(335,385,o),
(321,386,cs),
(302,388,o),
(244,346,o),
(227,360,cs),
(201,385,o),
(294,474,o),
(310,478,cs),
(320,480,o),
(333,480,o),
(338,482,cs),
(342,485,o),
(356,496,o),
(356,504,cs),
(356,512,o),
(315,541,o),
(305,541,cs),
(288,541,o),
(282,527,o),
(266,511,cs),
(254,499,o),
(201,485,o),
(182,486,cs),
(162,487,o),
(142,504,o),
(132,509,cs)
);
},
{
closed = 1;
nodes = (
(584,490,l),
(602,475,o),
(615,457,o),
(602,437,cs),
(542,341,o),
(454,276,o),
(358,212,c),
(362,203,l),
(560,286,o),
(639,392,o),
(671,392,cs),
(688,392,o),
(711,404,o),
(695,432,cs),
(677,463,o),
(617,497,o),
(594,502,c)
);
}
);
width = 800;
}
);
tags = (
hira
);
},
{
color = 1;
glyphname = "yasmall-hira.full";
lastChange = "2024-01-14 22:19:47 +0000";
layers = (
{
backgroundImage = {
imagePath = "images/拗音_ゃ.png";
locked = 1;
pos = (106,-230);
scale = (1.44,1.44);
};
layerId = m01;
shapes = (
{
closed = 1;
nodes = (
(274,432,o),
(267,428,o),
(274,416,cs),
(281,404,o),
(322,358,o),
(334,361,cs),
(339,362,o),
(341,379,o),
(353,386,cs),
(365,393,o),
(442,447,o),
(455,450,cs),
(468,452,o),
(490,454,o),
(498,458,cs),
(507,462,o),
(520,474,o),
(519,478,cs),
(518,483,o),
(468,519,o),
(461,519,cs),
(454,519,o),
(436,482,o),
(430,474,cs),
(424,465,o),
(380,432,o),
(346,422,cs),
(324,416,o),
(297,423,o),
(285,428,cs)
);
},
{
closed = 1;
nodes = (
(363,374,o),
(351,349,o),
(363,315,cs),
(371,292,o),
(404,272,o),
(454,202,cs),
(476,172,o),
(329,40,o),
(249,-24,c),
(257,-35,l),
(330,3,o),
(465,117,o),
(486,141,cs),
(508,165,o),
(526,148,o),
(536,152,cs),
(545,156,o),
(563,180,o),
(561,189,cs),
(558,199,o),
(488,225,o),
(446,264,cs),
(369,333,o),
(375,398,o),
(442,463,c),
(388,417,l)
);
},
{
closed = 1;
nodes = (
(434,368,o),
(406,315,o),
(393,282,cs),
(366,213,o),
(222,93,o),
(162,67,c),
(171,55,l),
(281,92,o),
(417,208,o),
(442,259,cs),
(461,297,o),
(468,294,o),
(478,298,cs),
(488,303,o),
(503,303,o),
(510,303,cs),
(515,303,o),
(525,316,o),
(524,322,cs),
(522,328,o),
(497,355,o),
(450,364,cs)
);
}
);
width = 800;
}
);
tags = (
hira
);
},
{
glyphname = "yu-hira.full";
lastChange = "2024-01-14 22:19:59 +0000";
layers = (
{
backgroundImage = {
imagePath = "images/ゆ.png";
locked = 1;
pos = (-16,-230);
scale = (1.44,1.44);
};
layerId = m01;
shapes = (
{
closed = 1;
nodes = (
(330,737,o),
(407,711,o),
(414,688,cs),
(420,669,o),
(382,662,o),
(365,658,c),
(374,641,l),
(392,639,o),
(419,644,o),
(432,629,cs),
(458,603,o),
(479,604,o),
(500,627,cs),
(506,634,o),
(507,644,o),
(504,654,cs),
(497,690,o),
(444,738,o),
(368,737,cs)
);
},
{
closed = 1;
nodes = (
(173,568,o),
(172,557,o),
(174,548,cs),
(182,519,o),
(255,459,o),
(286,465,cs),
(303,468,o),
(316,507,o),
(350,516,cs),
(424,538,o),
(570,578,o),
(716,626,c),
(707,642,l),
(556,604,o),
(395,557,o),
(279,539,cs),
(246,534,o),
(185,570,o),
(179,569,cs)
);
},
{
closed = 1;
nodes = (
(395,494,o),
(330,424,o),
(364,371,cs),
(407,303,o),
(527,358,o),
(560,400,c),
(532,435,l),
(515,407,o),
(452,368,o),
(410,381,cs),
(353,399,o),
(408,491,o),
(450,555,c),
(428,555,l)
);
},
{
closed = 1;
nodes = (
(509,461,o),
(502,459,o),
(503,450,cs),
(504,442,o),
(549,382,o),
(508,270,cs),
(442,92,o),
(316,29,o),
(207,16,c),
(212,-3,l),
(342,-3,o),
(462,76,o),
(533,194,cs),
(579,270,o),
(588,363,o),
(598,376,cs),
(608,389,o),
(618,401,o),
(627,406,cs),
(633,410,o),
(639,425,o),
(633,430,cs),
(627,435,o),
(560,468,o),
(518,462,cs)
);
}
);
width = 800;
}
);
tags = (
hira
);
},
{
color = 1;
glyphname = "yusmall-hira.full";
lastChange = "2024-01-14 22:20:11 +0000";
layers = (
{
backgroundImage = {
imagePath = "images/拗音_ゅ.png";
locked = 1;
pos = (117,-230);
scale = (1.44,1.44);
};
layerId = m01;
shapes = (
{
closed = 1;
nodes = (
(461,242,l),
(447,238,o),
(420,239,o),
(418,258,cs),
(412,298,o),
(464,359,o),
(480,372,cs),
(488,378,o),
(509,371,o),
(514,373,cs),
(519,376,o),
(532,386,o),
(532,395,cs),
(532,403,o),
(500,421,o),
(490,421,cs),
(473,421,o),
(454,400,o),
(437,384,cs),
(425,372,o),
(336,334,o),
(317,335,cs),
(298,336,o),
(281,355,o),
(272,360,cs),
(264,364,o),
(260,348,o),
(264,337,cs),
(269,326,o),
(300,286,o),
(312,284,cs),
(324,283,o),
(358,325,o),
(394,338,cs),
(419,348,o),
(412,331,o),
(394,295,cs),
(383,274,o),
(378,251,o),
(394,233,cs),
(412,212,o),
(437,208,o),
(467,221,c)
);
},
{
closed = 1;
nodes = (
(453,238,o),
(448,217,cs),
(424,116,o),
(272,-6,o),
(221,-35,c),
(228,-47,l),
(354,-1,o),
(477,134,o),
(494,222,cs),
(498,250,o),
(532,246,o),
(540,251,cs),
(549,256,o),
(542,274,o),
(538,280,cs),
(534,287,o),
(465,289,o),
(453,283,cs),
(441,277,o)
);
},
{
closed = 1;
nodes = (
(281,470,o),
(261,467,o),
(268,451,cs),
(278,428,o),
(311,378,o),
(321,378,cs),
(334,378,o),
(346,404,o),
(364,416,cs),
(380,427,o),
(470,472,o),
(519,488,c),
(512,503,l),
(461,491,o),
(363,448,o),
(346,440,cs),
(324,432,o),
(309,455,o),
(292,464,cs)
);
}
);
width = 800;
}
);
tags = (
hira
);
},
{
glyphname = "yo-hira.full";
lastChange = "2024-01-14 22:20:26 +0000";
layers = (
{
backgroundImage = {
imagePath = "images/よ.png";
locked = 1;
pos = (8,-230);
scale = (1.44,1.44);
};
layerId = m01;
shapes = (
{
closed = 1;
nodes = (
(112,230,o),
(93,202,o),
(93,187,cs),
(93,175,o),
(123,129,o),
(135,129,cs),
(147,129,o),
(180,169,o),
(192,186,cs),
(204,202,o),
(231,219,o),
(256,219,cs),
(365,219,o),
(486,14,o),
(609,14,cs),
(705,14,o),
(826,72,o),
(867,108,c),
(860,121,l),
(820,90,o),
(738,72,o),
(693,72,cs),
(519,72,o),
(393,252,o),
(292,252,cs),
(218,252,o),
(179,212,o),
(160,208,cs),
(141,205,o),
(128,206,o),
(118,220,cs)
);
},
{
closed = 1;
nodes = (
(237,634,o),
(214,610,o),
(214,597,cs),
(214,584,o),
(269,519,o),
(282,520,cs),
(296,522,o),
(314,560,o),
(336,583,cs),
(359,606,o),
(390,627,o),
(381,608,cs),
(359,565,o),
(294,488,o),
(326,459,cs),
(346,440,o),
(413,459,o),
(432,492,c),
(430,513,l),
(412,495,o),
(386,470,o),
(356,483,cs),
(330,495,o),
(393,588,o),
(455,637,cs),
(488,663,o),
(507,666,o),
(515,672,cs),
(524,678,o),
(489,703,o),
(476,706,cs),
(462,710,o),
(352,637,o),
(326,622,cs),
(299,608,o),
(263,604,o),
(246,624,cs)
);
},
{
closed = 1;
nodes = (
(416,543,o),
(413,530,o),
(417,487,cs),
(424,408,o),
(344,301,o),
(250,243,c),
(274,234,l),
(351,266,o),
(430,351,o),
(488,492,cs),
(492,504,o),
(515,501,o),
(515,508,cs),
(515,525,o),
(482,558,o),
(438,548,cs)
);
}
);
width = 800;
}
);
tags = (
hira
);
},
{
color = 1;
glyphname = "yosmall-hira.full";
lastChange = "2024-01-14 22:20:37 +0000";
layers = (
{
backgroundImage = {
imagePath = "images/拗音_ょ.png";
locked = 1;
pos = (116,-230);
scale = (1.44,1.44);
};
layerId = m01;
shapes = (
{
closed = 1;
nodes = (
(246,482,o),
(236,465,o),
(236,452,cs),
(236,438,o),
(279,389,o),
(292,390,cs),
(305,392,o),
(294,399,o),
(317,422,cs),
(340,444,o),
(341,432,o),
(332,413,cs),
(310,370,o),
(304,335,o),
(328,312,cs),
(356,287,o),
(423,317,o),
(442,350,c),
(423,365,l),
(408,354,o),
(382,339,o),
(362,348,cs),
(336,360,o),
(336,412,o),
(399,461,cs),
(431,488,o),
(461,448,o),
(480,482,cs),
(485,490,o),
(442,516,o),
(429,520,cs),
(416,524,o),
(351,479,o),
(324,465,cs),
(298,450,o),
(273,452,o),
(256,471,cs)
);
},
{
closed = 1;
nodes = (
(390,378,o),
(400,354,o),
(384,312,cs),
(341,194,o),
(192,105,o),
(140,83,c),
(148,69,l),
(233,84,o),
(381,186,o),
(431,309,cs),
(436,321,o),
(471,332,o),
(471,339,cs),
(471,356,o),
(436,378,o),
(406,378,cs)
);
},
{
closed = 1;
nodes = (
(339,188,l),
(351,200,o),
(369,207,o),
(382,207,cs),
(420,207,o),
(416,166,o),
(400,93,cs),
(387,27,o),
(428,-14,o),
(479,-14,cs),
(534,-14,o),
(610,27,o),
(641,77,c),
(629,88,l),
(599,59,o),
(560,27,o),
(512,27,cs),
(461,27,o),
(444,62,o),
(456,126,cs),
(472,209,o),
(422,237,o),
(390,237,cs),
(360,237,o),
(353,225,o),
(330,208,c)
);
}
);
width = 800;
}
);
tags = (
hira
);
},
{
glyphname = "ra-hira.full";
lastChange = "2024-01-14 22:20:48 +0000";
layers = (
{
backgroundImage = {
imagePath = "images/ら.png";
locked = 1;
pos = (2,-230);
scale = (1.44,1.44);
};
layerId = m01;
shapes = (
{
closed = 1;
nodes = (
(246,661,o),
(242,658,o),
(244,642,cs),
(249,607,o),
(292,539,o),
(326,544,cs),
(348,547,o),
(476,632,o),
(492,641,cs),
(509,649,o),
(507,630,o),
(500,608,cs),
(454,479,o),
(281,280,o),
(249,299,cs),
(210,322,o),
(350,460,o),
(440,460,cs),
(635,460,o),
(506,67,o),
(281,18,c),
(286,-5,l),
(620,43,o),
(738,487,o),
(456,487,cs),
(365,487,o),
(150,323,o),
(215,269,cs),
(262,230,o),
(372,324,o),
(513,569,cs),
(532,604,o),
(563,623,o),
(573,623,cs),
(586,623,o),
(620,654,o),
(620,665,cs),
(620,680,o),
(563,713,o),
(543,714,cs),
(522,715,o),
(512,683,o),
(506,678,cs),
(491,666,o),
(371,612,o),
(338,612,cs),
(312,612,o),
(284,642,o),
(269,649,cs)
);
}
);
width = 800;
}
);
tags = (
hira
);
},
{
glyphname = "ri-hira.full";
lastChange = "2024-01-14 22:20:59 +0000";
layers = (
{
backgroundImage = {
imagePath = "images/り.png";
locked = 1;
pos = (21,-230);
scale = (1.44,1.44);
};
hints = (
{
origin = (0,4);
target = (0,30);
type = Stem;
}
);
layerId = m01;
shapes = (
{
closed = 1;
nodes = (
(304,756,l),
(336,724,o),
(360,707,o),
(372,677,cs),
(384,647,o),
(382,214,o),
(382,125,cs),
(382,91,o),
(382,36,o),
(380,31,cs),
(377,26,o),
(369,37,o),
(359,31,cs),
(352,26,o),
(360,-6,o),
(372,-25,cs),
(386,-47,o),
(401,-62,o),
(419,-62,cs),
(435,-62,o),
(450,-62,o),
(450,-49,cs),
(450,-41,o),
(450,-31,o),
(442,-16,cs),
(434,0,o),
(414,7,o),
(413,54,cs),
(407,215,o),
(417,587,o),
(423,611,cs),
(431,646,o),
(436,664,o),
(447,664,cs),
(458,664,o),
(474,662,o),
(474,671,cs),
(474,679,o),
(479,694,o),
(441,718,cs),
(405,740,o),
(387,751,o),
(315,767,c)
);
},
{
closed = 1;
nodes = (
(566,551,o),
(569,526,o),
(557,511,cs),
(544,496,o),
(484,443,o),
(471,382,cs),
(435,217,o),
(606,107,o),
(746,119,c),
(749,132,l),
(651,144,o),
(580,178,o),
(534,258,cs),
(489,342,o),
(534,434,o),
(578,440,cs),
(602,444,o),
(610,426,o),
(610,421,cs),
(610,413,o),
(626,408,o),
(633,408,cs),
(646,408,o),
(658,418,o),
(658,428,cs),
(658,446,o),
(636,527,o),
(578,547,cs)
);
},
{
closed = 1;
nodes = (
(134,473,o),
(125,458,o),
(125,439,cs),
(125,408,o),
(150,390,o),
(171,390,cs),
(178,390,o),
(242,440,o),
(266,458,cs),
(280,469,o),
(273,438,o),
(262,390,cs),
(252,348,o),
(167,179,o),
(62,146,c),
(75,132,l),
(178,166,o),
(248,253,o),
(281,324,cs),
(299,361,o),
(305,385,o),
(320,448,cs),
(322,458,o),
(330,475,o),
(341,475,cs),
(348,475,o),
(350,502,o),
(346,506,cs),
(342,511,o),
(292,521,o),
(281,512,cs),
(270,504,o),
(208,457,o),
(186,448,cs),
(173,442,o),
(147,454,o),
(142,461,cs)
);
},
{
closed = 1;
nodes = (
(173,342,l),
(202,334,o),
(260,308,o),
(273,283,cs),
(282,264,o),
(294,257,o),
(302,257,cs),
(309,257,o),
(342,284,o),
(342,296,cs),
(342,314,o),
(309,353,o),
(183,358,c)
);
}
);
width = 800;
}
);
tags = (
hira
);
},
{
glyphname = "ru-hira.full";
lastChange = "2024-01-14 22:21:15 +0000";
layers = (
{
backgroundImage = {
imagePath = "images/る.png";
locked = 1;
pos = (26,-230);
scale = (1.44,1.44);
};
hints = (
{
origin = (0,3);
target = (0,27);
type = Stem;
}
);
layerId = m01;
shapes = (
{
closed = 1;
nodes = (
(356,767,l),
(369,743,o),
(392,709,o),
(394,655,cs),
(401,496,o),
(400,194,o),
(394,94,cs),
(392,41,o),
(386,41,o),
(384,36,cs),
(376,11,o),
(392,-30,o),
(402,-42,cs),
(416,-56,o),
(430,-54,o),
(436,-54,cs),
(442,-54,o),
(458,-50,o),
(464,-22,cs),
(466,-12,o),
(458,0,o),
(453,13,cs),
(448,26,o),
(438,58,o),
(434,152,cs),
(425,312,o),
(428,496,o),
(431,586,cs),
(432,624,o),
(436,638,o),
(440,641,cs),
(443,643,o),
(466,638,o),
(477,638,cs),
(488,638,o),
(504,653,o),
(504,662,cs),
(504,678,o),
(498,684,o),
(489,697,cs),
(477,714,o),
(443,739,o),
(368,776,c)
);
},
{
closed = 1;
nodes = (
(287,206,o),
(287,198,cs),
(287,173,o),
(329,121,o),
(352,121,cs),
(366,121,o),
(383,158,o),
(431,176,cs),
(472,192,o),
(641,264,o),
(765,324,c),
(759,336,l),
(692,311,o),
(440,208,o),
(375,198,cs),
(360,196,o),
(339,212,o),
(327,238,cs),
(317,257,o)
);
},
{
closed = 1;
nodes = (
(143,480,o),
(138,464,o),
(138,445,cs),
(138,414,o),
(167,390,o),
(188,390,cs),
(195,390,o),
(251,440,o),
(275,458,cs),
(290,469,o),
(291,416,o),
(254,337,cs),
(204,230,o),
(125,176,o),
(83,166,c),
(98,152,l),
(149,151,o),
(239,223,o),
(287,336,cs),
(317,407,o),
(329,480,o),
(340,480,cs),
(347,480,o),
(356,497,o),
(352,502,cs),
(348,506,o),
(302,515,o),
(291,506,cs),
(280,498,o),
(226,457,o),
(204,448,cs),
(191,442,o),
(156,461,o),
(152,468,cs)
);
},
{
closed = 1;
nodes = (
(191,350,l),
(220,342,o),
(270,323,o),
(284,298,cs),
(293,278,o),
(305,265,o),
(312,265,cs),
(320,265,o),
(352,295,o),
(352,307,cs),
(352,325,o),
(327,361,o),
(201,366,c)
);
}
);
width = 800;
}
);
tags = (
hira
);
},
{
glyphname = "re-hira.full";
lastChange = "2024-01-14 22:21:31 +0000";
layers = (
{
backgroundImage = {
imagePath = "images/れ.png";
locked = 1;
pos = (35,-230);
scale = (1.44,1.44);
};
layerId = m01;
shapes = (
{
closed = 1;
nodes = (
(261,754,o),
(248,716,o),
(248,708,cs),
(248,682,o),
(304,620,o),
(324,620,cs),
(352,620,o),
(369,685,o),
(432,721,cs),
(476,746,o),
(485,743,o),
(455,692,cs),
(435,658,o),
(400,629,o),
(406,596,cs),
(414,547,o),
(514,504,o),
(508,445,cs),
(496,342,o),
(46,182,o),
(198,-76,c),
(218,-60,l),
(143,163,o),
(420,275,o),
(582,394,cs),
(628,427,o),
(606,488,o),
(546,522,cs),
(496,551,o),
(442,584,o),
(450,614,cs),
(465,668,o),
(538,734,o),
(558,743,cs),
(566,746,o),
(581,750,o),
(581,758,cs),
(581,772,o),
(542,804,o),
(527,804,cs),
(498,804,o),
(365,713,o),
(336,708,cs),
(308,703,o),
(286,716,o),
(268,743,cs)
);
},
{
closed = 1;
nodes = (
(296,371,l),
(352,310,o),
(386,256,o),
(386,234,cs),
(386,198,o),
(328,196,o),
(322,179,cs),
(316,163,o),
(392,179,o),
(408,169,cs),
(419,163,o),
(438,145,o),
(470,176,cs),
(498,205,o),
(485,256,o),
(305,382,c)
);
}
);
width = 800;
}
);
tags = (
hira
);
},
{
glyphname = "ro-hira.full";
lastChange = "2024-01-14 22:21:46 +0000";
layers = (
{
backgroundImage = {
imagePath = "images/ろ.png";
locked = 1;
pos = (30,-230);
scale = (1.44,1.44);
};
layerId = m01;
shapes = (
{
closed = 1;
nodes = (
(77,232,o),
(63,212,o),
(63,197,cs),
(63,185,o),
(93,139,o),
(105,139,cs),
(117,139,o),
(150,179,o),
(162,196,cs),
(174,212,o),
(201,229,o),
(226,229,cs),
(335,229,o),
(456,24,o),
(579,24,cs),
(675,24,o),
(784,88,o),
(825,124,c),
(818,137,l),
(765,112,o),
(698,88,o),
(652,88,cs),
(478,88,o),
(363,262,o),
(262,262,cs),
(188,262,o),
(149,222,o),
(130,218,cs),
(111,215,o),
(102,217,o),
(88,226,cs)
);
},
{
closed = 1;
nodes = (
(292,660,o),
(279,632,o),
(279,613,cs),
(279,582,o),
(323,535,o),
(344,535,cs),
(351,535,o),
(436,619,o),
(460,637,cs),
(474,648,o),
(480,618,o),
(440,496,cs),
(402,384,o),
(298,283,o),
(243,252,c),
(282,251,l),
(372,301,o),
(442,403,o),
(490,516,cs),
(520,587,o),
(531,662,o),
(542,662,cs),
(549,662,o),
(558,671,o),
(558,682,cs),
(558,688,o),
(503,708,o),
(492,697,cs),
(460,662,o),
(399,618,o),
(366,608,cs),
(352,604,o),
(305,641,o),
(300,648,cs)
);
},
{
closed = 1;
nodes = (
(338,496,l),
(392,488,o),
(446,450,o),
(466,424,cs),
(483,401,o),
(473,370,o),
(488,370,cs),
(495,370,o),
(557,412,o),
(557,424,cs),
(557,431,o),
(542,464,o),
(520,479,cs),
(486,502,o),
(426,508,o),
(347,511,c)
);
}
);
width = 800;
}
);
tags = (
hira
);
},
{
glyphname = "wa-hira.full";
lastChange = "2024-01-14 22:21:56 +0000";
layers = (
{
backgroundImage = {
imagePath = "images/わ.png";
locked = 1;
pos = (21,-230);
scale = (1.44,1.44);
};
hints = (
{
origin = (0,3);
target = (0,24);
type = Stem;
}
);
layerId = m01;
shapes = (
{
closed = 1;
nodes = (
(318,774,l),
(344,742,o),
(392,690,o),
(392,623,cs),
(392,476,o),
(396,155,o),
(384,68,cs),
(381,43,o),
(371,19,o),
(370,12,cs),
(369,5,o),
(377,-20,o),
(383,-35,cs),
(389,-49,o),
(405,-65,o),
(412,-61,cs),
(419,-58,o),
(440,-47,o),
(430,-6,cs),
(424,20,o),
(423,61,o),
(422,98,cs),
(417,262,o),
(416,481,o),
(422,582,cs),
(426,650,o),
(437,656,o),
(450,656,cs),
(464,656,o),
(477,665,o),
(477,671,cs),
(477,682,o),
(471,700,o),
(458,710,cs),
(448,719,o),
(412,749,o),
(326,782,c)
);
},
{
closed = 1;
nodes = (
(586,497,l),
(606,478,o),
(622,466,o),
(606,436,cs),
(580,384,o),
(446,254,o),
(353,211,c),
(358,202,l),
(498,254,o),
(556,316,o),
(606,362,cs),
(652,406,o),
(666,384,o),
(682,384,cs),
(690,384,o),
(699,388,o),
(699,410,cs),
(699,430,o),
(686,466,o),
(596,503,c)
);
},
{
closed = 1;
nodes = (
(216,372,o),
(186,391,o),
(192,408,cs),
(198,425,o),
(221,474,o),
(270,480,cs),
(358,491,o),
(262,330,o),
(168,269,cs),
(125,241,o),
(104,248,o),
(100,240,cs),
(90,216,o),
(136,185,o),
(146,185,cs),
(158,185,o),
(170,216,o),
(184,226,cs),
(198,235,o),
(276,270,o),
(300,268,cs),
(324,265,o),
(350,265,o),
(357,265,cs),
(364,265,o),
(376,275,o),
(376,283,cs),
(376,292,o),
(339,314,o),
(326,314,cs),
(312,314,o),
(260,280,o),
(230,266,cs),
(215,260,o),
(208,268,o),
(221,282,cs),
(251,314,o),
(338,407,o),
(338,449,cs),
(338,498,o),
(305,512,o),
(270,509,cs),
(214,503,o),
(140,444,o),
(134,374,cs),
(131,340,o),
(165,330,o),
(183,330,cs),
(197,330,o),
(246,346,o),
(248,355,cs),
(252,384,o),
(237,415,o),
(230,400,cs)
);
}
);
width = 800;
}
);
tags = (
hira
);
},
{
glyphname = "wo-hira.full";
lastChange = "2024-01-14 22:22:09 +0000";
layers = (
{
backgroundImage = {
imagePath = "images/を.png";
locked = 1;
pos = (-16,-230);
scale = (1.44,1.44);
};
layerId = m01;
shapes = (
{
closed = 1;
nodes = (
(189,263,o),
(159,282,o),
(165,299,cs),
(171,316,o),
(194,365,o),
(243,371,cs),
(330,382,o),
(234,221,o),
(141,160,cs),
(98,132,o),
(76,139,o),
(72,131,cs),
(63,107,o),
(108,76,o),
(118,76,cs),
(130,76,o),
(142,107,o),
(156,116,cs),
(171,126,o),
(249,161,o),
(273,158,cs),
(297,156,o),
(322,156,o),
(329,156,cs),
(336,156,o),
(348,166,o),
(348,174,cs),
(348,182,o),
(311,205,o),
(298,205,cs),
(285,205,o),
(232,170,o),
(202,157,cs),
(188,151,o),
(180,158,o),
(194,173,cs),
(224,205,o),
(310,298,o),
(310,340,cs),
(310,389,o),
(278,403,o),
(243,400,cs),
(186,394,o),
(112,335,o),
(106,265,cs),
(104,230,o),
(137,221,o),
(155,221,cs),
(170,221,o),
(219,236,o),
(220,246,cs),
(225,275,o),
(209,306,o),
(202,290,cs)
);
},
{
closed = 1;
nodes = (
(244,719,o),
(208,678,o),
(208,664,cs),
(208,635,o),
(252,600,o),
(272,600,cs),
(286,600,o),
(309,620,o),
(323,664,cs),
(330,684,o),
(340,710,o),
(351,720,c),
(340,727,l),
(312,712,o),
(288,673,o),
(275,673,cs),
(262,673,o),
(246,685,o),
(245,703,cs)
);
},
{
closed = 1;
nodes = (
(396,785,o),
(393,766,o),
(393,760,cs),
(393,746,o),
(429,725,o),
(426,714,cs),
(416,674,o),
(299,545,o),
(252,514,cs),
(234,502,o),
(231,487,o),
(231,476,cs),
(231,467,o),
(248,446,o),
(255,446,cs),
(262,446,o),
(272,464,o),
(290,496,cs),
(302,516,o),
(334,530,o),
(371,516,cs),
(492,469,o),
(402,325,o),
(402,194,cs),
(402,8,o),
(518,-50,o),
(596,-50,cs),
(692,-50,o),
(771,12,o),
(796,55,c),
(783,71,l),
(741,31,o),
(681,8,o),
(635,8,cs),
(545,8,o),
(471,112,o),
(471,206,cs),
(471,334,o),
(521,461,o),
(432,522,cs),
(404,542,o),
(370,551,o),
(344,551,cs),
(329,551,o),
(336,559,o),
(342,565,cs),
(393,620,o),
(437,666,o),
(465,691,cs),
(482,706,o),
(503,709,o),
(503,718,cs),
(503,725,o),
(492,737,o),
(482,745,cs),
(456,763,o),
(423,769,o),
(405,780,cs)
);
}
);
width = 800;
}
);
tags = (
hira
);
},
{
glyphname = "n-hira.full";
lastChange = "2024-01-14 22:22:27 +0000";
layers = (
{
backgroundImage = {
imagePath = "images/ん.png";
pos = (-9,-230);
scale = (1.44,1.44);
};
layerId = m01;
shapes = (
{
closed = 1;
nodes = (
(185,568,o),
(152,508,o),
(152,496,cs),
(152,469,o),
(185,416,o),
(220,416,cs),
(238,416,o),
(284,484,o),
(414,530,cs),
(491,558,o),
(550,539,o),
(539,496,cs),
(520,426,o),
(464,401,o),
(420,334,cs),
(358,232,o),
(407,150,o),
(507,92,c),
(520,108,l),
(407,218,o),
(441,292,o),
(478,334,cs),
(501,360,o),
(564,404,o),
(594,454,cs),
(620,496,o),
(633,568,o),
(528,582,cs),
(449,593,o),
(345,558,o),
(258,496,cs),
(218,466,o),
(196,517,o),
(190,547,cs)
);
}
);
width = 800;
}
);
tags = (
hira
);
},
{
color = 9;
glyphname = "digraphyori-hira.full";
lastChange = "2024-01-14 22:23:21 +0000";
layers = (
{
backgroundImage = {
imagePath = "images/dlig_より.png";
locked = 1;
pos = (-172,-230);
scale = (1.44,1.44);
};
layerId = m01;
shapes = (
{
closed = 1;
nodes = (
(272,730,o),
(256,708,o),
(256,685,cs),
(256,672,o),
(317,610,o),
(336,610,cs),
(351,610,o),
(371,634,o),
(387,642,cs),
(410,654,o),
(442,664,o),
(470,670,c),
(382,569,o),
(269,467,o),
(321,410,cs),
(364,362,o),
(414,391,o),
(482,449,c),
(467,474,l),
(437,451,o),
(395,415,o),
(371,434,cs),
(303,490,o),
(438,588,o),
(514,664,cs),
(520,670,o),
(533,676,o),
(542,674,cs),
(555,672,o),
(562,668,o),
(568,668,cs),
(578,668,o),
(597,689,o),
(597,703,cs),
(597,718,o),
(542,757,o),
(500,757,cs),
(484,757,o),
(492,691,o),
(352,676,cs),
(334,673,o),
(299,692,o),
(276,722,cs)
);
},
{
closed = 1;
nodes = (
(448,499,o),
(449,486,o),
(461,403,cs),
(477,298,o),
(291,13,o),
(227,37,cs),
(148,67,o),
(256,226,o),
(408,226,cs),
(501,226,o),
(528,163,o),
(537,163,cs),
(545,163,o),
(592,190,o),
(592,200,cs),
(592,211,o),
(580,275,o),
(418,275,cs),
(321,275,o),
(75,125,o),
(189,-23,cs),
(222,-66,o),
(422,72,o),
(513,366,cs),
(527,414,o),
(570,446,o),
(570,456,cs),
(570,466,o),
(562,492,o),
(543,499,cs),
(524,506,o),
(470,510,o),
(458,504,cs)
);
}
);
width = 800;
}
);
tags = (
dlig,
hira
);
},
{
color = 9;
glyphname = "digraphkoto-kata.full";
lastChange = "2024-01-14 22:23:32 +0000";
layers = (
{
backgroundImage = {
imagePath = "images/dlig_コト.png";
locked = 1;
pos = (-113,-160);
};
layerId = m01;
shapes = (
{
closed = 1;
nodes = (
(420,759,l),
(433,744,o),
(458,728,o),
(458,717,cs),
(458,702,o),
(330,675,o),
(295,563,cs),
(275,500,o),
(328,424,o),
(438,402,cs),
(648,363,o),
(592,230,o),
(450,60,cs),
(366,-42,o),
(239,-62,o),
(155,-62,c),
(158,-85,l),
(361,-112,o),
(515,4,o),
(594,167,cs),
(668,321,o),
(634,402,o),
(458,452,cs),
(394,470,o),
(343,502,o),
(355,539,cs),
(382,624,o),
(488,642,o),
(540,624,cs),
(559,617,o),
(571,608,o),
(594,608,cs),
(602,608,o),
(612,648,o),
(612,660,cs),
(612,670,o),
(544,738,o),
(438,771,c)
);
},
{
closed = 1;
nodes = (
(191,293,cs),
(182,278,o),
(190,250,o),
(197,233,cs),
(212,197,o),
(239,191,o),
(256,191,cs),
(270,191,o),
(292,224,o),
(298,237,cs),
(313,273,o),
(346,297,o),
(362,317,c),
(360,326,l),
(318,303,o),
(282,263,o),
(256,263,cs),
(240,263,o),
(222,281,o),
(212,308,cs),
(211,311,o),
(197,304,o)
);
},
{
closed = 1;
nodes = (
(472,347,o),
(403,304,o),
(379,248,cs),
(358,197,o),
(383,130,o),
(418,118,cs),
(461,104,o),
(541,153,o),
(560,176,cs),
(580,198,o),
(619,311,o),
(540,330,cs)
);
},
{
closed = 1;
nodes = (
(557,294,o),
(557,263,o),
(534,233,cs),
(502,191,o),
(456,177,o),
(440,183,cs),
(407,196,o),
(425,244,o),
(440,267,cs),
(461,296,o),
(496,314,o),
(517,306,cs)
);
}
);
width = 800;
}
);
tags = (
dlig,
kata
);
},
{
color = 9;
glyphname = "do_ma-kata.dlig";
lastChange = "2023-12-28 04:13:27 +0000";
layers = (
{
backgroundImage = {
imagePath = "images/dlig_ドマ.png";
locked = 1;
pos = (-9,-206);
};
layerId = m01;
shapes = (
{
closed = 1;
nodes = (
(396,773,o),
(350,712,o),
(350,695,cs),
(350,658,o),
(395,637,o),
(395,627,cs),
(395,617,o),
(390,611,o),
(388,609,c),
(397,601,l),
(427,617,o),
(458,662,o),
(458,676,cs),
(458,699,o),
(417,742,o),
(402,765,cs)
);
},
{
closed = 1;
nodes = (
(235,586,o),
(222,563,o),
(222,552,cs),
(222,523,o),
(312,464,o),
(325,464,cs),
(341,464,o),
(353,475,o),
(401,490,cs),
(428,498,o),
(506,511,o),
(521,511,cs),
(530,511,o),
(587,545,o),
(587,557,cs),
(587,570,o),
(557,607,o),
(522,607,cs),
(509,607,o),
(365,545,o),
(329,545,cs),
(298,545,o),
(268,553,o),
(245,576,cs)
);
},
{
closed = 1;
nodes = (
(285,413,o),
(289,321,o),
(287,269,cs),
(278,59,o),
(155,-41,o),
(76,-44,c),
(84,-63,l),
(222,-63,o),
(334,55,o),
(345,206,cs),
(353,315,o),
(347,504,o),
(347,517,c),
(285,506,l)
);
},
{
closed = 1;
nodes = (
(395,413,o),
(364,372,o),
(364,361,cs),
(364,336,o),
(394,322,o),
(394,315,cs),
(394,311,o),
(394,304,o),
(401,300,c),
(421,311,o),
(437,338,o),
(437,348,cs),
(437,363,o),
(409,392,o),
(399,408,cs)
);
},
{
closed = 1;
nodes = (
(395,295,o),
(364,254,o),
(364,243,cs),
(364,218,o),
(394,204,o),
(394,197,cs),
(394,193,o),
(394,186,o),
(401,182,c),
(421,193,o),
(437,220,o),
(437,230,cs),
(437,245,o),
(409,274,o),
(399,290,cs)
);
},
{
closed = 1;
nodes = (
(189,463,o),
(160,413,o),
(143,396,cs),
(132,385,o),
(143,381,o),
(160,381,cs),
(177,381,o),
(188,368,o),
(192,351,cs),
(196,334,o),
(198,244,o),
(196,210,cs),
(190,86,o),
(145,63,o),
(106,39,c),
(115,20,l),
(182,40,o),
(241,118,o),
(245,211,cs),
(248,269,o),
(248,330,o),
(248,370,cs),
(248,394,o),
(266,392,o),
(266,401,cs),
(266,409,o),
(216,463,o),
(205,463,cs)
);
},
{
closed = 1;
nodes = (
(467,553,o),
(426,532,o),
(409,515,cs),
(398,504,o),
(409,500,o),
(426,500,cs),
(443,500,o),
(450,485,o),
(454,468,cs),
(458,451,o),
(458,373,o),
(458,210,cs),
(458,59,o),
(597,-71,o),
(752,-74,c),
(762,-58,l),
(591,-30,o),
(528,102,o),
(525,246,cs),
(523,359,o),
(522,420,o),
(522,460,cs),
(522,484,o),
(544,482,o),
(544,491,cs),
(544,499,o),
(494,553,o),
(483,553,cs)
);
},
{
closed = 1;
nodes = (
(601,456,o),
(551,402,o),
(551,394,cs),
(551,385,o),
(560,387,o),
(560,363,cs),
(560,323,o),
(559,276,o),
(562,211,cs),
(567,120,o),
(613,62,o),
(688,13,c),
(697,32,l),
(650,72,o),
(618,120,o),
(614,187,cs),
(609,262,o),
(612,327,o),
(616,344,cs),
(620,361,o),
(637,380,o),
(654,380,cs),
(671,380,o),
(682,384,o),
(671,395,cs),
(654,412,o),
(628,456,o),
(612,456,cs)
);
}
);
width = 800;
}
);
tags = (
dlig
);
},
{
color = 2;
glyphname = "a_a-hira.full";
lastChange = "2024-01-14 22:23:59 +0000";
layers = (
{
backgroundImage = {
imagePath = "images/lig_あぁ.png";
pos = (106,-230);
scale = (1.44,1.44);
};
hints = (
{
origin = (0,3);
place = (386, 34);
type = Stem;
}
);
layerId = m01;
shapes = (
{
closed = 1;
nodes = (
(312,802,l),
(338,769,o),
(386,718,o),
(386,650,cs),
(386,504,o),
(390,83,o),
(378,-4,cs),
(377,-8,o),
(333,34,o),
(221,-130,c),
(231,-139,l),
(356,4,o),
(368,-60,o),
(370,-68,cs),
(372,-78,o),
(376,-89,o),
(380,-97,cs),
(386,-112,o),
(401,-127,o),
(408,-127,cs),
(416,-127,o),
(423,-115,o),
(420,-73,cs),
(413,86,o),
(408,486,o),
(416,610,cs),
(420,678,o),
(431,684,o),
(444,684,cs),
(458,684,o),
(471,692,o),
(471,698,cs),
(471,709,o),
(465,727,o),
(452,738,cs),
(442,746,o),
(406,776,o),
(320,810,c)
);
},
{
closed = 1;
nodes = (
(488,592,l),
(506,577,o),
(514,560,o),
(506,545,cs),
(450,445,o),
(261,332,o),
(108,299,c),
(114,283,l),
(328,318,o),
(442,406,o),
(533,466,cs),
(551,478,o),
(576,496,o),
(593,496,cs),
(608,496,o),
(618,516,o),
(600,546,cs),
(581,577,o),
(524,602,o),
(501,607,c)
);
},
{
closed = 1;
nodes = (
(483,335,l),
(501,320,o),
(503,298,o),
(483,276,cs),
(422,212,o),
(320,167,o),
(156,148,c),
(162,132,l),
(252,132,o),
(395,158,o),
(495,212,cs),
(513,222,o),
(544,214,o),
(561,214,cs),
(575,214,o),
(586,244,o),
(568,274,cs),
(549,305,o),
(526,335,o),
(497,350,c)
);
}
);
width = 800;
}
);
tags = (
liga
);
},
{
color = 2;
glyphname = "a_i-hira.full";
lastChange = "2024-01-14 22:24:08 +0000";
layers = (
{
backgroundImage = {
imagePath = "images/lig_あぃ.png";
pos = (105,-226);
scale = (1.44,1.44);
};
hints = (
{
origin = (0,3);
place = (386, 34);
type = Stem;
}
);
layerId = m01;
shapes = (
{
closed = 1;
nodes = (
(312,802,l),
(338,769,o),
(386,718,o),
(386,650,cs),
(386,504,o),
(390,83,o),
(378,-4,cs),
(377,-8,o),
(333,34,o),
(221,-130,c),
(231,-139,l),
(356,4,o),
(368,-60,o),
(370,-68,cs),
(372,-78,o),
(376,-89,o),
(380,-97,cs),
(386,-112,o),
(401,-127,o),
(408,-127,cs),
(416,-127,o),
(423,-115,o),
(420,-73,cs),
(413,86,o),
(408,486,o),
(416,610,cs),
(420,678,o),
(431,684,o),
(444,684,cs),
(458,684,o),
(471,692,o),
(471,698,cs),
(471,709,o),
(465,727,o),
(452,738,cs),
(442,746,o),
(406,776,o),
(320,810,c)
);
},
{
closed = 1;
nodes = (
(502,592,l),
(518,577,o),
(526,560,o),
(518,545,cs),
(470,445,o),
(305,334,o),
(180,288,c),
(186,272,l),
(374,320,o),
(461,406,o),
(543,466,cs),
(558,478,o),
(581,496,o),
(596,496,cs),
(609,496,o),
(618,516,o),
(603,546,cs),
(585,577,o),
(534,602,o),
(514,607,c)
);
},
{
closed = 1;
nodes = (
(548,418,o),
(551,392,o),
(539,378,cs),
(526,362,o),
(466,310,o),
(453,248,cs),
(417,84,o),
(588,-26,o),
(728,-14,c),
(731,-1,l),
(633,11,o),
(562,44,o),
(516,125,cs),
(471,209,o),
(516,301,o),
(560,307,cs),
(574,310,o),
(594,296,o),
(591,292,cs),
(586,286,o),
(609,282,o),
(616,282,cs),
(627,282,o),
(639,295,o),
(639,305,cs),
(639,320,o),
(618,394,o),
(560,414,cs)
);
}
);
width = 800;
}
);
tags = (
liga
);
},
{
color = 2;
glyphname = "a_u-hira.full";
lastChange = "2024-01-14 22:24:34 +0000";
layers = (
{
backgroundImage = {
imagePath = "images/lig_あぅ.png";
pos = (102,-230);
scale = (1.44,1.44);
};
hints = (
{
origin = (0,3);
place = (386, 34);
type = Stem;
}
);
layerId = m01;
shapes = (
{
closed = 1;
nodes = (
(312,802,l),
(338,769,o),
(386,718,o),
(386,650,cs),
(386,504,o),
(390,83,o),
(378,-4,cs),
(377,-8,o),
(333,34,o),
(221,-130,c),
(231,-139,l),
(356,4,o),
(368,-60,o),
(370,-68,cs),
(372,-78,o),
(376,-89,o),
(380,-97,cs),
(386,-112,o),
(401,-127,o),
(408,-127,cs),
(416,-127,o),
(423,-115,o),
(420,-73,cs),
(413,86,o),
(408,486,o),
(416,610,cs),
(420,678,o),
(431,684,o),
(444,684,cs),
(458,684,o),
(471,692,o),
(471,698,cs),
(471,709,o),
(465,727,o),
(452,738,cs),
(442,746,o),
(406,776,o),
(320,810,c)
);
},
{
closed = 1;
nodes = (
(502,592,l),
(518,577,o),
(526,560,o),
(518,545,cs),
(470,445,o),
(299,340,o),
(174,294,c),
(180,278,l),
(368,326,o),
(456,413,o),
(538,473,cs),
(554,485,o),
(581,496,o),
(596,496,cs),
(609,496,o),
(618,516,o),
(603,546,cs),
(585,577,o),
(534,602,o),
(514,607,c)
);
},
{
closed = 1;
nodes = (
(189,320,o),
(164,301,o),
(164,296,cs),
(164,278,o),
(191,266,o),
(196,266,cs),
(201,266,o),
(238,296,o),
(260,296,cs),
(359,296,o),
(258,184,o),
(258,158,cs),
(258,143,o),
(299,85,o),
(321,85,cs),
(338,85,o),
(354,108,o),
(400,134,cs),
(483,184,o),
(672,258,o),
(742,287,c),
(735,304,l),
(587,256,o),
(436,187,o),
(374,158,cs),
(348,146,o),
(318,148,o),
(318,172,cs),
(318,192,o),
(359,281,o),
(316,300,cs),
(279,317,o),
(224,320,o),
(198,320,cs)
);
}
);
width = 800;
}
);
tags = (
liga
);
},
{
color = 2;
glyphname = "a_e-hira.full";
lastChange = "2024-01-14 22:24:58 +0000";
layers = (
{
backgroundImage = {
imagePath = "images/lig_あぇ.png";
pos = (107,-236);
scale = (1.44,1.44);
};
hints = (
{
origin = (0,3);
place = (386, 34);
type = Stem;
}
);
layerId = m01;
shapes = (
{
closed = 1;
nodes = (
(312,802,l),
(338,769,o),
(386,718,o),
(386,650,cs),
(386,504,o),
(390,83,o),
(378,-4,cs),
(377,-8,o),
(333,34,o),
(221,-130,c),
(231,-139,l),
(356,4,o),
(368,-60,o),
(370,-68,cs),
(372,-78,o),
(376,-89,o),
(380,-97,cs),
(386,-112,o),
(401,-127,o),
(408,-127,cs),
(416,-127,o),
(423,-115,o),
(420,-73,cs),
(413,86,o),
(408,486,o),
(416,610,cs),
(420,678,o),
(431,684,o),
(444,684,cs),
(458,684,o),
(471,692,o),
(471,698,cs),
(471,709,o),
(465,727,o),
(452,738,cs),
(442,746,o),
(406,776,o),
(320,810,c)
);
},
{
closed = 1;
nodes = (
(518,698,l),
(533,689,o),
(542,677,o),
(533,666,cs),
(485,596,o),
(321,520,o),
(196,487,c),
(202,476,l),
(389,510,o),
(464,570,o),
(545,612,cs),
(561,620,o),
(597,631,o),
(611,631,cs),
(624,631,o),
(634,646,o),
(618,667,cs),
(600,689,o),
(550,706,o),
(530,709,c)
);
},
{
closed = 1;
nodes = (
(436,478,cs),
(436,486,o),
(418,497,o),
(401,510,c),
(357,490,o),
(276,437,o),
(276,401,cs),
(276,359,o),
(363,350,o),
(452,301,cs),
(530,258,o),
(558,228,o),
(555,186,cs),
(552,155,o),
(500,113,o),
(414,108,cs),
(296,100,o),
(152,14,o),
(189,-86,c),
(203,-83,l),
(203,-1,o),
(281,61,o),
(389,66,cs),
(477,70,o),
(554,65,o),
(598,121,cs),
(666,212,o),
(563,266,o),
(483,307,cs),
(357,371,o),
(304,378,o),
(304,407,cs),
(304,421,o),
(329,449,o),
(365,462,cs),
(386,469,o),
(404,463,o),
(428,463,cs),
(432,463,o),
(436,469,o)
);
}
);
width = 800;
}
);
tags = (
liga
);
},
{
color = 2;
glyphname = "a_o-hira.full";
lastChange = "2024-01-14 22:25:06 +0000";
layers = (
{
backgroundImage = {
imagePath = "images/lig_あぉ.png";
pos = (107,-244);
scale = (1.44,1.44);
};
hints = (
{
origin = (0,3);
place = (386, 34);
type = Stem;
}
);
layerId = m01;
shapes = (
{
closed = 1;
nodes = (
(312,802,l),
(338,769,o),
(386,718,o),
(386,650,cs),
(386,504,o),
(390,83,o),
(378,-4,cs),
(377,-8,o),
(333,34,o),
(221,-130,c),
(231,-139,l),
(356,4,o),
(368,-60,o),
(370,-68,cs),
(372,-78,o),
(376,-89,o),
(380,-97,cs),
(386,-112,o),
(401,-127,o),
(408,-127,cs),
(416,-127,o),
(423,-115,o),
(420,-73,cs),
(413,86,o),
(408,486,o),
(416,610,cs),
(420,678,o),
(431,684,o),
(444,684,cs),
(458,684,o),
(471,692,o),
(471,698,cs),
(471,709,o),
(465,727,o),
(452,738,cs),
(442,746,o),
(406,776,o),
(320,810,c)
);
},
{
closed = 1;
nodes = (
(518,698,l),
(533,689,o),
(542,677,o),
(533,666,cs),
(485,596,o),
(321,520,o),
(196,487,c),
(202,476,l),
(389,510,o),
(464,570,o),
(545,612,cs),
(561,620,o),
(597,631,o),
(611,631,cs),
(624,631,o),
(634,646,o),
(618,667,cs),
(600,689,o),
(550,706,o),
(530,709,c)
);
},
{
closed = 1;
nodes = (
(226,426,o),
(213,407,o),
(208,397,cs),
(190,361,o),
(234,307,o),
(268,307,cs),
(287,307,o),
(298,344,o),
(293,346,cs),
(286,348,o),
(279,352,o),
(275,358,cs),
(272,364,o),
(275,385,o),
(284,397,cs),
(300,420,o),
(341,472,o),
(392,472,cs),
(442,472,o),
(478,418,o),
(490,377,cs),
(504,326,o),
(480,241,o),
(480,181,cs),
(480,120,o),
(516,47,o),
(621,47,cs),
(729,47,o),
(822,157,o),
(822,205,c),
(812,216,l),
(802,172,o),
(724,103,o),
(659,103,cs),
(572,103,o),
(538,164,o),
(543,256,cs),
(550,391,o),
(490,494,o),
(381,494,cs),
(318,494,o),
(286,438,o),
(251,428,cs),
(246,427,o),
(237,426,o),
(232,426,cs)
);
}
);
width = 800;
}
);
tags = (
liga
);
},
{
color = 2;
glyphname = "i_a-hira.full";
lastChange = "2024-01-14 22:25:16 +0000";
layers = (
{
backgroundImage = {
imagePath = "images/lig_いぁ.png";
pos = (16,-264);
scale = (1.44,1.44);
};
hints = (
{
origin = (0,3);
place = (384, 36);
type = Stem;
}
);
layerId = m01;
shapes = (
{
closed = 1;
nodes = (
(315,793,l),
(336,780,o),
(374,742,o),
(384,674,cs),
(398,594,o),
(388,95,o),
(386,49,cs),
(383,-4,o),
(377,-14,o),
(370,-24,cs),
(366,-28,o),
(317,10,o),
(222,-146,c),
(238,-156,l),
(322,-30,o),
(362,-52,o),
(364,-62,cs),
(369,-82,o),
(383,-102,o),
(404,-122,cs),
(414,-132,o),
(450,-127,o),
(450,-112,cs),
(450,-101,o),
(444,-80,o),
(432,-65,cs),
(425,-55,o),
(418,-30,o),
(414,47,cs),
(410,143,o),
(419,514,o),
(425,634,cs),
(428,686,o),
(449,696,o),
(460,697,cs),
(471,698,o),
(483,704,o),
(483,718,cs),
(483,726,o),
(478,737,o),
(471,743,cs),
(455,755,o),
(413,781,o),
(333,809,c)
);
},
{
closed = 1;
nodes = (
(573,599,o),
(518,568,o),
(494,518,cs),
(442,412,o),
(483,336,o),
(537,290,cs),
(554,276,o),
(552,269,o),
(534,242,cs),
(476,157,o),
(276,55,o),
(155,28,c),
(161,10,l),
(332,42,o),
(503,121,o),
(563,167,cs),
(597,192,o),
(617,180,o),
(629,180,cs),
(641,180,o),
(657,193,o),
(657,216,cs),
(657,230,o),
(614,295,o),
(596,295,cs),
(573,295,o),
(515,346,o),
(520,415,cs),
(525,488,o),
(556,511,o),
(576,522,cs),
(604,538,o),
(617,499,o),
(634,499,cs),
(651,499,o),
(670,517,o),
(670,540,cs),
(670,566,o),
(586,653,o),
(581,634,cs)
);
}
);
width = 800;
}
);
tags = (
liga
);
},
{
color = 2;
glyphname = "i_i-hira.full";
lastChange = "2024-01-14 22:25:30 +0000";
layers = (
{
backgroundImage = {
imagePath = "images/lig_いぃ.png";
pos = (21,-246);
scale = (1.44,1.44);
};
hints = (
{
origin = (0,3);
place = (384, 36);
type = Stem;
}
);
layerId = m01;
shapes = (
{
closed = 1;
nodes = (
(315,793,l),
(336,780,o),
(374,742,o),
(384,674,cs),
(398,594,o),
(388,95,o),
(386,49,cs),
(383,-4,o),
(377,-14,o),
(370,-24,cs),
(366,-28,o),
(317,10,o),
(222,-146,c),
(238,-156,l),
(322,-30,o),
(362,-52,o),
(364,-62,cs),
(369,-82,o),
(383,-102,o),
(404,-122,cs),
(414,-132,o),
(450,-127,o),
(450,-112,cs),
(450,-101,o),
(444,-80,o),
(432,-65,cs),
(425,-55,o),
(418,-30,o),
(414,47,cs),
(410,143,o),
(419,514,o),
(425,634,cs),
(428,686,o),
(449,696,o),
(460,697,cs),
(471,698,o),
(483,704,o),
(483,718,cs),
(483,726,o),
(478,737,o),
(471,743,cs),
(455,755,o),
(413,781,o),
(333,809,c)
);
},
{
closed = 1;
nodes = (
(545,630,o),
(539,598,o),
(530,587,cs),
(504,556,o),
(472,504,o),
(472,413,cs),
(472,337,o),
(492,306,o),
(562,246,cs),
(570,239,o),
(578,234,o),
(575,224,cs),
(570,200,o),
(560,182,o),
(560,143,cs),
(560,65,o),
(664,-2,o),
(714,-1,c),
(720,12,l),
(650,28,o),
(600,103,o),
(600,140,cs),
(600,198,o),
(638,205,o),
(648,205,cs),
(659,205,o),
(670,238,o),
(668,246,cs),
(664,259,o),
(598,253,o),
(579,262,cs),
(534,282,o),
(502,338,o),
(502,389,cs),
(502,522,o),
(599,534,o),
(620,534,cs),
(632,534,o),
(646,548,o),
(646,560,cs),
(646,572,o),
(572,630,o),
(550,630,cs)
);
}
);
width = 800;
}
);
tags = (
liga
);
},
{
color = 2;
glyphname = "i_u-hira.full";
lastChange = "2024-01-14 22:25:36 +0000";
layers = (
{
backgroundImage = {
imagePath = "images/lig_いぅ.png";
locked = 1;
pos = (15,-260);
scale = (1.44,1.44);
};
hints = (
{
origin = (0,3);
place = (384, 36);
type = Stem;
}
);
layerId = m01;
shapes = (
{
closed = 1;
nodes = (
(315,781,l),
(336,768,o),
(374,730,o),
(384,662,cs),
(398,582,o),
(388,83,o),
(386,37,cs),
(383,-16,o),
(377,-26,o),
(370,-36,cs),
(366,-40,o),
(317,-2,o),
(222,-158,c),
(238,-168,l),
(322,-42,o),
(362,-64,o),
(364,-74,cs),
(369,-94,o),
(383,-114,o),
(404,-134,cs),
(414,-144,o),
(450,-139,o),
(450,-124,cs),
(450,-113,o),
(444,-92,o),
(432,-77,cs),
(425,-67,o),
(418,-42,o),
(414,35,cs),
(410,131,o),
(419,502,o),
(425,622,cs),
(428,674,o),
(449,684,o),
(460,685,cs),
(471,686,o),
(483,692,o),
(483,706,cs),
(483,714,o),
(478,725,o),
(471,731,cs),
(455,743,o),
(413,769,o),
(333,797,c)
);
},
{
closed = 1;
nodes = (
(570,556,o),
(574,530,o),
(562,516,cs),
(549,500,o),
(489,448,o),
(476,386,cs),
(440,222,o),
(611,112,o),
(750,124,c),
(754,137,l),
(656,149,o),
(585,182,o),
(539,263,cs),
(494,347,o),
(539,439,o),
(582,445,cs),
(606,449,o),
(615,431,o),
(615,426,cs),
(615,422,o),
(626,414,o),
(645,414,cs),
(656,414,o),
(671,430,o),
(671,440,cs),
(671,458,o),
(641,532,o),
(582,552,cs)
);
},
{
closed = 1;
nodes = (
(226,142,o),
(226,130,cs),
(226,95,o),
(272,44,o),
(299,44,cs),
(315,44,o),
(328,83,o),
(376,101,cs),
(417,116,o),
(586,178,o),
(710,238,c),
(704,250,l),
(636,224,o),
(384,142,o),
(320,132,cs),
(305,130,o),
(290,144,o),
(270,176,cs),
(258,196,o)
);
}
);
width = 800;
}
);
tags = (
liga
);
},
{
color = 2;
glyphname = "i_e-hira.full";
lastChange = "2024-01-14 22:25:44 +0000";
layers = (
{
backgroundImage = {
imagePath = "images/lig_いぇ.png";
pos = (26,-271);
scale = (1.44,1.44);
};
hints = (
{
origin = (0,3);
place = (384, 36);
type = Stem;
}
);
layerId = m01;
shapes = (
{
closed = 1;
nodes = (
(315,781,l),
(336,768,o),
(374,730,o),
(384,662,cs),
(398,582,o),
(388,83,o),
(386,37,cs),
(383,-16,o),
(377,-26,o),
(370,-36,cs),
(366,-40,o),
(317,-2,o),
(222,-158,c),
(238,-168,l),
(322,-42,o),
(362,-64,o),
(364,-74,cs),
(369,-94,o),
(383,-114,o),
(404,-134,cs),
(414,-144,o),
(450,-139,o),
(450,-124,cs),
(450,-113,o),
(444,-92,o),
(432,-77,cs),
(425,-67,o),
(418,-42,o),
(414,35,cs),
(410,131,o),
(419,502,o),
(425,622,cs),
(428,674,o),
(449,684,o),
(460,685,cs),
(471,686,o),
(483,692,o),
(483,706,cs),
(483,714,o),
(478,725,o),
(471,731,cs),
(455,743,o),
(413,769,o),
(333,797,c)
);
},
{
closed = 1;
nodes = (
(585,679,o),
(586,637,o),
(573,625,cs),
(563,616,o),
(510,570,o),
(494,526,cs),
(477,480,o),
(471,413,o),
(515,353,cs),
(561,292,o),
(584,203,o),
(515,176,cs),
(450,151,o),
(178,90,o),
(183,-78,c),
(197,-83,l),
(215,49,o),
(390,115,o),
(488,107,cs),
(640,94,o),
(657,234,o),
(581,322,cs),
(480,438,o),
(525,479,o),
(556,524,cs),
(596,582,o),
(623,535,o),
(640,535,cs),
(657,535,o),
(675,544,o),
(675,564,cs),
(675,584,o),
(634,632,o),
(598,666,cs)
);
}
);
width = 800;
}
);
tags = (
liga
);
},
{
color = 2;
glyphname = "i_o-hira.full";
lastChange = "2024-01-14 22:25:52 +0000";
layers = (
{
backgroundImage = {
imagePath = "images/lig_いぉ.png";
pos = (26,-276);
scale = (1.44,1.44);
};
hints = (
{
origin = (0,3);
place = (384, 36);
type = Stem;
}
);
layerId = m01;
shapes = (
{
closed = 1;
nodes = (
(315,781,l),
(336,768,o),
(374,730,o),
(384,662,cs),
(398,582,o),
(388,83,o),
(386,37,cs),
(383,-16,o),
(377,-26,o),
(370,-36,cs),
(366,-40,o),
(317,-2,o),
(222,-158,c),
(238,-168,l),
(322,-42,o),
(362,-64,o),
(364,-74,cs),
(369,-94,o),
(383,-114,o),
(404,-134,cs),
(414,-144,o),
(450,-139,o),
(450,-124,cs),
(450,-113,o),
(444,-92,o),
(432,-77,cs),
(425,-67,o),
(418,-42,o),
(414,35,cs),
(410,131,o),
(419,502,o),
(425,622,cs),
(428,674,o),
(449,684,o),
(460,685,cs),
(471,686,o),
(483,692,o),
(483,706,cs),
(483,714,o),
(478,725,o),
(471,731,cs),
(455,743,o),
(413,769,o),
(333,797,c)
);
},
{
closed = 1;
nodes = (
(578,656,o),
(567,630,o),
(558,622,cs),
(544,608,o),
(504,598,o),
(482,541,cs),
(460,487,o),
(497,424,o),
(548,395,c),
(473,383,o),
(336,328,o),
(258,251,cs),
(246,239,o),
(233,242,o),
(222,251,cs),
(216,256,o),
(214,251,o),
(214,221,cs),
(214,205,o),
(232,157,o),
(281,157,cs),
(292,157,o),
(300,166,o),
(300,176,cs),
(300,194,o),
(270,205,o),
(291,232,cs),
(306,251,o),
(336,296,o),
(399,296,cs),
(449,296,o),
(488,244,o),
(497,209,cs),
(510,158,o),
(488,102,o),
(488,60,cs),
(488,7,o),
(524,-64,o),
(628,-64,cs),
(736,-64,o),
(818,41,o),
(818,92,c),
(807,101,l),
(788,58,o),
(706,-19,o),
(657,-19,cs),
(584,-19,o),
(550,37,o),
(550,115,cs),
(550,209,o),
(509,298,o),
(423,317,cs),
(414,318,o),
(414,323,o),
(423,326,cs),
(602,408,o),
(626,353,o),
(639,353,cs),
(652,353,o),
(658,355,o),
(658,370,cs),
(658,374,o),
(634,401,o),
(618,401,cs),
(582,401,o),
(573,403,o),
(561,414,cs),
(534,439,o),
(510,482,o),
(537,529,cs),
(572,589,o),
(593,556,o),
(610,556,cs),
(626,556,o),
(650,565,o),
(650,580,cs),
(650,589,o),
(632,612,o),
(586,649,cs)
);
}
);
width = 800;
}
);
tags = (
liga
);
},
{
color = 2;
glyphname = "u_a-hira.full";
lastChange = "2024-01-14 22:26:02 +0000";
layers = (
{
backgroundImage = {
imagePath = "images/lig_うぁ.png";
pos = (18,-258);
scale = (1.44,1.44);
};
hints = (
{
origin = (0,3);
target = (0,34);
type = Stem;
}
);
layerId = m01;
shapes = (
{
closed = 1;
nodes = (
(344,791,l),
(357,767,o),
(376,733,o),
(378,679,cs),
(386,520,o),
(384,121,o),
(378,20,cs),
(377,6,o),
(377,-4,o),
(376,-11,cs),
(374,-32,o),
(290,-4,o),
(214,-158,c),
(226,-168,l),
(280,-85,o),
(352,-52,o),
(358,-68,cs),
(368,-97,o),
(384,-113,o),
(389,-119,cs),
(402,-133,o),
(417,-131,o),
(423,-131,cs),
(429,-131,o),
(446,-122,o),
(446,-98,cs),
(446,-89,o),
(435,-77,o),
(430,-64,cs),
(425,-50,o),
(423,-16,o),
(418,79,cs),
(410,239,o),
(412,520,o),
(416,610,cs),
(417,648,o),
(420,662,o),
(424,665,cs),
(428,667,o),
(456,664,o),
(467,664,cs),
(478,664,o),
(486,673,o),
(486,683,cs),
(486,698,o),
(483,708,o),
(473,721,cs),
(461,738,o),
(428,763,o),
(356,800,c)
);
},
{
closed = 1;
nodes = (
(222,487,o),
(222,475,cs),
(222,440,o),
(268,395,o),
(296,395,cs),
(311,395,o),
(317,428,o),
(363,450,cs),
(428,480,o),
(569,528,o),
(700,583,c),
(694,595,l),
(627,576,o),
(422,512,o),
(316,484,cs),
(302,480,o),
(286,490,o),
(267,522,cs),
(255,541,o)
);
},
{
closed = 1;
nodes = (
(486,366,l),
(504,353,o),
(514,337,o),
(504,323,cs),
(453,242,o),
(260,137,o),
(107,98,c),
(113,84,l),
(312,116,o),
(410,181,o),
(501,236,cs),
(519,247,o),
(552,253,o),
(569,253,cs),
(584,253,o),
(593,272,o),
(593,299,cs),
(593,329,o),
(552,360,o),
(500,380,c)
);
}
);
width = 800;
}
);
tags = (
liga
);
},
{
color = 2;
glyphname = "u_i-hira.full";
lastChange = "2024-01-14 22:26:11 +0000";
layers = (
{
backgroundImage = {
imagePath = "images/lig_うぃ.png";
pos = (18,-247);
scale = (1.44,1.44);
};
layerId = m01;
shapes = (
{
closed = 1;
nodes = (
(344,791,l),
(357,767,o),
(376,733,o),
(378,679,cs),
(386,520,o),
(384,121,o),
(378,20,cs),
(377,6,o),
(377,-4,o),
(376,-11,cs),
(374,-32,o),
(290,-4,o),
(214,-158,c),
(226,-168,l),
(280,-85,o),
(352,-52,o),
(358,-68,cs),
(368,-97,o),
(384,-113,o),
(389,-119,cs),
(402,-133,o),
(417,-131,o),
(423,-131,cs),
(429,-131,o),
(446,-122,o),
(446,-98,cs),
(446,-89,o),
(435,-77,o),
(430,-64,cs),
(425,-50,o),
(423,-16,o),
(418,79,cs),
(410,239,o),
(412,520,o),
(416,610,cs),
(417,648,o),
(420,662,o),
(424,665,cs),
(428,667,o),
(456,664,o),
(467,664,cs),
(478,664,o),
(486,673,o),
(486,683,cs),
(486,698,o),
(483,708,o),
(473,721,cs),
(461,738,o),
(428,763,o),
(356,800,c)
);
},
{
closed = 1;
nodes = (
(255,541,o),
(222,487,o),
(222,475,cs),
(222,440,o),
(268,395,o),
(296,395,cs),
(311,395,o),
(317,428,o),
(363,450,cs),
(389,462,o),
(532,522,o),
(510,499,cs),
(488,475,o),
(456,437,o),
(443,376,cs),
(395,163,o),
(622,6,o),
(761,24,c),
(765,37,l),
(641,49,o),
(538,131,o),
(504,216,cs),
(456,338,o),
(510,424,o),
(543,454,cs),
(557,467,o),
(579,467,o),
(618,467,cs),
(629,467,o),
(641,478,o),
(641,487,cs),
(641,499,o),
(579,560,o),
(555,560,cs),
(549,560,o),
(540,548,o),
(525,542,cs),
(447,514,o),
(375,499,o),
(316,484,cs),
(302,480,o),
(286,490,o),
(267,522,cs)
);
}
);
width = 800;
}
);
tags = (
liga
);
},
{
color = 2;
glyphname = "u_u-hira.full";
lastChange = "2024-01-14 22:26:20 +0000";
layers = (
{
backgroundImage = {
imagePath = "images/lig_うぅ.png";
pos = (23,-257);
scale = (1.44,1.44);
};
layerId = m01;
shapes = (
{
closed = 1;
nodes = (
(344,791,l),
(357,767,o),
(376,733,o),
(378,679,cs),
(386,520,o),
(384,121,o),
(378,20,cs),
(377,6,o),
(377,-4,o),
(376,-11,cs),
(374,-32,o),
(290,-4,o),
(214,-158,c),
(226,-168,l),
(280,-85,o),
(352,-52,o),
(358,-68,cs),
(368,-97,o),
(384,-113,o),
(389,-119,cs),
(402,-133,o),
(417,-131,o),
(423,-131,cs),
(429,-131,o),
(446,-122,o),
(446,-98,cs),
(446,-89,o),
(435,-77,o),
(430,-64,cs),
(425,-50,o),
(423,-16,o),
(418,79,cs),
(410,239,o),
(412,520,o),
(416,610,cs),
(417,648,o),
(420,662,o),
(424,665,cs),
(428,667,o),
(456,664,o),
(467,664,cs),
(478,664,o),
(486,673,o),
(486,683,cs),
(486,698,o),
(483,708,o),
(473,721,cs),
(461,738,o),
(428,763,o),
(356,800,c)
);
},
{
closed = 1;
nodes = (
(202,492,o),
(170,438,o),
(170,426,cs),
(170,391,o),
(215,346,o),
(243,346,cs),
(258,346,o),
(263,383,o),
(310,401,cs),
(375,426,o),
(516,469,o),
(647,524,c),
(641,536,l),
(574,517,o),
(369,458,o),
(263,430,cs),
(249,426,o),
(233,440,o),
(214,473,cs)
);
},
{
closed = 1;
nodes = (
(309,362,o),
(284,316,o),
(284,306,cs),
(284,276,o),
(320,238,o),
(342,238,cs),
(356,238,o),
(358,265,o),
(396,281,cs),
(432,295,o),
(492,325,o),
(561,361,c),
(552,376,l),
(498,355,o),
(443,334,o),
(358,310,cs),
(347,306,o),
(334,318,o),
(318,347,cs)
);
}
);
width = 800;
}
);
tags = (
liga
);
},
{
color = 2;
glyphname = "u_e-hira.full";
lastChange = "2024-01-14 22:26:26 +0000";
layers = (
{
backgroundImage = {
imagePath = "images/lig_うぇ.png";
pos = (20,-266);
scale = (1.44,1.44);
};
layerId = m01;
shapes = (
{
closed = 1;
nodes = (
(344,791,l),
(357,767,o),
(376,733,o),
(378,679,cs),
(386,520,o),
(384,121,o),
(378,20,cs),
(377,6,o),
(377,-4,o),
(376,-11,cs),
(374,-32,o),
(290,-4,o),
(214,-158,c),
(226,-168,l),
(280,-85,o),
(352,-52,o),
(358,-68,cs),
(368,-97,o),
(384,-113,o),
(389,-119,cs),
(402,-133,o),
(417,-131,o),
(423,-131,cs),
(429,-131,o),
(446,-122,o),
(446,-98,cs),
(446,-89,o),
(435,-77,o),
(430,-64,cs),
(425,-50,o),
(423,-16,o),
(418,79,cs),
(410,239,o),
(412,520,o),
(416,610,cs),
(417,648,o),
(420,662,o),
(424,665,cs),
(428,667,o),
(456,664,o),
(467,664,cs),
(478,664,o),
(486,673,o),
(486,683,cs),
(486,698,o),
(483,708,o),
(473,721,cs),
(461,738,o),
(428,763,o),
(356,800,c)
);
},
{
closed = 1;
nodes = (
(255,606,o),
(222,552,o),
(222,540,cs),
(222,505,o),
(268,460,o),
(296,460,cs),
(311,460,o),
(317,493,o),
(363,515,cs),
(428,545,o),
(569,593,o),
(700,648,c),
(694,660,l),
(627,641,o),
(422,577,o),
(316,548,cs),
(302,545,o),
(286,554,o),
(267,587,cs)
);
},
{
closed = 1;
nodes = (
(426,436,cs),
(426,445,o),
(408,456,o),
(392,470,c),
(347,449,o),
(267,392,o),
(267,355,cs),
(267,310,o),
(353,301,o),
(442,250,cs),
(520,203,o),
(549,172,o),
(545,127,cs),
(543,94,o),
(476,66,o),
(404,61,cs),
(344,58,o),
(166,6,o),
(161,-106,c),
(176,-107,l),
(188,-36,o),
(305,20,o),
(389,24,cs),
(477,28,o),
(557,18,o),
(593,67,cs),
(642,136,o),
(554,212,o),
(473,256,cs),
(347,323,o),
(294,330,o),
(294,361,cs),
(294,377,o),
(320,401,o),
(356,415,cs),
(376,422,o),
(394,421,o),
(418,421,cs),
(423,421,o),
(426,427,o)
);
}
);
width = 800;
}
);
tags = (
liga
);
},
{
color = 2;
glyphname = "u_o-hira.full";
lastChange = "2024-01-14 22:26:33 +0000";
layers = (
{
backgroundImage = {
imagePath = "images/lig_うぉ.png";
pos = (21,-275);
scale = (1.44,1.44);
};
layerId = m01;
shapes = (
{
closed = 1;
nodes = (
(344,791,l),
(357,767,o),
(376,733,o),
(378,679,cs),
(386,520,o),
(384,121,o),
(378,20,cs),
(377,6,o),
(377,-4,o),
(376,-11,cs),
(374,-32,o),
(290,-4,o),
(214,-158,c),
(226,-168,l),
(280,-85,o),
(352,-52,o),
(358,-68,cs),
(368,-97,o),
(384,-113,o),
(389,-119,cs),
(402,-133,o),
(417,-131,o),
(423,-131,cs),
(429,-131,o),
(446,-122,o),
(446,-98,cs),
(446,-89,o),
(435,-77,o),
(430,-64,cs),
(425,-50,o),
(423,-16,o),
(418,79,cs),
(410,239,o),
(412,520,o),
(416,610,cs),
(417,648,o),
(420,662,o),
(424,665,cs),
(428,667,o),
(456,664,o),
(467,664,cs),
(478,664,o),
(486,673,o),
(486,683,cs),
(486,698,o),
(483,708,o),
(473,721,cs),
(461,738,o),
(428,763,o),
(356,800,c)
);
},
{
closed = 1;
nodes = (
(255,576,o),
(222,522,o),
(222,510,cs),
(222,475,o),
(268,430,o),
(296,430,cs),
(311,430,o),
(317,463,o),
(363,485,cs),
(418,510,o),
(522,548,o),
(634,593,c),
(629,611,l),
(538,583,o),
(398,541,o),
(316,518,cs),
(302,515,o),
(286,524,o),
(267,557,cs)
);
},
{
closed = 1;
nodes = (
(220,352,o),
(207,332,o),
(202,323,cs),
(184,287,o),
(228,233,o),
(262,233,cs),
(281,233,o),
(292,270,o),
(287,271,cs),
(280,274,o),
(273,277,o),
(269,283,cs),
(266,289,o),
(269,311,o),
(278,323,cs),
(294,346,o),
(335,397,o),
(386,397,cs),
(436,397,o),
(472,343,o),
(484,302,cs),
(498,252,o),
(474,167,o),
(474,107,cs),
(474,46,o),
(510,-28,o),
(615,-28,cs),
(723,-28,o),
(816,83,o),
(816,131,c),
(806,142,l),
(796,97,o),
(718,29,o),
(653,29,cs),
(566,29,o),
(532,90,o),
(537,181,cs),
(544,317,o),
(484,420,o),
(375,420,cs),
(312,420,o),
(280,364,o),
(245,354,cs),
(240,353,o),
(231,352,o),
(226,352,cs)
);
}
);
width = 800;
}
);
tags = (
liga
);
},
{
color = 2;
glyphname = "e_a-hira.full";
lastChange = "2024-01-14 22:26:42 +0000";
layers = (
{
backgroundImage = {
imagePath = "images/lig_えぁ.png";
pos = (30,-230);
scale = (1.44,1.44);
};
hints = (
{
origin = (0,3);
target = (0,28);
type = Stem;
}
);
layerId = m01;
shapes = (
{
closed = 1;
nodes = (
(333,799,l),
(350,785,o),
(369,763,o),
(380,695,cs),
(387,646,o),
(389,248,o),
(389,155,cs),
(389,38,o),
(392,-7,o),
(384,-10,cs),
(377,-12,o),
(317,44,o),
(221,-128,c),
(234,-137,l),
(344,25,o),
(378,-80,o),
(389,-95,cs),
(400,-109,o),
(411,-130,o),
(424,-130,cs),
(428,-130,o),
(437,-119,o),
(437,-106,cs),
(437,-89,o),
(417,-65,o),
(418,-29,cs),
(423,114,o),
(411,612,o),
(416,644,cs),
(420,677,o),
(440,686,o),
(446,686,cs),
(452,686,o),
(472,690,o),
(472,703,cs),
(472,716,o),
(472,740,o),
(459,755,cs),
(434,780,o),
(387,805,o),
(344,810,c)
);
},
{
closed = 1;
nodes = (
(392,710,l),
(347,689,o),
(273,660,o),
(263,625,cs),
(246,568,o),
(336,577,o),
(442,548,cs),
(528,524,o),
(546,493,o),
(544,458,cs),
(542,422,o),
(485,402,o),
(406,376,cs),
(302,341,o),
(152,242,o),
(161,100,c),
(176,98,l),
(184,218,o),
(312,302,o),
(369,323,cs),
(522,382,o),
(568,341,o),
(602,419,cs),
(621,464,o),
(569,532,o),
(473,559,cs),
(359,592,o),
(284,592,o),
(296,620,cs),
(309,653,o),
(376,665,o),
(406,665,c)
);
},
{
closed = 1;
nodes = (
(549,342,l),
(564,328,o),
(573,311,o),
(564,295,cs),
(516,196,o),
(352,84,o),
(227,38,c),
(233,23,l),
(420,71,o),
(508,156,o),
(590,216,cs),
(605,228,o),
(628,246,o),
(642,246,cs),
(656,246,o),
(665,266,o),
(650,296,cs),
(632,328,o),
(581,353,o),
(561,358,c)
);
}
);
width = 800;
}
);
tags = (
liga
);
},
{
color = 2;
glyphname = "e_i-hira.full";
lastChange = "2024-01-14 22:26:51 +0000";
layers = (
{
backgroundImage = {
imagePath = "images/lig_えぃ.png";
pos = (30,-224);
scale = (1.44,1.44);
};
layerId = m01;
shapes = (
{
closed = 1;
nodes = (
(333,799,l),
(350,785,o),
(369,763,o),
(380,695,cs),
(387,646,o),
(389,248,o),
(389,155,cs),
(389,38,o),
(392,-7,o),
(384,-10,cs),
(377,-12,o),
(317,44,o),
(221,-128,c),
(234,-137,l),
(344,25,o),
(378,-80,o),
(389,-95,cs),
(400,-109,o),
(411,-130,o),
(424,-130,cs),
(428,-130,o),
(437,-119,o),
(437,-106,cs),
(437,-89,o),
(417,-65,o),
(418,-29,cs),
(423,114,o),
(411,612,o),
(416,644,cs),
(420,677,o),
(440,686,o),
(446,686,cs),
(452,686,o),
(472,690,o),
(472,703,cs),
(472,716,o),
(472,740,o),
(459,755,cs),
(434,780,o),
(387,805,o),
(344,810,c)
);
},
{
closed = 1;
nodes = (
(392,710,l),
(347,689,o),
(273,660,o),
(263,625,cs),
(246,568,o),
(336,577,o),
(442,548,cs),
(528,524,o),
(546,493,o),
(544,458,cs),
(542,422,o),
(485,402,o),
(406,376,cs),
(302,341,o),
(152,242,o),
(161,100,c),
(176,98,l),
(184,218,o),
(312,302,o),
(369,323,cs),
(522,382,o),
(568,341,o),
(602,419,cs),
(621,464,o),
(569,532,o),
(473,559,cs),
(359,592,o),
(284,592,o),
(296,620,cs),
(309,653,o),
(376,665,o),
(406,665,c)
);
},
{
closed = 1;
nodes = (
(520,338,o),
(524,316,o),
(513,304,cs),
(501,289,o),
(444,242,o),
(434,188,cs),
(400,44,o),
(558,-53,o),
(686,-42,c),
(689,-28,l),
(598,-17,o),
(533,10,o),
(492,80,cs),
(449,154,o),
(492,235,o),
(531,241,cs),
(545,242,o),
(563,232,o),
(560,227,cs),
(556,222,o),
(576,218,o),
(584,218,cs),
(593,218,o),
(604,230,o),
(604,239,cs),
(604,252,o),
(586,317,o),
(531,335,cs)
);
}
);
width = 800;
}
);
tags = (
liga
);
},
{
color = 2;
glyphname = "e_u-hira.full";
lastChange = "2024-01-14 22:26:59 +0000";
layers = (
{
backgroundImage = {
imagePath = "images/lig_えぅ.png";
pos = (33,-229);
scale = (1.44,1.44);
};
layerId = m01;
shapes = (
{
closed = 1;
nodes = (
(333,799,l),
(350,785,o),
(369,763,o),
(380,695,cs),
(387,646,o),
(389,248,o),
(389,155,cs),
(389,38,o),
(392,-7,o),
(384,-10,cs),
(377,-12,o),
(317,44,o),
(221,-128,c),
(234,-137,l),
(344,25,o),
(378,-80,o),
(389,-95,cs),
(400,-109,o),
(411,-130,o),
(424,-130,cs),
(428,-130,o),
(437,-119,o),
(437,-106,cs),
(437,-89,o),
(417,-65,o),
(418,-29,cs),
(423,114,o),
(411,612,o),
(416,644,cs),
(420,677,o),
(440,686,o),
(446,686,cs),
(452,686,o),
(472,690,o),
(472,703,cs),
(472,716,o),
(472,740,o),
(459,755,cs),
(434,780,o),
(387,805,o),
(344,810,c)
);
},
{
closed = 1;
nodes = (
(392,710,l),
(347,689,o),
(273,660,o),
(263,625,cs),
(246,568,o),
(336,577,o),
(442,548,cs),
(528,524,o),
(546,493,o),
(544,458,cs),
(542,422,o),
(485,402,o),
(406,376,cs),
(302,341,o),
(152,242,o),
(161,100,c),
(176,98,l),
(184,218,o),
(312,302,o),
(369,323,cs),
(522,382,o),
(568,341,o),
(602,419,cs),
(621,464,o),
(569,532,o),
(473,559,cs),
(359,592,o),
(284,592,o),
(296,620,cs),
(309,653,o),
(376,665,o),
(406,665,c)
);
},
{
closed = 1;
nodes = (
(256,200,o),
(256,190,cs),
(256,157,o),
(299,109,o),
(324,109,cs),
(340,109,o),
(352,150,o),
(372,158,cs),
(436,182,o),
(598,250,o),
(719,302,c),
(712,318,l),
(650,294,o),
(420,209,o),
(344,192,cs),
(330,190,o),
(316,203,o),
(298,234,cs),
(286,252,o)
);
}
);
width = 800;
}
);
tags = (
liga
);
},
{
color = 2;
glyphname = "e_e-hira.full";
lastChange = "2024-01-14 22:27:06 +0000";
layers = (
{
backgroundImage = {
imagePath = "images/lig_えぇ.png";
pos = (30,-239);
scale = (1.44,1.44);
};
layerId = m01;
shapes = (
{
closed = 1;
nodes = (
(333,799,l),
(350,785,o),
(369,763,o),
(380,695,cs),
(387,646,o),
(389,248,o),
(389,155,cs),
(389,38,o),
(392,-7,o),
(384,-10,cs),
(377,-12,o),
(317,44,o),
(221,-128,c),
(234,-137,l),
(344,25,o),
(378,-80,o),
(389,-95,cs),
(400,-109,o),
(411,-130,o),
(424,-130,cs),
(428,-130,o),
(437,-119,o),
(437,-106,cs),
(437,-89,o),
(417,-65,o),
(418,-29,cs),
(423,114,o),
(411,612,o),
(416,644,cs),
(420,677,o),
(440,686,o),
(446,686,cs),
(452,686,o),
(472,690,o),
(472,703,cs),
(472,716,o),
(472,740,o),
(459,755,cs),
(434,780,o),
(387,805,o),
(344,810,c)
);
},
{
closed = 1;
nodes = (
(384,683,l),
(344,666,o),
(266,620,o),
(266,577,cs),
(266,526,o),
(332,522,o),
(444,460,cs),
(515,420,o),
(557,384,o),
(552,332,cs),
(549,283,o),
(483,266,o),
(408,245,cs),
(315,217,o),
(154,172,o),
(174,44,c),
(189,49,l),
(189,146,o),
(320,191,o),
(399,210,cs),
(479,229,o),
(557,221,o),
(596,281,cs),
(656,373,o),
(515,446,o),
(459,478,cs),
(382,520,o),
(293,548,o),
(293,577,cs),
(293,611,o),
(364,641,o),
(405,636,c)
);
},
{
closed = 1;
nodes = (
(489,233,l),
(501,198,o),
(501,179,o),
(466,157,cs),
(418,127,o),
(236,115,o),
(251,-20,c),
(267,-17,l),
(267,86,o),
(382,86,o),
(454,97,cs),
(521,107,o),
(557,138,o),
(557,169,cs),
(557,193,o),
(538,202,o),
(501,239,c)
);
}
);
width = 800;
}
);
tags = (
liga
);
},
{
color = 2;
glyphname = "e_o-hira.full";
lastChange = "2024-01-14 22:27:13 +0000";
layers = (
{
backgroundImage = {
imagePath = "images/lig_えぉ.png";
pos = (30,-250);
scale = (1.44,1.44);
};
layerId = m01;
shapes = (
{
closed = 1;
nodes = (
(333,799,l),
(350,785,o),
(369,763,o),
(380,695,cs),
(387,646,o),
(389,248,o),
(389,155,cs),
(389,38,o),
(392,-7,o),
(384,-10,cs),
(377,-12,o),
(317,44,o),
(221,-128,c),
(234,-137,l),
(344,25,o),
(378,-80,o),
(389,-95,cs),
(400,-109,o),
(411,-130,o),
(424,-130,cs),
(428,-130,o),
(437,-119,o),
(437,-106,cs),
(437,-89,o),
(417,-65,o),
(418,-29,cs),
(423,114,o),
(411,612,o),
(416,644,cs),
(420,677,o),
(440,686,o),
(446,686,cs),
(452,686,o),
(472,690,o),
(472,703,cs),
(472,716,o),
(472,740,o),
(459,755,cs),
(434,780,o),
(387,805,o),
(344,810,c)
);
},
{
closed = 1;
nodes = (
(392,710,l),
(347,689,o),
(273,660,o),
(263,625,cs),
(246,568,o),
(336,577,o),
(442,548,cs),
(528,524,o),
(557,492,o),
(544,458,cs),
(520,396,o),
(392,407,o),
(236,275,cs),
(208,252,o),
(186,242,o),
(186,228,cs),
(186,205,o),
(224,175,o),
(246,175,cs),
(266,175,o),
(282,187,o),
(276,188,cs),
(261,191,o),
(242,205,o),
(263,235,cs),
(279,257,o),
(299,287,o),
(347,287,cs),
(395,287,o),
(452,271,o),
(465,242,cs),
(484,199,o),
(472,149,o),
(472,116,cs),
(472,60,o),
(502,-5,o),
(621,-5,cs),
(700,-5,o),
(756,53,o),
(778,112,c),
(767,119,l),
(734,67,o),
(681,34,o),
(627,34,cs),
(567,34,o),
(530,82,o),
(530,155,cs),
(530,236,o),
(473,295,o),
(408,305,cs),
(369,311,o),
(346,312,o),
(369,323,cs),
(514,389,o),
(568,341,o),
(602,419,cs),
(621,464,o),
(569,532,o),
(473,559,cs),
(359,592,o),
(284,592,o),
(296,620,cs),
(309,653,o),
(376,665,o),
(406,665,c)
);
}
);
width = 800;
}
);
tags = (
liga
);
},
{
color = 2;
glyphname = "o_a-hira.full";
lastChange = "2024-01-14 22:27:20 +0000";
layers = (
{
backgroundImage = {
imagePath = "images/lig_おぁ.png";
locked = 1;
pos = (-13,-244);
scale = (1.44,1.44);
};
hints = (
{
origin = (0,3);
target = (0,31);
type = Stem;
}
);
layerId = m01;
shapes = (
{
closed = 1;
nodes = (
(348,791,l),
(356,774,o),
(375,732,o),
(378,690,cs),
(388,600,o),
(383,49,o),
(382,24,cs),
(380,0,o),
(381,-18,o),
(375,-18,cs),
(370,-18,o),
(315,34,o),
(219,-145,c),
(236,-157,l),
(292,-71,o),
(345,-25,o),
(370,-79,cs),
(375,-90,o),
(375,-113,o),
(381,-120,cs),
(392,-133,o),
(398,-133,o),
(402,-133,cs),
(407,-133,o),
(422,-114,o),
(422,-101,cs),
(422,-88,o),
(412,-38,o),
(411,5,cs),
(410,48,o),
(410,551,o),
(413,642,cs),
(414,683,o),
(430,688,o),
(437,689,cs),
(446,690,o),
(456,698,o),
(456,707,cs),
(456,715,o),
(446,732,o),
(440,738,cs),
(431,746,o),
(412,779,o),
(364,805,c)
);
},
{
closed = 1;
nodes = (
(590,335,o),
(585,296,o),
(567,296,cs),
(526,296,o),
(526,332,o),
(526,385,cs),
(526,476,o),
(536,530,o),
(496,572,cs),
(466,605,o),
(429,636,o),
(372,636,cs),
(310,636,o),
(278,580,o),
(243,570,cs),
(238,569,o),
(228,568,o),
(224,568,cs),
(218,568,o),
(190,529,o),
(190,515,cs),
(190,502,o),
(225,468,o),
(255,468,cs),
(269,468,o),
(290,486,o),
(285,487,cs),
(258,496,o),
(262,520,o),
(275,539,cs),
(292,562,o),
(333,613,o),
(383,613,cs),
(420,613,o),
(465,569,o),
(479,532,cs),
(497,485,o),
(467,415,o),
(474,344,cs),
(477,312,o),
(494,276,o),
(545,276,cs),
(585,276,o),
(572,254,o),
(551,233,cs),
(510,191,o),
(368,65,o),
(200,2,c),
(208,-13,l),
(366,34,o),
(497,121,o),
(592,198,cs),
(611,214,o),
(635,221,o),
(652,221,cs),
(666,221,o),
(676,238,o),
(676,265,cs),
(677,284,o),
(636,323,o),
(600,332,cs)
);
}
);
width = 800;
}
);
tags = (
liga
);
},
{
color = 2;
glyphname = "o_i-hira.full";
lastChange = "2024-01-14 22:27:33 +0000";
layers = (
{
backgroundImage = {
imagePath = "images/lig_おぃ.png";
locked = 1;
pos = (-9,-239);
scale = (1.44,1.44);
};
layerId = m01;
shapes = (
{
closed = 1;
nodes = (
(348,791,l),
(356,774,o),
(375,732,o),
(378,690,cs),
(388,600,o),
(383,49,o),
(382,24,cs),
(380,0,o),
(381,-18,o),
(375,-18,cs),
(370,-18,o),
(315,34,o),
(219,-145,c),
(236,-157,l),
(292,-71,o),
(345,-25,o),
(370,-79,cs),
(375,-90,o),
(375,-113,o),
(381,-120,cs),
(392,-133,o),
(398,-133,o),
(402,-133,cs),
(407,-133,o),
(422,-114,o),
(422,-101,cs),
(422,-88,o),
(412,-38,o),
(411,5,cs),
(410,48,o),
(410,551,o),
(413,642,cs),
(414,683,o),
(430,688,o),
(437,689,cs),
(446,690,o),
(456,698,o),
(456,707,cs),
(456,715,o),
(446,732,o),
(440,738,cs),
(431,746,o),
(412,779,o),
(364,805,c)
);
},
{
closed = 1;
nodes = (
(593,348,o),
(590,306,o),
(572,305,cs),
(524,301,o),
(521,359,o),
(532,436,cs),
(551,556,o),
(482,636,o),
(372,636,cs),
(310,636,o),
(278,580,o),
(243,570,cs),
(238,569,o),
(228,568,o),
(224,568,cs),
(218,568,o),
(190,529,o),
(190,515,cs),
(190,502,o),
(225,468,o),
(255,468,cs),
(269,468,o),
(290,486,o),
(285,487,cs),
(258,496,o),
(262,520,o),
(275,539,cs),
(292,562,o),
(333,613,o),
(383,613,cs),
(434,613,o),
(476,559,o),
(482,518,cs),
(494,438,o),
(437,360,o),
(526,284,c),
(506,270,o),
(485,245,o),
(474,192,cs),
(438,28,o),
(610,-83,o),
(749,-71,c),
(753,-58,l),
(654,-46,o),
(584,-12,o),
(538,68,cs),
(492,152,o),
(538,245,o),
(581,251,cs),
(623,257,o),
(593,220,o),
(644,220,cs),
(651,220,o),
(664,228,o),
(664,246,cs),
(664,260,o),
(654,292,o),
(604,337,cs)
);
}
);
width = 800;
}
);
tags = (
liga
);
},
{
color = 2;
glyphname = "o_u-hira.full";
lastChange = "2024-01-14 22:27:42 +0000";
layers = (
{
backgroundImage = {
imagePath = "images/lig_おぅ.png";
pos = (-13,-236);
scale = (1.44,1.44);
};
layerId = m01;
shapes = (
{
closed = 1;
nodes = (
(348,791,l),
(356,774,o),
(375,732,o),
(378,690,cs),
(388,600,o),
(383,49,o),
(382,24,cs),
(380,0,o),
(381,-18,o),
(375,-18,cs),
(370,-18,o),
(310,49,o),
(214,-138,c),
(231,-150,l),
(309,-46,o),
(345,-25,o),
(370,-79,cs),
(375,-90,o),
(375,-113,o),
(381,-120,cs),
(392,-133,o),
(398,-133,o),
(402,-133,cs),
(407,-133,o),
(422,-114,o),
(422,-101,cs),
(422,-88,o),
(412,-38,o),
(411,5,cs),
(410,48,o),
(410,551,o),
(413,642,cs),
(414,683,o),
(430,688,o),
(437,689,cs),
(446,690,o),
(456,698,o),
(456,707,cs),
(456,715,o),
(446,732,o),
(440,738,cs),
(431,746,o),
(412,779,o),
(364,805,c)
);
},
{
closed = 1;
nodes = (
(218,568,o),
(204,548,o),
(200,539,cs),
(194,527,o),
(204,454,o),
(266,454,cs),
(285,454,o),
(290,486,o),
(285,487,cs),
(278,490,o),
(270,493,o),
(267,499,cs),
(263,505,o),
(267,527,o),
(275,539,cs),
(292,562,o),
(333,613,o),
(383,613,cs),
(434,613,o),
(470,559,o),
(482,518,cs),
(496,468,o),
(472,383,o),
(472,323,cs),
(472,262,o),
(508,188,o),
(612,188,cs),
(720,188,o),
(800,282,o),
(810,347,c),
(800,358,l),
(778,313,o),
(716,245,o),
(639,245,cs),
(563,245,o),
(530,306,o),
(534,397,cs),
(542,533,o),
(482,636,o),
(372,636,cs),
(310,636,o),
(278,580,o),
(243,570,cs),
(238,569,o),
(228,568,o),
(224,568,cs)
);
},
{
closed = 1;
nodes = (
(491,274,l),
(414,240,o),
(264,182,o),
(208,164,cs),
(195,161,o),
(177,167,o),
(160,196,cs),
(149,214,o),
(120,164,o),
(120,154,cs),
(120,122,o),
(161,78,o),
(186,78,cs),
(200,78,o),
(200,114,o),
(243,132,cs),
(304,158,o),
(434,216,o),
(500,253,c)
);
}
);
width = 800;
}
);
tags = (
liga
);
},
{
color = 2;
glyphname = "o_e-hira.full";
lastChange = "2024-01-14 22:27:52 +0000";
layers = (
{
backgroundImage = {
imagePath = "images/lig_おぇ.png";
locked = 1;
pos = (-9,-247);
scale = (1.44,1.44);
};
layerId = m01;
shapes = (
{
closed = 1;
nodes = (
(348,791,l),
(356,774,o),
(375,732,o),
(378,690,cs),
(388,600,o),
(383,49,o),
(382,24,cs),
(380,0,o),
(381,-18,o),
(375,-18,cs),
(370,-18,o),
(310,49,o),
(214,-138,c),
(231,-150,l),
(309,-46,o),
(345,-25,o),
(370,-79,cs),
(375,-90,o),
(375,-113,o),
(381,-120,cs),
(392,-133,o),
(398,-133,o),
(402,-133,cs),
(407,-133,o),
(422,-114,o),
(422,-101,cs),
(422,-88,o),
(412,-38,o),
(411,5,cs),
(410,48,o),
(410,551,o),
(413,642,cs),
(414,683,o),
(430,688,o),
(437,689,cs),
(446,690,o),
(456,698,o),
(456,707,cs),
(456,715,o),
(446,732,o),
(440,738,cs),
(431,746,o),
(412,779,o),
(364,805,c)
);
},
{
closed = 1;
nodes = (
(212,578,o),
(198,551,o),
(194,542,cs),
(188,533,o),
(200,481,o),
(261,481,cs),
(280,481,o),
(282,493,o),
(282,503,cs),
(282,510,o),
(275,514,o),
(272,526,cs),
(269,532,o),
(269,542,o),
(278,552,cs),
(294,572,o),
(333,616,o),
(383,616,cs),
(434,616,o),
(470,584,o),
(482,550,cs),
(496,506,o),
(472,457,o),
(472,397,cs),
(472,344,o),
(512,268,o),
(616,268,cs),
(724,268,o),
(774,318,o),
(796,383,c),
(785,391,l),
(756,354,o),
(711,316,o),
(642,316,cs),
(573,316,o),
(536,370,o),
(543,449,cs),
(555,572,o),
(482,642,o),
(372,642,cs),
(310,642,o),
(272,589,o),
(237,581,cs),
(232,580,o),
(222,578,o),
(218,578,cs)
);
},
{
closed = 1;
nodes = (
(430,488,cs),
(430,497,o),
(412,508,o),
(395,522,c),
(351,500,o),
(270,445,o),
(270,409,cs),
(270,364,o),
(357,354,o),
(446,302,cs),
(506,269,o),
(536,218,o),
(533,182,cs),
(531,149,o),
(486,132,o),
(402,107,cs),
(267,66,o),
(155,-18,o),
(170,-120,c),
(184,-116,l),
(194,-16,o),
(293,36,o),
(388,62,cs),
(519,98,o),
(550,86,o),
(586,142,cs),
(626,202,o),
(531,280,o),
(477,310,cs),
(351,376,o),
(298,384,o),
(298,414,cs),
(298,428,o),
(323,457,o),
(359,472,cs),
(380,479,o),
(398,473,o),
(422,473,cs),
(426,473,o),
(430,479,o)
);
}
);
width = 800;
}
);
tags = (
liga
);
},
{
color = 2;
glyphname = "o_o-hira.full";
lastChange = "2024-01-14 22:27:59 +0000";
layers = (
{
backgroundImage = {
imagePath = "images/lig_おぉ.png";
locked = 1;
pos = (-10,-257);
scale = (1.44,1.44);
};
layerId = m01;
shapes = (
{
closed = 1;
nodes = (
(348,791,l),
(356,774,o),
(375,732,o),
(378,690,cs),
(388,600,o),
(383,49,o),
(382,24,cs),
(380,0,o),
(381,-18,o),
(375,-18,cs),
(370,-18,o),
(310,49,o),
(214,-138,c),
(231,-150,l),
(309,-46,o),
(345,-25,o),
(370,-79,cs),
(375,-90,o),
(375,-113,o),
(381,-120,cs),
(392,-133,o),
(398,-133,o),
(402,-133,cs),
(407,-133,o),
(422,-114,o),
(422,-101,cs),
(422,-88,o),
(412,-38,o),
(411,5,cs),
(410,48,o),
(410,551,o),
(413,642,cs),
(414,683,o),
(430,688,o),
(437,689,cs),
(446,690,o),
(456,698,o),
(456,707,cs),
(456,715,o),
(446,732,o),
(440,738,cs),
(431,746,o),
(412,779,o),
(364,805,c)
);
},
{
closed = 1;
nodes = (
(218,508,o),
(204,488,o),
(200,479,cs),
(194,467,o),
(204,394,o),
(266,394,cs),
(285,394,o),
(290,426,o),
(285,427,cs),
(278,430,o),
(270,433,o),
(267,439,cs),
(263,445,o),
(267,467,o),
(275,479,cs),
(292,502,o),
(333,553,o),
(383,553,cs),
(434,553,o),
(470,499,o),
(482,458,cs),
(496,408,o),
(472,323,o),
(472,263,cs),
(472,202,o),
(508,128,o),
(612,128,cs),
(720,128,o),
(800,222,o),
(810,287,c),
(800,298,l),
(778,253,o),
(716,185,o),
(639,185,cs),
(563,185,o),
(530,246,o),
(534,337,cs),
(542,473,o),
(482,576,o),
(372,576,cs),
(310,576,o),
(278,520,o),
(243,510,cs),
(238,509,o),
(228,508,o),
(224,508,cs)
);
},
{
closed = 1;
nodes = (
(502,158,o),
(480,134,o),
(480,100,cs),
(480,54,o),
(527,14,o),
(572,14,cs),
(608,14,o),
(669,24,o),
(701,104,c),
(689,116,l),
(666,76,o),
(627,61,o),
(599,61,cs),
(546,61,o),
(514,127,o),
(557,150,c),
(528,173,l)
);
}
);
width = 800;
}
);
tags = (
liga
);
},
{
color = 9;
glyphname = "sa_bu_ra_i-hira.dlig.full";
lastChange = "2024-01-14 22:28:08 +0000";
layers = (
{
backgroundImage = {
imagePath = "images/dlig_さぶらい.png";
locked = 1;
pos = (-47,-200);
};
layerId = m01;
shapes = (
{
closed = 1;
nodes = (
(502,753,o),
(494,744,o),
(494,727,cs),
(494,710,o),
(527,685,o),
(516,658,cs),
(459,518,o),
(228,331,o),
(155,384,cs),
(101,424,o),
(320,521,o),
(401,521,cs),
(480,521,o),
(592,514,o),
(603,450,cs),
(616,377,o),
(483,313,o),
(406,278,cs),
(388,270,o),
(369,275,o),
(361,275,cs),
(348,275,o),
(341,241,o),
(341,208,cs),
(341,179,o),
(373,146,o),
(394,120,cs),
(404,108,o),
(364,116,o),
(344,44,cs),
(328,-15,o),
(346,-81,o),
(410,-121,c),
(421,-106,l),
(384,-81,o),
(364,-20,o),
(381,22,cs),
(393,51,o),
(426,86,o),
(451,86,cs),
(483,86,o),
(497,75,o),
(511,75,cs),
(519,75,o),
(537,78,o),
(537,88,cs),
(537,98,o),
(537,134,o),
(520,146,cs),
(506,156,o),
(451,160,o),
(410,192,cs),
(375,219,o),
(381,235,o),
(430,250,cs),
(499,270,o),
(580,315,o),
(608,349,cs),
(665,417,o),
(650,495,o),
(569,528,cs),
(515,550,o),
(464,549,o),
(415,549,cs),
(361,549,o),
(170,505,o),
(115,432,cs),
(80,387,o),
(101,330,o),
(159,321,cs),
(269,304,o),
(469,495,o),
(525,575,cs),
(562,629,o),
(581,616,o),
(598,616,cs),
(615,616,o),
(620,634,o),
(620,650,cs),
(620,666,o),
(611,704,o),
(513,748,cs)
);
}
);
width = 800;
}
);
tags = (
dlig
);
},
{
category = Letter;
color = 9;
glyphname = "digraphnari-hira.dlig.full";
lastChange = "2024-01-14 22:31:01 +0000";
layers = (
{
backgroundImage = {
imagePath = "images/dlig_なり.png";
locked = 1;
pos = (-9,-200);
};
layerId = m01;
shapes = (
{
closed = 1;
nodes = (
(160,524,o),
(121,452,o),
(127,418,cs),
(136,367,o),
(214,356,o),
(264,371,c),
(263,364,o),
(261,357,o),
(258,348,cs),
(233,285,o),
(172,186,o),
(48,125,c),
(54,114,l),
(188,150,o),
(257,259,o),
(287,319,cs),
(303,351,o),
(320,365,o),
(328,365,cs),
(334,365,o),
(349,375,o),
(349,384,cs),
(349,397,o),
(317,417,o),
(274,434,cs),
(262,439,o),
(261,418,o),
(261,408,cs),
(261,401,o),
(247,393,o),
(230,393,cs),
(204,393,o),
(170,405,o),
(168,427,cs),
(166,451,o),
(188,466,o),
(215,466,cs),
(223,466,o),
(245,467,o),
(245,475,cs),
(245,483,o),
(215,505,o),
(168,521,cs)
);
},
{
closed = 1;
nodes = (
(469,585,o),
(471,564,o),
(471,555,cs),
(471,546,o),
(508,536,o),
(511,515,cs),
(516,480,o),
(426,384,o),
(391,362,cs),
(373,350,o),
(367,355,o),
(359,355,cs),
(351,355,o),
(346,346,o),
(346,340,cs),
(346,334,o),
(377,332,o),
(450,241,cs),
(525,147,o),
(540,102,o),
(654,102,cs),
(720,102,o),
(769,108,o),
(791,118,c),
(800,138,l),
(730,138,o),
(617,175,o),
(553,218,cs),
(494,258,o),
(454,286,o),
(415,316,cs),
(403,325,o),
(392,331,o),
(408,339,cs),
(477,375,o),
(591,479,o),
(591,512,cs),
(591,527,o),
(558,555,o),
(479,582,cs)
);
},
{
closed = 1;
nodes = (
(129,300,l),
(165,284,o),
(203,271,o),
(220,251,cs),
(247,219,o),
(269,195,o),
(282,195,cs),
(302,195,o),
(324,200,o),
(324,222,cs),
(324,235,o),
(303,255,o),
(269,276,cs),
(247,290,o),
(198,305,o),
(136,316,c)
);
}
);
width = 800;
}
);
script = hana;
subCategory = Ligature;
tags = (
dlig
);
},
{
glyphname = zero.full;
lastChange = "2024-01-02 10:18:08 +0000";
layers = (
{
backgroundImage = {
imagePath = "images/０.png";
pos = (-31,-288);
scale = (1.44,1.44);
};
layerId = m01;
shapes = (
{
closed = 1;
nodes = (
(339,437,o),
(334,410,o),
(334,395,cs),
(334,379,o),
(359,366,o),
(353,344,cs),
(348,328,o),
(302,251,o),
(269,251,cs),
(240,251,o),
(222,269,o),
(222,314,cs),
(222,366,o),
(270,494,o),
(428,494,cs),
(536,494,o),
(578,426,o),
(570,356,cs),
(561,260,o),
(452,143,o),
(318,140,c),
(322,124,l),
(490,96,o),
(618,214,o),
(633,335,cs),
(642,410,o),
(600,521,o),
(447,521,cs),
(284,521,o),
(182,371,o),
(182,287,cs),
(182,254,o),
(202,202,o),
(251,202,cs),
(308,203,o),
(339,240,o),
(366,276,cs),
(393,310,o),
(416,295,o),
(428,295,cs),
(440,295,o),
(452,318,o),
(452,338,cs),
(452,353,o),
(414,380,o),
(348,430,cs)
);
}
);
width = 800;
}
);
unicode = 65296;
},
{
glyphname = one.full;
lastChange = "2024-01-04 09:05:42 +0000";
layers = (
{
backgroundImage = {
imagePath = "images/１.png";
locked = 1;
pos = (100,-288);
scale = (1.44,1.44);
};
layerId = m01;
shapes = (
{
closed = 1;
nodes = (
(425,722,o),
(434,674,o),
(429,664,cs),
(420,647,o),
(378,638,o),
(362,569,cs),
(344,492,o),
(377,456,o),
(377,318,cs),
(377,205,o),
(359,54,o),
(254,-71,c),
(266,-85,l),
(425,54,o),
(418,252,o),
(418,338,cs),
(418,438,o),
(400,480,o),
(410,521,cs),
(420,569,o),
(448,600,o),
(473,599,cs),
(498,598,o),
(526,588,o),
(537,588,cs),
(548,588,o),
(567,606,o),
(567,616,cs),
(567,646,o),
(538,672,o),
(514,682,cs),
(490,691,o),
(462,700,o),
(437,715,cs)
);
}
);
width = 800;
}
);
unicode = 65297;
},
{
glyphname = two.full;
lastChange = "2024-01-04 09:06:26 +0000";
layers = (
{
backgroundImage = {
imagePath = "images/２.png";
pos = (101,-175);
scale = (1.44,1.44);
};
layerId = m01;
shapes = (
{
closed = 1;
nodes = (
(507,489,o),
(512,456,o),
(519,432,cs),
(526,410,o),
(432,359,o),
(399,345,c),
(408,324,l),
(461,342,o),
(512,365,o),
(526,372,cs),
(546,383,o),
(576,381,o),
(585,381,cs),
(593,381,o),
(610,398,o),
(610,408,cs),
(610,414,o),
(569,466,o),
(518,485,cs)
);
},
{
ref = one.full;
}
);
width = 800;
}
);
unicode = 65298;
},
{
glyphname = three.full;
lastChange = "2024-01-02 10:15:06 +0000";
layers = (
{
backgroundImage = {
imagePath = "images/３.png";
pos = (95,-250);
scale = (1.44,1.44);
};
layerId = m01;
shapes = (
{
closed = 1;
nodes = (
(507,342,o),
(512,310,o),
(519,286,cs),
(526,263,o),
(433,228,o),
(399,214,c),
(404,188,l),
(457,200,o),
(506,218,o),
(520,226,cs),
(541,236,o),
(577,234,o),
(585,234,cs),
(594,234,o),
(610,251,o),
(610,262,cs),
(610,268,o),
(570,319,o),
(518,338,cs)
);
},
{
ref = two.full;
}
);
width = 800;
}
);
unicode = 65299;
},
{
glyphname = four.full;
lastChange = "2024-01-02 09:55:10 +0000";
layers = (
{
backgroundImage = {
imagePath = "images/４.png";
pos = (35,-288);
scale = (1.44,1.44);
};
layerId = m01;
shapes = (
{
closed = 1;
nodes = (
(246,533,o),
(243,506,o),
(243,497,cs),
(243,466,o),
(299,419,o),
(309,419,cs),
(332,419,o),
(346,433,o),
(346,443,cs),
(346,452,o),
(317,466,o),
(326,487,cs),
(332,503,o),
(368,569,o),
(406,569,cs),
(447,569,o),
(461,522,o),
(454,437,cs),
(446,335,o),
(474,292,o),
(508,248,cs),
(524,229,o),
(519,223,o),
(497,221,cs),
(454,216,o),
(346,167,o),
(303,112,c),
(320,97,l),
(368,154,o),
(471,178,o),
(526,178,cs),
(556,178,o),
(590,173,o),
(598,167,cs),
(614,156,o),
(639,148,o),
(651,148,cs),
(662,149,o),
(686,173,o),
(686,185,cs),
(686,197,o),
(635,204,o),
(594,229,cs),
(545,259,o),
(478,313,o),
(485,419,cs),
(494,536,o),
(472,596,o),
(395,596,cs),
(340,596,o),
(300,548,o),
(288,528,cs),
(276,508,o),
(260,508,o),
(251,523,cs)
);
}
);
width = 800;
}
);
unicode = 65300;
},
{
glyphname = five.full;
lastChange = "2024-01-02 10:17:41 +0000";
layers = (
{
backgroundImage = {
imagePath = "images/５.png";
pos = (51,-288);
scale = (1.44,1.44);
};
layerId = m01;
shapes = (
{
closed = 1;
nodes = (
(275,578,o),
(269,559,o),
(269,547,cs),
(269,533,o),
(319,486,o),
(331,486,cs),
(352,486,o),
(376,530,o),
(443,574,cs),
(463,587,o),
(468,562,o),
(467,505,cs),
(466,422,o),
(462,398,o),
(463,353,cs),
(466,245,o),
(557,118,o),
(708,84,c),
(714,100,l),
(592,144,o),
(494,262,o),
(494,356,cs),
(493,446,o),
(498,494,o),
(509,547,cs),
(511,559,o),
(523,572,o),
(530,572,cs),
(538,572,o),
(542,588,o),
(542,592,cs),
(542,601,o),
(508,643,o),
(494,643,cs),
(481,643,o),
(456,618,o),
(449,610,cs),
(442,601,o),
(361,553,o),
(338,547,cs),
(316,541,o),
(296,552,o),
(280,572,cs)
);
},
{
closed = 1;
nodes = (
(424,433,o),
(416,419,o),
(420,407,cs),
(424,395,o),
(427,389,o),
(402,366,cs),
(316,284,o),
(242,181,o),
(242,144,cs),
(242,97,o),
(269,80,o),
(284,80,cs),
(302,80,o),
(317,108,o),
(330,121,cs),
(344,137,o),
(373,161,o),
(389,184,c),
(382,194,l),
(356,176,o),
(328,156,o),
(317,160,cs),
(304,164,o),
(292,188,o),
(320,224,cs),
(442,378,o),
(468,342,o),
(496,342,cs),
(510,342,o),
(523,343,o),
(523,353,cs),
(523,362,o),
(470,402,o),
(433,427,cs)
);
}
);
width = 800;
}
);
unicode = 65301;
},
{
glyphname = six.full;
lastChange = "2024-01-02 10:18:27 +0000";
layers = (
{
backgroundImage = {
imagePath = "images/６.png";
locked = 1;
pos = (0,-288);
scale = (1.44,1.44);
};
layerId = m01;
shapes = (
{
closed = 1;
nodes = (
(432,652,l),
(441,641,o),
(466,625,o),
(459,618,cs),
(452,611,o),
(408,588,o),
(376,542,cs),
(344,497,o),
(378,402,o),
(353,299,cs),
(341,248,o),
(314,215,o),
(298,204,cs),
(282,193,o),
(264,190,o),
(254,190,cs),
(243,190,o),
(237,145,o),
(237,128,cs),
(237,118,o),
(263,101,o),
(272,101,cs),
(293,101,o),
(317,178,o),
(346,178,cs),
(377,178,o),
(411,154,o),
(441,130,cs),
(471,106,o),
(497,83,o),
(536,83,cs),
(582,83,o),
(657,137,o),
(696,169,c),
(689,186,l),
(641,164,o),
(610,152,o),
(561,152,cs),
(461,152,o),
(413,200,o),
(365,203,cs),
(341,204,o),
(338,214,o),
(352,241,cs),
(382,296,o),
(393,350,o),
(393,414,cs),
(393,476,o),
(383,511,o),
(424,542,cs),
(453,565,o),
(476,559,o),
(491,544,cs),
(507,528,o),
(521,521,o),
(531,521,cs),
(540,521,o),
(560,540,o),
(560,554,cs),
(560,564,o),
(491,638,o),
(448,664,c)
);
}
);
width = 800;
}
);
unicode = 65302;
},
{
glyphname = seven.full;
lastChange = "2024-01-02 10:18:16 +0000";
layers = (
{
backgroundImage = {
imagePath = "images/７.png";
pos = (-15,-288);
scale = (1.44,1.44);
};
layerId = m01;
shapes = (
{
closed = 1;
nodes = (
(221,635,o),
(216,614,o),
(216,600,cs),
(216,586,o),
(262,527,o),
(268,527,cs),
(276,527,o),
(295,566,o),
(342,606,cs),
(386,644,o),
(404,667,o),
(404,605,cs),
(404,533,o),
(406,328,o),
(402,240,cs),
(400,172,o),
(394,151,o),
(377,175,cs),
(359,200,o),
(367,220,o),
(431,266,cs),
(494,313,o),
(532,320,o),
(552,307,cs),
(593,281,o),
(533,215,o),
(505,188,cs),
(478,162,o),
(462,155,o),
(462,134,cs),
(462,103,o),
(568,44,o),
(582,44,cs),
(606,44,o),
(625,52,o),
(625,71,cs),
(625,80,o),
(611,92,o),
(582,103,cs),
(524,124,o),
(500,119,o),
(535,149,cs),
(626,227,o),
(622,294,o),
(592,320,cs),
(559,348,o),
(506,350,o),
(434,298,cs),
(362,245,o),
(334,215,o),
(334,172,cs),
(334,151,o),
(383,56,o),
(402,56,cs),
(424,56,o),
(454,66,o),
(454,91,cs),
(454,116,o),
(442,131,o),
(442,245,cs),
(442,316,o),
(440,536,o),
(443,578,cs),
(445,624,o),
(455,618,o),
(463,618,cs),
(476,618,o),
(486,630,o),
(486,641,cs),
(486,652,o),
(419,695,o),
(408,695,cs),
(388,695,o),
(394,679,o),
(377,665,cs),
(347,637,o),
(294,599,o),
(276,599,cs),
(262,599,o),
(244,606,o),
(228,626,cs)
);
}
);
width = 800;
}
);
unicode = 65303;
},
{
glyphname = eight.full;
lastChange = "2024-01-02 10:18:38 +0000";
layers = (
{
backgroundImage = {
imagePath = "images/８.png";
pos = (-14,-89);
scale = (1.44,1.44);
};
layerId = m01;
shapes = (
{
closed = 1;
nodes = (
(243,499,o),
(237,482,o),
(237,466,cs),
(237,455,o),
(288,406,o),
(301,406,cs),
(309,406,o),
(312,424,o),
(328,444,cs),
(349,469,o),
(360,486,o),
(379,504,c),
(367,518,l),
(340,494,o),
(303,466,o),
(292,466,cs),
(276,466,o),
(265,469,o),
(250,490,cs)
);
},
{
ref = seven.full;
}
);
width = 800;
}
);
unicode = 65304;
},
{
glyphname = nine.full;
lastChange = "2024-01-02 10:18:42 +0000";
layers = (
{
backgroundImage = {
imagePath = "images/９.png";
pos = (-15,-163);
scale = (1.44,1.44);
};
layerId = m01;
shapes = (
{
closed = 1;
nodes = (
(239,391,o),
(233,374,o),
(233,357,cs),
(233,347,o),
(283,297,o),
(297,297,cs),
(305,297,o),
(307,315,o),
(324,336,cs),
(345,361,o),
(365,383,o),
(384,401,c),
(372,415,l),
(346,391,o),
(299,357,o),
(288,357,cs),
(271,357,o),
(261,361,o),
(246,381,cs)
);
},
{
ref = eight.full;
}
);
width = 800;
}
);
unicode = 65305;
},
{
glyphname = .notdef;
lastChange = "2024-01-15 00:29:01 +0000";
layers = (
{
background = {
shapes = (
{
closed = 1;
nodes = (
(362,96,o),
(394,96,o),
(432,86,cs),
(452,82,o),
(466,62,o),
(466,52,cs),
(466,30,o),
(443,24,o),
(430,24,cs),
(417,24,o),
(389,-6,o),
(368,-17,c),
(353,-2,l),
(370,16,o),
(375,43,o),
(360,60,cs),
(329,98,o),
(341,120,o),
(346,114,cs)
);
},
{
closed = 1;
nodes = (
(350,538,o),
(365,580,o),
(411,580,cs),
(472,580,o),
(525,527,o),
(506,466,cs),
(484,394,o),
(413,350,o),
(362,290,cs),
(335,259,o),
(378,220,o),
(404,229,cs),
(452,247,o),
(520,305,o),
(574,349,c),
(586,335,l),
(570,317,o),
(494,247,o),
(474,216,cs),
(465,200,o),
(467,176,o),
(467,157,cs),
(467,138,o),
(443,132,o),
(417,132,cs),
(376,132,o),
(246,227,o),
(297,305,cs),
(329,355,o),
(438,416,o),
(466,478,cs),
(485,520,o),
(443,542,o),
(417,542,cs),
(387,542,o),
(381,509,o),
(392,482,cs),
(396,469,o),
(378,463,o),
(366,463,cs),
(339,463,o),
(292,539,o),
(305,539,cs)
);
},
{
attr = {
strokePos = 1;
};
closed = 1;
nodes = (
(165,-122,l),
(655,-122,l),
(655,713,l),
(165,713,l)
);
}
);
};
layerId = m01;
shapes = (
{
closed = 1;
nodes = (
(362,96,o),
(394,96,o),
(432,86,cs),
(452,82,o),
(466,62,o),
(466,52,cs),
(466,30,o),
(443,24,o),
(430,24,cs),
(417,24,o),
(389,-6,o),
(368,-17,c),
(353,-2,l),
(370,16,o),
(375,43,o),
(360,60,cs),
(329,98,o),
(341,120,o),
(346,114,cs)
);
},
{
closed = 1;
nodes = (
(350,538,o),
(365,580,o),
(411,580,cs),
(472,580,o),
(525,527,o),
(506,466,cs),
(484,394,o),
(413,350,o),
(362,290,cs),
(335,259,o),
(378,220,o),
(404,229,cs),
(452,247,o),
(520,305,o),
(574,349,c),
(586,335,l),
(570,317,o),
(494,247,o),
(474,216,cs),
(465,200,o),
(467,176,o),
(467,157,cs),
(467,138,o),
(443,132,o),
(417,132,cs),
(376,132,o),
(246,227,o),
(297,305,cs),
(329,355,o),
(438,416,o),
(466,478,cs),
(485,520,o),
(443,542,o),
(417,542,cs),
(387,542,o),
(381,509,o),
(392,482,cs),
(396,469,o),
(378,463,o),
(366,463,cs),
(339,463,o),
(292,539,o),
(305,539,cs)
);
},
{
attr = {
strokeHeight = 40;
strokeWidth = 50;
};
closed = 1;
nodes = (
(158,679,l),
(164,648,l),
(167,620,l),
(170,593,l),
(172,559,l),
(164,533,l),
(162,502,l),
(165,474,l),
(164,443,l),
(160,416,l),
(163,386,l),
(172,356,l),
(171,320,l),
(171,297,l),
(165,266,l),
(162,235,l),
(159,201,l),
(158,176,l),
(171,150,l),
(169,117,l),
(163,86,l),
(167,58,l),
(165,26,l),
(161,-8,l),
(162,-32,l),
(164,-67,l),
(162,-92,l),
(201,-125,l),
(227,-121,l),
(293,-123,l),
(311,-126,l),
(348,-120,l),
(380,-127,l),
(406,-118,l),
(435,-119,l),
(477,-118,l),
(496,-125,l),
(530,-127,l),
(558,-123,l),
(589,-127,l),
(628,-125,l),
(654,-92,l),
(649,-61,l),
(661,-34,l),
(654,-1,l),
(654,25,l),
(658,60,l),
(660,91,l),
(658,113,l),
(648,149,l),
(649,177,l),
(650,209,l),
(651,233,l),
(649,264,l),
(656,300,l),
(661,325,l),
(652,351,l),
(655,382,l),
(650,417,l),
(662,441,l),
(657,469,l),
(662,506,l),
(651,536,l),
(649,567,l),
(653,597,l),
(659,620,l),
(662,653,l),
(650,683,l),
(621,711,l),
(594,716,l),
(570,711,l),
(535,708,l),
(504,717,l),
(472,712,l),
(439,710,l),
(408,711,l),
(384,708,l),
(346,708,l),
(320,716,l),
(285,717,l),
(255,715,l),
(231,709,l),
(202,712,l)
);
}
);
width = 800;
}
);
},
{
glyphname = "comma-han";
lastChange = "2024-01-14 22:48:16 +0000";
layers = (
{
backgroundImage = {
imagePath = "images/、.png";
locked = 1;
pos = (-224,-288);
scale = (1.44,1.44);
};
layerId = m01;
shapes = (
{
closed = 1;
nodes = (
(135,250,o),
(129,221,o),
(129,210,cs),
(129,192,o),
(176,152,o),
(197,127,cs),
(214,108,o),
(141,34,o),
(124,22,c),
(135,6,l),
(171,24,o),
(200,58,o),
(218,58,cs),
(232,58,o),
(263,25,o),
(279,25,cs),
(287,25,o),
(315,47,o),
(315,56,cs),
(315,92,o),
(261,126,o),
(228,144,cs),
(203,158,o),
(160,205,o),
(143,234,cs)
);
}
);
width = 800;
}
);
unicode = 12289;
},
{
glyphname = "period-han";
lastChange = "2024-01-14 22:48:29 +0000";
layers = (
{
backgroundImage = {
imagePath = "images/。.png";
locked = 1;
pos = (-224,-288);
scale = (1.44,1.44);
};
layerId = m01;
shapes = (
{
closed = 1;
nodes = (
(202,222,o),
(130,169,o),
(130,112,cs),
(130,54,o),
(199,19,o),
(231,19,cs),
(283,19,o),
(355,38,o),
(355,115,cs),
(355,184,o),
(308,222,o),
(262,222,cs)
);
},
{
closed = 1;
nodes = (
(216,116,o),
(187,101,o),
(187,133,cs),
(187,168,o),
(226,187,o),
(255,187,cs),
(290,187,o),
(314,150,o),
(314,119,cs),
(314,95,o),
(286,70,o),
(278,62,cs),
(270,55,o),
(255,54,o),
(260,65,cs),
(265,76,o),
(270,100,o),
(243,108,cs)
);
}
);
width = 800;
}
);
unicode = 12290;
},
{
glyphname = "dot-kata.full";
lastChange = "2024-01-14 23:37:58 +0000";
layers = (
{
layerId = m01;
shapes = (
{
closed = 1;
nodes = (
(333,457,o),
(303,387,o),
(343,360,cs),
(369,342,o),
(358,334,o),
(358,321,c),
(374,312,l),
(395,312,o),
(423,330,o),
(436,330,cs),
(449,330,o),
(472,345,o),
(472,375,cs),
(472,411,o),
(451,447,o),
(431,452,cs),
(393,461,o),
(361,435,o),
(340,452,cs)
);
}
);
width = 800;
}
);
tags = (
unofficial
);
},
{
color = 9;
glyphname = question_exclam;
lastChange = "2024-01-15 01:10:28 +0000";
layers = (
{
layerId = m01;
shapes = (
{
ref = question;
},
{
closed = 1;
nodes = (
(313,547,o),
(304,521,o),
(304,514,cs),
(304,496,o),
(314,471,o),
(334,471,cs),
(352,471,o),
(390,515,o),
(422,540,cs),
(432,549,o),
(440,544,o),
(440,509,cs),
(440,461,o),
(440,336,o),
(436,275,cs),
(435,263,o),
(418,261,o),
(410,252,cs),
(398,241,o),
(459,144,o),
(480,144,cs),
(491,144,o),
(513,153,o),
(513,165,cs),
(513,177,o),
(484,213,o),
(495,239,cs),
(506,265,o),
(597,351,o),
(621,384,c),
(611,400,l),
(585,378,o),
(506,311,o),
(491,301,cs),
(482,294,o),
(476,300,o),
(473,325,cs),
(471,358,o),
(472,495,o),
(480,514,cs),
(491,537,o),
(526,531,o),
(526,547,cs),
(526,555,o),
(474,593,o),
(450,593,cs),
(429,593,o),
(364,527,o),
(353,522,cs),
(342,517,o),
(328,525,o),
(318,540,cs)
);
},
{
closed = 1;
nodes = (
(402,121,o),
(390,100,o),
(422,61,cs),
(436,45,o),
(431,17,o),
(414,-1,c),
(429,-15,l),
(450,-5,o),
(478,25,o),
(491,25,cs),
(504,25,o),
(527,31,o),
(527,53,cs),
(527,64,o),
(513,83,o),
(494,88,cs),
(455,97,o),
(423,97,o),
(407,115,cs)
);
}
);
width = 752;
}
);
metricLeft = question;
metricRight = exclam;
tags = (
liga
);
},
{
glyphname = comma.full;
lastChange = "2024-01-14 23:40:59 +0000";
layers = (
{
layerId = m01;
shapes = (
{
closed = 1;
nodes = (
(110,164,o),
(81,96,o),
(130,62,cs),
(150,48,o),
(139,18,o),
(122,0,c),
(137,-14,l),
(158,-4,o),
(186,26,o),
(199,26,cs),
(212,26,o),
(245,32,o),
(245,54,cs),
(245,65,o),
(251,131,o),
(210,140,cs),
(171,149,o),
(131,140,o),
(115,158,cs)
);
}
);
width = 800;
}
);
tags = (
unofficial
);
unicode = 65292;
},
{
glyphname = exclam.full;
lastChange = "2024-01-02 09:55:10 +0000";
layers = (
{
backgroundImage = {
imagePath = "images/！.png";
locked = 1;
pos = (-224,-288);
scale = (1.44,1.44);
};
layerId = m01;
shapes = (
{
closed = 1;
nodes = (
(273,548,o),
(264,522,o),
(264,515,cs),
(264,497,o),
(294,472,o),
(302,472,cs),
(320,472,o),
(348,516,o),
(380,541,cs),
(390,550,o),
(398,545,o),
(398,510,cs),
(398,462,o),
(398,337,o),
(394,276,cs),
(393,264,o),
(376,262,o),
(368,253,cs),
(356,242,o),
(417,145,o),
(438,145,cs),
(449,145,o),
(471,154,o),
(471,166,cs),
(471,178,o),
(442,214,o),
(453,240,cs),
(464,266,o),
(555,352,o),
(579,385,c),
(569,401,l),
(543,379,o),
(464,312,o),
(449,302,cs),
(440,295,o),
(434,301,o),
(431,326,cs),
(429,359,o),
(430,496,o),
(438,515,cs),
(449,538,o),
(484,532,o),
(484,548,cs),
(484,556,o),
(432,594,o),
(408,594,cs),
(387,594,o),
(322,528,o),
(311,523,cs),
(300,518,o),
(288,526,o),
(278,541,cs)
);
},
{
closed = 1;
nodes = (
(360,122,o),
(348,101,o),
(380,62,cs),
(394,46,o),
(389,18,o),
(372,0,c),
(387,-14,l),
(408,-4,o),
(436,26,o),
(449,26,cs),
(462,26,o),
(485,32,o),
(485,54,cs),
(485,65,o),
(471,84,o),
(452,89,cs),
(413,98,o),
(381,98,o),
(365,116,cs)
);
}
);
width = 800;
}
);
unicode = 65281;
},
{
glyphname = question.full;
lastChange = "2024-01-02 09:55:10 +0000";
layers = (
{
backgroundImage = {
imagePath = "images/？.png";
locked = 1;
pos = (-224,-288);
scale = (1.44,1.44);
};
layerId = m01;
shapes = (
{
closed = 1;
nodes = (
(341,120,o),
(329,98,o),
(360,60,cs),
(375,43,o),
(370,16,o),
(353,-2,c),
(368,-17,l),
(389,-6,o),
(417,24,o),
(430,24,cs),
(443,24,o),
(466,30,o),
(466,52,cs),
(466,62,o),
(452,82,o),
(432,86,cs),
(394,96,o),
(362,96,o),
(346,114,cs)
);
},
{
closed = 1;
nodes = (
(292,539,o),
(339,463,o),
(366,463,cs),
(378,463,o),
(396,469,o),
(392,482,cs),
(381,509,o),
(387,542,o),
(417,542,cs),
(443,542,o),
(485,520,o),
(466,478,cs),
(438,416,o),
(329,355,o),
(297,305,cs),
(246,227,o),
(376,132,o),
(417,132,cs),
(443,132,o),
(467,138,o),
(467,157,cs),
(467,176,o),
(465,200,o),
(474,216,cs),
(494,247,o),
(570,317,o),
(586,335,c),
(574,349,l),
(520,305,o),
(452,247,o),
(404,229,cs),
(378,220,o),
(335,259,o),
(362,290,cs),
(413,350,o),
(484,394,o),
(506,466,cs),
(525,527,o),
(472,580,o),
(411,580,cs),
(365,580,o),
(350,538,o),
(305,539,cs)
);
}
);
width = 800;
}
);
unicode = 65311;
},
{
glyphname = angleLeft;
lastChange = "2024-01-15 00:16:55 +0000";
layers = (
{
layerId = m01;
shapes = (
{
closed = 1;
nodes = (
(631,778,l),
(484,399,l),
(631,-22,l),
(697,-22,l),
(539,399,l),
(697,778,l)
);
}
);
width = 800;
}
);
tags = (
unofficial
);
unicode = 9001;
},
{
glyphname = blacklenticularbracketleft;
lastChange = "2024-01-15 00:17:02 +0000";
layers = (
{
layerId = m01;
shapes = (
{
closed = 1;
nodes = (
(697,778,c),
(484,778,l),
(484,-22,l),
(697,-22,l),
(636,24,o),
(572,195,o),
(572,375,cs),
(572,556,o),
(635,728,o)
);
}
);
width = 800;
}
);
tags = (
unofficial
);
unicode = 12304;
},
{
glyphname = cornerbracketleft;
lastChange = "2024-01-15 00:05:13 +0000";
layers = (
{
layerId = m01;
shapes = (
{
closed = 1;
nodes = (
(520,740,l),
(520,351,l),
(590,351,l),
(590,709,l),
(567,674,l),
(749,674,l),
(749,740,l)
);
}
);
width = 800;
}
);
tags = (
unofficial
);
unicode = 12300;
},
{
glyphname = tortoiseshellbracketleft;
lastChange = "2024-01-15 00:26:23 +0000";
layers = (
{
layerId = m01;
shapes = (
{
closed = 1;
nodes = (
(517,728,l),
(517,38,l),
(752,-22,l),
(752,35,l),
(597,86,l),
(597,680,l),
(752,721,l),
(752,778,l)
);
}
);
width = 800;
}
);
tags = (
unofficial
);
unicode = 12308;
},
{
glyphname = whitecornerbracketleft;
lastChange = "2024-01-15 00:09:16 +0000";
layers = (
{
background = {
shapes = (
{
ref = cornerbracketleft;
}
);
};
layerId = m01;
shapes = (
{
attr = {
strokeHeight = 30;
strokeWidth = 30;
};
closed = 1;
nodes = (
(520,740,l),
(520,351,l),
(600,351,l),
(600,654,l),
(749,654,l),
(749,740,l)
);
}
);
width = 800;
}
);
tags = (
unofficial
);
unicode = 12302;
},
{
glyphname = bracketleft.full;
lastChange = "2024-01-15 00:25:16 +0000";
layers = (
{
layerId = m01;
shapes = (
{
closed = 1;
nodes = (
(517,778,l),
(517,-22,l),
(752,-22,l),
(752,35,l),
(602,46,l),
(602,710,l),
(752,721,l),
(752,778,l)
);
}
);
width = 800;
}
);
tags = (
unofficial
);
unicode = 65339;
},
{
glyphname = parenleft.full;
lastChange = "2024-01-15 00:22:45 +0000";
layers = (
{
layerId = m01;
shapes = (
{
closed = 1;
nodes = (
(651,778,l),
(571,728,o),
(484,582,o),
(484,382,cs),
(484,181,o),
(571,28,o),
(651,-22,c),
(696,-22,l),
(616,28,o),
(549,181,o),
(549,382,cs),
(549,582,o),
(616,728,o),
(696,778,c)
);
}
);
width = 800;
}
);
tags = (
unofficial
);
unicode = 65288;
},
{
glyphname = blacklenticularbracketleft.salt;
lastChange = "2024-01-15 00:52:18 +0000";
layers = (
{
layerId = m01;
shapes = (
{
closed = 1;
nodes = (
(422,-21,l),
(454,-22,l),
(454,778,l),
(422,778,l)
);
},
{
ref = blacklenticularbracketleft;
}
);
width = 800;
}
);
tags = (
unofficial
);
},
{
color = 3;
glyphname = angleLeft.vert;
lastChange = "2024-01-15 00:57:07 +0000";
layers = (
{
layerId = m01;
shapes = (
{
closed = 1;
nodes = (
(800,-21,l),
(400,126,l),
(0,-21,l),
(0,-87,l),
(400,71,l),
(800,-87,l)
);
}
);
width = 800;
}
);
},
{
glyphname = "voicedcomb-kana";
lastChange = "2024-01-02 09:55:10 +0000";
layers = (
{
layerId = m01;
shapes = (
{
closed = 1;
nodes = (
(513,704,o),
(488,678,o),
(501,646,cs),
(512,620,o),
(524,604,o),
(540,601,cs),
(555,599,o),
(566,620,o),
(574,638,cs),
(580,653,o),
(610,673,o),
(626,665,cs),
(670,641,o),
(626,604,o),
(596,599,c),
(603,581,l),
(644,577,o),
(684,593,o),
(690,616,cs),
(698,642,o),
(648,695,o),
(628,691,cs),
(585,683,o),
(570,665,o),
(560,665,cs),
(548,665,o),
(525,671,o),
(518,691,cs)
);
}
);
width = 800;
}
);
unicode = 12441;
},
{
glyphname = "semivoicedcomb-kana";
lastChange = "2024-01-02 09:55:10 +0000";
layers = (
{
layerId = m01;
shapes = (
{
closed = 1;
nodes = (
(537,623,o),
(532,636,o),
(537,650,cs),
(545,673,o),
(569,688,o),
(597,680,cs),
(651,666,o),
(638,594,o),
(564,582,c),
(569,566,l),
(610,550,o),
(676,587,o),
(683,620,cs),
(693,666,o),
(657,709,o),
(605,713,cs),
(564,715,o),
(507,698,o),
(492,647,cs),
(483,614,o),
(519,583,o),
(549,583,cs),
(562,583,o),
(574,590,o),
(574,598,cs),
(574,616,o),
(564,630,o),
(560,629,cs)
);
}
);
width = 800;
}
);
unicode = 12442;
},
{
glyphname = "prolonged-kana";
lastChange = "2024-01-14 22:43:49 +0000";
layers = (
{
backgroundImage = {
angle = 90;
imagePath = "images/ー-126.png";
pos = (1099,-54);
scale = (1.44,1);
};
layerId = m01;
shapes = (
{
closed = 1;
nodes = (
(96,469,o),
(64,400,o),
(64,383,cs),
(64,343,o),
(170,280,o),
(195,280,cs),
(230,280,o),
(265,337,o),
(276,358,cs),
(287,379,o),
(301,395,o),
(318,395,cs),
(396,395,o),
(573,400,o),
(673,385,cs),
(698,381,o),
(710,349,o),
(728,349,cs),
(746,349,o),
(770,350,o),
(770,380,cs),
(770,395,o),
(731,458,o),
(711,458,cs),
(691,458,o),
(672,438,o),
(647,434,cs),
(565,420,o),
(396,421,o),
(343,434,cs),
(319,440,o),
(293,465,o),
(278,443,cs),
(262,421,o),
(232,332,o),
(211,332,cs),
(189,332,o),
(125,395,o),
(104,447,cs)
);
}
);
width = 800;
}
);
unicode = 12540;
},
{
color = 3;
glyphname = "prolonged-kana.vert";
lastChange = "2024-01-04 09:16:53 +0000";
layers = (
{
backgroundImage = {
imagePath = "images/ー-126.png";
locked = 1;
pos = (95,-230);
scale = (1.44,1.44);
};
layerId = m01;
shapes = (
{
closed = 1;
nodes = (
(359,809,o),
(356,791,o),
(356,779,cs),
(356,754,o),
(290,691,o),
(290,611,cs),
(290,522,o),
(342,520,o),
(370,502,cs),
(384,492,o),
(390,451,o),
(392,390,cs),
(393,329,o),
(396,193,o),
(387,44,cs),
(386,22,o),
(372,31,o),
(366,23,cs),
(346,-10,o),
(389,-61,o),
(404,-61,cs),
(417,-61,o),
(440,-44,o),
(440,-35,cs),
(440,-19,o),
(420,-12,o),
(420,36,cs),
(419,192,o),
(418,390,o),
(420,444,cs),
(423,487,o),
(446,486,o),
(446,496,cs),
(446,505,o),
(435,530,o),
(424,530,cs),
(376,528,o),
(317,523,o),
(317,614,cs),
(317,670,o),
(364,727,o),
(402,722,cs),
(413,721,o),
(431,732,o),
(431,739,cs),
(431,743,o),
(429,756,o),
(420,764,cs),
(410,775,o),
(389,790,o),
(366,804,cs)
);
}
